<?xml version="1.0" standalone="no"?>
<!DOCTYPE svg PUBLIC "-//W3C//DTD SVG 1.1//EN" "http://www.w3.org/Graphics/SVG/1.1/DTD/svg11.dtd">
<!--Generator: Xara Designer (www.xara.com), SVG filter version: 4.0.0.1-->
<svg stroke-width="0.501" stroke-linejoin="bevel" fill-rule="evenodd" xmlns:xlink="http://www.w3.org/1999/xlink" xmlns="http://www.w3.org/2000/svg" version="1.1" overflow="visible" width="191.25pt" height="75pt" viewBox="0 0 191.25 75">
 <defs>
  <marker id="DefaultArrow2" markerUnits="strokeWidth" viewBox="0 0 1 1" markerWidth="1" markerHeight="1" overflow="visible" orient="auto">
   <!-- REF_ARROW_STRAIGHT (-2) -->
   <g transform="scale(0.0092592592)">
    <!-- 1/108 -->
    <path d="M -9 54 L -9 -54 L 117 0 z"/>
   </g>
  </marker>
  <marker id="DefaultArrow3" markerUnits="strokeWidth" viewBox="0 0 1 1" markerWidth="1" markerHeight="1" overflow="visible" orient="auto">
   <!-- REF_ARROW_ANGLED -->
   <g transform="scale(0.0092592592)">
    <path d="M -27 54 L -9 0 L -27 -54 L 135 0 z"/>
   </g>
  </marker>
  <marker id="DefaultArrow4" markerUnits="strokeWidth" viewBox="0 0 1 1" markerWidth="1" markerHeight="1" overflow="visible" orient="auto">
   <!-- REF_ARROW_ROUNDED -->
   <g transform="scale(0.0092592592)">
    <path d="M -9,0 L -9,-45 C -9,-51.708 2.808,-56.580 9,-54 L 117,-9 C 120.916,-7.369 126.000,-4.242 126,0 C 126,4.242 120.916,7.369 117,9 L 9,54 C 2.808,56.580 -9,51.708 -9,45 z"/>
   </g>
  </marker>
  <marker id="DefaultArrow5" markerUnits="strokeWidth" viewBox="0 0 1 1" markerWidth="1" markerHeight="1" overflow="visible" orient="auto">
   <!-- REF_ARROW_SPOT -->
   <g transform="scale(0.0092592592)">
    <path d="M -54, 0 C -54,29.807 -29.807,54 0,54 C 29.807,54 54,29.807 54,0 C 54,-29.807 29.807,-54 0,-54 C -29.807,-54 -54,-29.807 -54,0 z"/>
   </g>
  </marker>
  <marker id="DefaultArrow6" markerUnits="strokeWidth" viewBox="0 0 1 1" markerWidth="1" markerHeight="1" overflow="visible" orient="auto">
   <!-- REF_ARROW_DIAMOND -->
   <g transform="scale(0.0092592592)">
    <path d="M -63,0 L 0,63 L 63,0 L 0,-63 z"/>
   </g>
  </marker>
  <marker id="DefaultArrow7" markerUnits="strokeWidth" viewBox="0 0 1 1" markerWidth="1" markerHeight="1" overflow="visible" orient="auto">
   <!-- REF_ARROW_FEATHER -->
   <g transform="scale(0.0092592592)">
    <path d="M 18,-54 L 108,-54 L 63,0 L 108,54 L 18, 54 L -36,0 z"/>
   </g>
  </marker>
  <marker id="DefaultArrow8" markerUnits="strokeWidth" viewBox="0 0 1 1" markerWidth="1" markerHeight="1" overflow="visible" orient="auto">
   <!-- REF_ARROW_FEATHER2 -->
   <g transform="scale(0.0092592592)">
    <path d="M -36,0 L 18,-54 L 54,-54 L 18,-18 L 27,-18 L 63,-54 L 99,-54 L 63,-18 L 72,-18 L 108,-54 L 144,-54 L 90,0 L 144,54 L 108,54 L 72,18 L 63,18 L 99,54 L 63,54 L 27,18 L 18,18 L 54,54 L 18,54 z"/>
   </g>
  </marker>
  <marker id="DefaultArrow9" markerUnits="strokeWidth" viewBox="0 0 1 1" markerWidth="1" markerHeight="1" overflow="visible" orient="auto">
   <!-- REF_ARROW_HOLLOWDIAMOND -->
   <g transform="scale(0.0092592592)">
    <path d="M 0,45 L -45,0 L 0, -45 L 45, 0 z M 0, 63 L-63, 0 L 0, -63 L 63, 0 z"/>
   </g>
  </marker>
  <filter id="StainedFilter">
   <feBlend mode="multiply" in2="BackgroundImage" in="SourceGraphic" result="blend"/>
   <feComposite in="blend" in2="SourceAlpha" operator="in" result="comp"/>
  </filter>
  <filter id="BleachFilter">
   <feBlend mode="screen" in2="BackgroundImage" in="SourceGraphic" result="blend"/>
   <feComposite in="blend" in2="SourceAlpha" operator="in" result="comp"/>
  </filter>
  <filter id="InvertTransparencyBitmapFilter">
   <feComponentTransfer>
    <feFuncR type="gamma" amplitude="1.055" exponent=".416666666" offset="-0.055"/>
    <feFuncG type="gamma" amplitude="1.055" exponent=".416666666" offset="-0.055"/>
    <feFuncB type="gamma" amplitude="1.055" exponent=".416666666" offset="-0.055"/>
   </feComponentTransfer>
   <feComponentTransfer>
    <feFuncR type="linear" slope="-1" intercept="1"/>
    <feFuncG type="linear" slope="-1" intercept="1"/>
    <feFuncB type="linear" slope="-1" intercept="1"/>
    <feFuncA type="linear" slope="1" intercept="0"/>
   </feComponentTransfer>
   <feComponentTransfer>
    <feFuncR type="gamma" amplitude="1" exponent="2.4" offset="0"/>
    <feFuncG type="gamma" amplitude="1" exponent="2.4" offset="0"/>
    <feFuncB type="gamma" amplitude="1" exponent="2.4" offset="0"/>
   </feComponentTransfer>
  </filter>
 </defs>
 <g id="Document" fill="none" stroke="black" font-family="Times New Roman" font-size="16" transform="scale(1 -1)">
  <g id="Spread" transform="translate(0 -75)">
   <g id="SVG Document">
    <g id="ClipView">
     <path d="M 4.087,72.194 L 195.039,72.194 L 195.039,-2.05 L 4.087,-2.05 L 4.087,72.194" stroke="none"/>
     <clipPath id="ClipPath">
      <path d="M 4.087,-2.05 L 4.087,72.194 L 195.039,72.194 L 195.039,-2.05 L 4.087,-2.05 Z"/>
     </clipPath>
     <g clip-path="url(#ClipPath)">
      <g id="Group">
       <g id="Group_1">
        <path d="M 66.76,4.962 L 4.087,4.962 L 4.087,72.193 L 66.76,72.193 L 66.76,4.962" stroke="none" fill="#dc1b30" stroke-width="0.061" fill-rule="nonzero" stroke-linejoin="miter" stroke-miterlimit="79.8403193612775"/>
        <path d="M 5.228,25.55 L 5.228,25.382 L 34.622,45.964 L 5.228,21.301 L 5.228,21.121 L 34.712,45.862 L 5.228,16.376 L 5.228,16.183 L 34.803,45.757 L 5.299,10.596 L 5.477,10.596 L 34.909,45.67 L 10.349,10.596 L 10.517,10.596 L 35.023,45.596 L 14.817,10.596 L 14.973,10.596 L 35.146,45.536 L 18.855,10.596 L 19.006,10.596 L 35.262,45.455 L 22.573,10.596 L 22.718,10.596 L 35.4,45.438 L 26.064,10.596 L 26.207,10.596 L 35.524,45.368 L 29.391,10.596 L 29.531,10.596 L 35.661,45.357 L 32.619,10.596 L 32.757,10.596 L 35.799,45.366 L 35.799,10.596 L 35.937,10.596 L 35.937,45.333 L 38.975,10.596 L 39.113,10.596 L 36.072,45.373 L 42.205,10.596 L 42.343,10.596 L 36.206,45.395 L 45.532,10.596 L 45.673,10.596 L 36.34,45.425 L 49.016,10.596 L 49.163,10.596 L 36.472,45.46 L 52.728,10.596 L 52.882,10.596 L 36.595,45.525 L 56.761,10.596 L 56.918,10.596 L 36.715,45.591 L 61.217,10.596 L 61.385,10.596 L 36.819,45.678 L 66.257,10.596 L 66.3,10.596 L 66.3,10.758 L 36.928,45.762 L 66.3,16.391 L 66.3,16.584 L 37.023,45.862 L 66.3,21.295 L 66.3,21.474 L 37.119,45.961 L 66.3,25.526 L 66.3,25.693 L 37.199,46.073 L 66.3,29.27 L 66.3,29.427 L 37.249,46.201 L 66.3,32.654 L 66.3,32.805 L 37.326,46.317 L 66.3,35.771 L 66.3,35.917 L 37.367,46.448 L 66.3,38.695 L 66.3,38.836 L 37.388,46.584 L 66.3,41.485 L 66.3,41.623 L 37.433,46.714 L 66.3,44.19 L 66.3,44.327 L 37.429,46.852 L 66.3,46.852 L 66.3,46.99 L 37.448,46.99 L 66.3,49.515 L 66.3,49.651 L 37.42,47.124 L 66.3,52.218 L 66.3,52.356 L 37.411,47.262 L 66.3,55.002 L 66.3,55.145 L 37.353,47.39 L 66.3,57.924 L 66.3,58.069 L 37.326,47.524 L 66.3,61.037 L 66.3,61.188 L 37.253,47.641 L 66.3,64.413 L 66.3,64.571 L 37.2,47.77 L 66.3,68.146 L 66.3,68.313 L 37.115,47.877 L 65.469,71.668 L 65.257,71.668 L 37.03,47.984 L 60.714,71.668 L 60.52,71.668 L 36.927,48.075 L 56.725,71.668 L 56.545,71.668 L 36.821,48.164 L 53.28,71.668 L 53.113,71.668 L 36.712,48.245 L 50.235,71.668 L 50.077,71.668 L 36.596,48.32 L 47.485,71.668 L 47.333,71.668 L 36.462,48.359 L 44.947,71.668 L 44.802,71.668 L 36.345,48.435 L 42.571,71.668 L 42.428,71.668 L 36.206,48.44 L 40.3,71.668 L 40.162,71.668 L 36.072,48.474 L 38.101,71.668 L 37.963,71.668 L 35.937,48.506 L 35.937,71.668 L 35.799,71.668 L 35.799,48.472 L 33.77,71.668 L 33.633,71.668 L 35.661,48.489 L 31.574,71.668 L 31.433,71.668 L 35.525,48.464 L 29.309,71.668 L 29.165,71.668 L 35.394,48.422 L 26.933,71.668 L 26.788,71.668 L 35.27,48.365 L 24.402,71.668 L 24.252,71.668 L 35.143,48.309 L 21.658,71.668 L 21.5,71.668 L 35.026,48.241 L 18.621,71.668 L 18.455,71.668 L 34.906,48.171 L 15.191,71.668 L 15.012,71.668 L 34.804,48.079 L 11.215,71.668 L 11.023,71.668 L 34.707,47.984 L 6.48,71.668 L 6.268,71.668 L 34.626,47.874 L 5.228,68.458 L 5.228,68.291 L 34.548,47.76 L 5.228,64.689 L 5.228,64.529 L 34.463,47.651 L 5.228,61.284 L 5.228,61.134 L 34.422,47.519 L 5.228,58.144 L 5.228,57.999 L 34.369,47.392 L 5.228,55.2 L 5.228,55.058 L 34.322,47.263 L 5.228,52.393 L 5.228,52.254 L 34.319,47.124 L 5.228,49.669 L 5.228,49.532 L 34.287,46.99 L 5.228,46.99 L 5.228,46.852 L 34.307,46.852 L 5.228,44.309 L 5.228,44.171 L 34.307,46.715 L 5.228,41.587 L 5.228,41.449 L 34.344,46.581 L 5.228,38.78 L 5.228,38.639 L 34.357,46.443 L 5.228,35.842 L 5.228,35.697 L 34.422,46.322 L 5.228,32.707 L 5.228,32.556 L 34.466,46.191 L 5.228,29.31 L 5.228,29.153 L 34.549,46.081" stroke="none" fill="#e14245" stroke-width="0.061" fill-rule="nonzero" stroke-linejoin="miter" stroke-miterlimit="79.8403193612775"/>
        <path d="M 66.413,5.456 L 4.346,5.456 L 4.346,15.818 L 66.413,15.818 L 66.413,5.456" stroke="none" fill="#dc1b30" stroke-width="0.061" fill-rule="nonzero" stroke-linejoin="miter" stroke-miterlimit="79.8403193612775"/>
        <path d="M 9.783,10.251 C 9.772,10.493 9.748,10.593 9.688,10.73 C 9.598,10.931 9.407,11.049 9.165,11.049 C 8.705,11.049 8.481,10.634 8.481,9.793 C 8.481,8.977 8.7,8.619 9.182,8.619 C 9.552,8.619 9.766,8.849 9.851,9.327 L 10.697,9.277 C 10.648,8.906 10.579,8.72 10.418,8.495 C 10.143,8.115 9.711,7.907 9.177,7.907 C 8.161,7.907 7.503,8.665 7.503,9.836 C 7.503,10.387 7.651,10.852 7.943,11.205 C 8.245,11.582 8.655,11.76 9.195,11.76 C 9.72,11.76 10.119,11.582 10.377,11.228 C 10.564,10.975 10.637,10.758 10.697,10.313 L 9.783,10.251" stroke="none" fill="#ffffff" stroke-width="0.061" fill-rule="nonzero" stroke-linejoin="miter" stroke-miterlimit="79.8403193612775"/>
        <path d="M 12.18,10.723 C 12.08,10.509 12.017,10.185 12.017,9.836 C 12.017,9.024 12.247,8.619 12.714,8.619 C 13.163,8.619 13.381,9.017 13.381,9.832 C 13.381,10.645 13.163,11.049 12.709,11.049 C 12.46,11.049 12.288,10.942 12.18,10.723 Z M 13.869,11.218 C 14.145,10.841 14.295,10.348 14.295,9.808 C 14.295,9.32 14.139,8.797 13.881,8.45 C 13.618,8.103 13.191,7.906 12.685,7.906 C 12.197,7.906 11.805,8.092 11.535,8.444 C 11.256,8.817 11.104,9.303 11.104,9.849 C 11.104,10.381 11.256,10.869 11.523,11.218 C 11.799,11.569 12.208,11.76 12.714,11.76 C 13.219,11.76 13.6,11.582 13.869,11.218" stroke="none" fill="#ffffff" stroke-width="0.061" fill-rule="nonzero" stroke-linejoin="miter" stroke-miterlimit="79.8403193612775"/>
        <path d="M 15.679,11.016 L 15.679,7.963 L 14.942,7.963 L 14.942,11.706 L 16.306,11.706 L 16.963,9.465 L 17.659,11.706 L 19.023,11.706 L 19.023,7.963 L 18.141,7.963 L 18.141,11.016 L 17.199,7.963 L 16.598,7.963 L 15.679,11.016" stroke="none" fill="#ffffff" stroke-width="0.061" fill-rule="nonzero" stroke-linejoin="miter" stroke-miterlimit="79.8403193612775"/>
        <path d="M 20.579,11.016 L 20.579,7.963 L 19.844,7.963 L 19.844,11.706 L 21.209,11.706 L 21.864,9.465 L 22.559,11.706 L 23.924,11.706 L 23.924,7.963 L 23.043,7.963 L 23.043,11.016 L 22.1,7.963 L 21.5,7.963 L 20.579,11.016" stroke="none" fill="#ffffff" stroke-width="0.061" fill-rule="nonzero" stroke-linejoin="miter" stroke-miterlimit="79.8403193612775"/>
        <path d="M 27.692,9.37 C 27.692,8.759 27.608,8.489 27.343,8.255 C 27.081,8.019 26.71,7.907 26.209,7.907 C 25.682,7.907 25.302,8.03 25.037,8.277 C 24.801,8.513 24.706,8.821 24.706,9.37 L 24.706,11.706 L 25.654,11.706 L 25.654,9.37 C 25.654,9.068 25.682,8.939 25.762,8.826 C 25.857,8.693 26.049,8.619 26.289,8.619 C 26.531,8.619 26.743,8.697 26.838,8.821 C 26.922,8.928 26.946,9.052 26.946,9.37 L 26.946,11.706 L 27.692,11.706 L 27.692,9.37" stroke="none" fill="#ffffff" stroke-width="0.061" fill-rule="nonzero" stroke-linejoin="miter" stroke-miterlimit="79.8403193612775"/>
        <path d="M 31.341,7.963 L 30.588,7.963 L 29.124,10.493 C 29.131,10.431 29.131,10.381 29.131,10.363 C 29.136,10.279 29.142,10.224 29.142,10.201 L 29.142,7.963 L 28.461,7.963 L 28.461,11.706 L 29.404,11.706 L 30.678,9.5 C 30.667,9.617 30.662,9.673 30.662,9.745 L 30.662,11.706 L 31.341,11.706 L 31.341,7.963" stroke="none" fill="#ffffff" stroke-width="0.061" fill-rule="nonzero" stroke-linejoin="miter" stroke-miterlimit="79.8403193612775"/>
        <path d="M 33.043,7.963 L 32.168,7.963 L 32.168,11.706 L 33.043,11.706 L 33.043,7.963" stroke="none" fill="#ffffff" stroke-width="0.061" fill-rule="nonzero" stroke-linejoin="miter" stroke-miterlimit="79.8403193612775"/>
        <path d="M 36.231,10.964 L 35.305,10.964 L 35.305,7.963 L 34.418,7.963 L 34.418,10.964 L 33.488,10.964 L 33.488,11.706 L 36.231,11.706 L 36.231,10.964" stroke="none" fill="#ffffff" stroke-width="0.061" fill-rule="nonzero" stroke-linejoin="miter" stroke-miterlimit="79.8403193612775"/>
        <path d="M 38.208,9.539 L 38.208,7.963 L 37.333,7.963 L 37.333,9.539 L 36.154,11.706 L 37.171,11.706 L 37.889,10.285 L 38.596,11.706 L 39.38,11.706 L 38.208,9.539" stroke="none" fill="#ffffff" stroke-width="0.061" fill-rule="nonzero" stroke-linejoin="miter" stroke-miterlimit="79.8403193612775"/>
        <path d="M 43.26,10.251 C 43.25,10.493 43.225,10.593 43.165,10.73 C 43.075,10.931 42.884,11.049 42.642,11.049 C 42.182,11.049 41.958,10.634 41.958,9.793 C 41.958,8.977 42.177,8.619 42.659,8.619 C 43.03,8.619 43.243,8.849 43.327,9.327 L 44.175,9.277 C 44.123,8.906 44.056,8.72 43.895,8.495 C 43.62,8.115 43.186,7.907 42.654,7.907 C 41.638,7.907 40.982,8.665 40.982,9.836 C 40.982,10.387 41.128,10.852 41.42,11.205 C 41.722,11.582 42.132,11.76 42.67,11.76 C 43.199,11.76 43.596,11.582 43.856,11.228 C 44.04,10.975 44.114,10.758 44.175,10.313 L 43.26,10.251" stroke="none" fill="#ffffff" stroke-width="0.061" fill-rule="nonzero" stroke-linejoin="miter" stroke-miterlimit="79.8403193612775"/>
        <path d="M 45.657,10.723 C 45.557,10.509 45.495,10.185 45.495,9.836 C 45.495,9.024 45.725,8.619 46.193,8.619 C 46.64,8.619 46.858,9.017 46.858,9.832 C 46.858,10.645 46.64,11.049 46.186,11.049 C 45.937,11.049 45.765,10.942 45.657,10.723 Z M 47.347,11.218 C 47.623,10.841 47.774,10.348 47.774,9.808 C 47.774,9.32 47.616,8.797 47.358,8.45 C 47.093,8.103 46.668,7.906 46.163,7.906 C 45.675,7.906 45.282,8.092 45.013,8.444 C 44.733,8.817 44.581,9.303 44.581,9.849 C 44.581,10.381 44.733,10.869 45.002,11.218 C 45.276,11.569 45.685,11.76 46.193,11.76 C 46.696,11.76 47.078,11.582 47.347,11.218" stroke="none" fill="#ffffff" stroke-width="0.061" fill-rule="nonzero" stroke-linejoin="miter" stroke-miterlimit="79.8403193612775"/>
        <path d="M 50.794,8.704 L 50.794,7.963 L 48.421,7.963 L 48.421,11.706 L 49.306,11.706 L 49.306,8.704 L 50.794,8.704" stroke="none" fill="#ffffff" stroke-width="0.061" fill-rule="nonzero" stroke-linejoin="miter" stroke-miterlimit="79.8403193612775"/>
        <path d="M 53.692,8.704 L 53.692,7.963 L 51.318,7.963 L 51.318,11.706 L 52.204,11.706 L 52.204,8.704 L 53.692,8.704" stroke="none" fill="#ffffff" stroke-width="0.061" fill-rule="nonzero" stroke-linejoin="miter" stroke-miterlimit="79.8403193612775"/>
        <path d="M 55.107,10.993 L 55.107,10.224 L 56.508,10.224 L 56.508,9.522 L 55.107,9.522 L 55.107,8.704 L 56.889,8.704 L 56.889,7.963 L 54.215,7.963 L 54.215,11.706 L 56.889,11.706 L 56.889,10.993 L 55.107,10.993" stroke="none" fill="#ffffff" stroke-width="0.061" fill-rule="nonzero" stroke-linejoin="miter" stroke-miterlimit="79.8403193612775"/>
        <path d="M 60.399,7.963 L 60.001,7.963 C 59.955,8.158 59.944,8.193 59.873,8.394 C 59.552,8.03 59.295,7.906 58.851,7.906 C 57.907,7.906 57.309,8.635 57.309,9.786 C 57.309,10.998 57.943,11.76 58.94,11.76 C 59.738,11.76 60.265,11.301 60.399,10.477 L 59.569,10.363 C 59.541,10.555 59.512,10.634 59.458,10.74 C 59.35,10.936 59.154,11.049 58.924,11.049 C 58.456,11.049 58.2,10.606 58.2,9.802 C 58.2,9.04 58.469,8.619 58.964,8.619 C 59.165,8.619 59.339,8.697 59.452,8.849 C 59.541,8.971 59.569,9.068 59.569,9.264 L 58.862,9.264 L 58.862,9.966 L 60.399,9.966 L 60.399,7.963" stroke="none" fill="#ffffff" stroke-width="0.061" fill-rule="nonzero" stroke-linejoin="miter" stroke-miterlimit="79.8403193612775"/>
        <path d="M 62.058,10.993 L 62.058,10.224 L 63.461,10.224 L 63.461,9.522 L 62.058,9.522 L 62.058,8.704 L 63.842,8.704 L 63.842,7.963 L 61.166,7.963 L 61.166,11.706 L 63.842,11.706 L 63.842,10.993 L 62.058,10.993" stroke="none" fill="#ffffff" stroke-width="0.061" fill-rule="nonzero" stroke-linejoin="miter" stroke-miterlimit="79.8403193612775"/>
        <path d="M 21.478,14.202 L 20.641,14.202 C 20.547,14.615 20.523,14.686 20.37,15.11 C 19.697,14.344 19.154,14.085 18.222,14.085 C 16.241,14.085 14.979,15.617 14.979,18.035 C 14.979,20.583 16.312,22.186 18.412,22.186 C 20.086,22.186 21.196,21.22 21.478,19.487 L 19.732,19.25 C 19.674,19.653 19.615,19.817 19.497,20.04 C 19.272,20.453 18.861,20.689 18.376,20.689 C 17.397,20.689 16.853,19.759 16.853,18.071 C 16.853,16.466 17.42,15.582 18.459,15.582 C 18.883,15.582 19.248,15.748 19.484,16.065 C 19.674,16.326 19.732,16.526 19.732,16.938 L 18.246,16.938 L 18.246,18.413 L 21.478,18.413 L 21.478,14.202" stroke="none" fill="#ffffff" stroke-width="0.061" fill-rule="nonzero" stroke-linejoin="miter" stroke-miterlimit="79.8403193612775"/>
        <path d="M 29.277,17.164 C 29.277,15.877 29.1,15.31 28.545,14.814 C 27.99,14.319 27.212,14.085 26.162,14.085 C 25.053,14.085 24.252,14.344 23.698,14.863 C 23.202,15.358 23.001,16.008 23.001,17.164 L 23.001,22.071 L 24.995,22.071 L 24.995,17.164 C 24.995,16.526 25.053,16.254 25.219,16.019 C 25.419,15.734 25.82,15.582 26.328,15.582 C 26.834,15.582 27.283,15.748 27.482,16.008 C 27.661,16.231 27.708,16.49 27.708,17.164 L 27.708,22.071 L 29.277,22.071 L 29.277,17.164" stroke="none" fill="#ffffff" stroke-width="0.061" fill-rule="nonzero" stroke-linejoin="miter" stroke-miterlimit="79.8403193612775"/>
        <path d="M 34.197,17.268 L 33.36,20.028 L 32.523,17.268 Z M 37.087,14.202 L 35.106,14.202 L 34.622,15.818 L 32.087,15.818 L 31.59,14.202 L 29.974,14.202 L 32.486,22.071 L 34.622,22.071 L 37.087,14.202" stroke="none" fill="#ffffff" stroke-width="0.061" fill-rule="nonzero" stroke-linejoin="miter" stroke-miterlimit="79.8403193612775"/>
        <path d="M 39.943,18.661 L 41.075,18.661 C 41.689,18.661 41.831,18.685 42.054,18.826 C 42.327,18.992 42.516,19.344 42.516,19.686 C 42.516,19.993 42.373,20.288 42.15,20.464 C 41.915,20.643 41.772,20.666 41.028,20.666 L 39.943,20.666 Z M 39.943,14.202 L 38.091,14.202 L 38.091,22.071 L 41.548,22.071 C 42.563,22.071 43.117,21.928 43.588,21.538 C 44.095,21.125 44.415,20.418 44.415,19.71 C 44.415,19.144 44.201,18.579 43.824,18.177 C 43.635,17.975 43.457,17.859 43.058,17.67 L 44.508,14.202 L 42.467,14.202 L 41.265,17.316 L 39.943,17.316 L 39.943,14.202" stroke="none" fill="#ffffff" stroke-width="0.061" fill-rule="nonzero" stroke-linejoin="miter" stroke-miterlimit="79.8403193612775"/>
        <path d="M 47.742,15.677 L 48.496,15.677 C 49.133,15.677 49.582,15.878 49.912,16.313 C 50.277,16.808 50.478,17.469 50.478,18.177 C 50.478,18.883 50.277,19.51 49.923,19.982 C 49.582,20.431 49.168,20.618 48.52,20.618 L 47.742,20.618 Z M 48.332,22.071 C 49.842,22.071 50.644,21.774 51.374,20.973 C 52.023,20.241 52.377,19.262 52.377,18.154 C 52.377,17.056 52.035,16.077 51.398,15.345 C 50.737,14.58 49.818,14.202 48.638,14.202 L 45.937,14.202 L 45.937,22.071 L 48.332,22.071" stroke="none" fill="#ffffff" stroke-width="0.061" fill-rule="nonzero" stroke-linejoin="miter" stroke-miterlimit="79.8403193612775"/>
        <path d="M 55.577,14.202 L 53.736,14.202 L 53.736,22.071 L 55.577,22.071 L 55.577,14.202" stroke="none" fill="#ffffff" stroke-width="0.061" fill-rule="nonzero" stroke-linejoin="miter" stroke-miterlimit="79.8403193612775"/>
        <path d="M 60.743,17.268 L 59.905,20.028 L 59.067,17.268 Z M 63.633,14.202 L 61.651,14.202 L 61.166,15.818 L 58.632,15.818 L 58.136,14.202 L 56.52,14.202 L 59.032,22.071 L 61.166,22.071 L 63.633,14.202" stroke="none" fill="#ffffff" stroke-width="0.061" fill-rule="nonzero" stroke-linejoin="miter" stroke-miterlimit="79.8403193612775"/>
        <path d="M 14.021,15.874 L 13.993,14.315 L 7.711,14.315 L 7.711,22.182 L 9.575,22.182 L 9.575,15.871 L 14.021,15.874" stroke="none" fill="#ffffff" stroke-width="0.061" fill-rule="nonzero" stroke-linejoin="miter" stroke-miterlimit="79.8403193612775"/>
        <path d="M 13.093,18.87 C 12.77,18.837 12.64,18.815 12.459,18.749 C 12.149,18.649 11.991,18.469 11.991,18.209 C 11.991,17.943 12.17,17.755 12.438,17.755 C 12.813,17.755 13.095,18.101 13.095,18.547 Z M 13.187,17.171 C 13.144,17.402 13.138,17.444 13.138,17.632 C 13.138,17.639 13.138,17.684 13.144,17.727 C 12.798,17.258 12.518,17.098 12.004,17.098 C 11.327,17.098 10.888,17.488 10.888,18.094 C 10.888,18.598 11.169,18.974 11.681,19.167 C 11.963,19.268 12.293,19.326 13.095,19.392 L 13.095,19.593 C 13.095,19.94 12.921,20.113 12.568,20.113 C 12.221,20.113 12.004,19.931 11.963,19.593 L 10.996,19.686 C 11.067,20.068 11.175,20.263 11.399,20.436 C 11.71,20.673 12.149,20.796 12.67,20.796 C 13.245,20.796 13.714,20.63 13.944,20.35 C 14.096,20.156 14.139,19.968 14.139,19.442 L 14.139,17.834 C 14.139,17.409 14.139,17.409 14.203,17.171 L 13.187,17.171" stroke="none" fill="#ffffff" stroke-width="0.061" fill-rule="nonzero" stroke-linejoin="miter" stroke-miterlimit="79.8403193612775"/>
        <path d="M 47.477,45.678 C 47.477,38.993 42.058,33.573 35.372,33.573 C 28.686,33.573 23.267,38.993 23.267,45.678 C 23.267,52.363 28.686,57.783 35.372,57.783 C 42.058,57.783 47.477,52.363 47.477,45.678" stroke="none" fill="#dc1b30" stroke-width="0.061" fill-rule="nonzero" stroke-linejoin="miter" stroke-miterlimit="79.8403193612775"/>
        <path d="M 45.069,34.44 L 49.069,34.106 L 45.402,38.44 L 41.4,38.774 L 41.065,34.774 L 44.737,30.437 L 45.069,34.44" stroke="none" fill="#ffffff" stroke-width="0.061" fill-rule="nonzero" stroke-linejoin="miter" stroke-miterlimit="79.8403193612775"/>
        <path d="M 21.146,43.07 L 18.858,39.771 L 24.447,40.782 L 26.735,44.083 L 23.436,46.37 L 17.847,45.359 L 21.146,43.07" stroke="none" fill="#ffffff" stroke-width="0.061" fill-rule="nonzero" stroke-linejoin="miter" stroke-miterlimit="79.8403193612775"/>
        <path d="M 26.2,34.408 L 26.566,30.41 L 30.197,34.776 L 29.831,38.774 L 25.831,38.407 L 22.2,34.04 L 26.2,34.408" stroke="none" fill="#ffffff" stroke-width="0.061" fill-rule="nonzero" stroke-linejoin="miter" stroke-miterlimit="79.8403193612775"/>
        <path d="M 50.089,43.134 L 53.367,45.451 L 47.771,46.413 L 44.49,44.095 L 46.808,40.816 L 52.406,39.853 L 50.089,43.134" stroke="none" fill="#ffffff" stroke-width="0.061" fill-rule="nonzero" stroke-linejoin="miter" stroke-miterlimit="79.8403193612775"/>
        <path d="M 40.595,59.476 L 38.882,63.107 L 36.963,57.762 L 38.677,54.128 L 42.311,55.842 L 44.227,61.188 L 40.595,59.476" stroke="none" fill="#ffffff" stroke-width="0.061" fill-rule="nonzero" stroke-linejoin="miter" stroke-miterlimit="79.8403193612775"/>
        <path d="M 30.522,59.483 L 26.876,61.164 L 28.842,55.836 L 32.49,54.156 L 34.17,57.802 L 32.205,63.128 L 30.522,59.483" stroke="none" fill="#ffffff" stroke-width="0.061" fill-rule="nonzero" stroke-linejoin="miter" stroke-miterlimit="79.8403193612775"/>
        <path d="M 35.583,30.903 L 38.437,28.076 L 38.41,33.757 L 35.559,36.582 L 32.732,33.731 L 32.757,28.051 L 35.583,30.903" stroke="none" fill="#ffffff" stroke-width="0.061" fill-rule="nonzero" stroke-linejoin="miter" stroke-miterlimit="79.8403193612775"/>
        <path d="M 48.336,52.987 L 49.355,56.871 L 44.45,54.011 L 43.429,50.126 L 47.311,49.104 L 52.218,51.964 L 48.336,52.987" stroke="none" fill="#ffffff" stroke-width="0.061" fill-rule="nonzero" stroke-linejoin="miter" stroke-miterlimit="79.8403193612775"/>
        <path d="M 22.843,52.93 L 18.97,51.876 L 23.902,49.058 L 27.775,50.114 L 26.72,53.987 L 21.788,56.807 L 22.843,52.93" stroke="none" fill="#ffffff" stroke-width="0.061" fill-rule="nonzero" stroke-linejoin="miter" stroke-miterlimit="79.8403193612775"/>
        <g id="Group_2">
         <text xml:space="preserve" transform="translate(75.648 48.531) scale(1 -1)"><tspan x="0" y="0" font-style="italic" stroke="none" fill="#ffffff" stroke-width="0.623" fill-rule="nonzero" stroke-linejoin="miter" font-family="Interstate" font-weight="normal" font-size="10.579" stroke-miterlimit="79.8403193612775">Math, Engineering </tspan><tspan x="0" y="12.446" font-style="italic" stroke="none" fill="#ffffff" stroke-width="0.623" fill-rule="nonzero" stroke-linejoin="miter" font-family="Interstate" font-weight="normal" font-size="10.579" stroke-miterlimit="79.8403193612775">and Computer Science </tspan><tspan x="0" y="24.892" stroke="none" fill="#ffffff" stroke-width="0.623" fill-rule="nonzero" stroke-linejoin="miter" font-family="Interstate" font-weight="normal" font-size="10.579" font-style="italic" stroke-miterlimit="79.8403193612775">Department </tspan></text>
        </g>
       </g>
      </g>
     </g>
    </g>
   </g>
  </g>
 </g>
</svg>
