<?xml version="1.0" standalone="no"?>
<!DOCTYPE svg PUBLIC "-//W3C//DTD SVG 1.1//EN" "http://www.w3.org/Graphics/SVG/1.1/DTD/svg11.dtd">
<!--Generator: Xara Designer (www.xara.com), SVG filter version: 4.0.0.1-->
<svg stroke-width="0.501" stroke-linejoin="bevel" fill-rule="evenodd" xmlns:xlink="http://www.w3.org/1999/xlink" xmlns="http://www.w3.org/2000/svg" version="1.1" overflow="visible" width="786.75pt" height="95.25pt" viewBox="0 0 786.75 95.25">
 <defs>
  <marker id="DefaultArrow2" markerUnits="strokeWidth" viewBox="0 0 1 1" markerWidth="1" markerHeight="1" overflow="visible" orient="auto">
   <!-- REF_ARROW_STRAIGHT (-2) -->
   <g transform="scale(0.0092592592)">
    <!-- 1/108 -->
    <path d="M -9 54 L -9 -54 L 117 0 z"/>
   </g>
  </marker>
  <marker id="DefaultArrow3" markerUnits="strokeWidth" viewBox="0 0 1 1" markerWidth="1" markerHeight="1" overflow="visible" orient="auto">
   <!-- REF_ARROW_ANGLED -->
   <g transform="scale(0.0092592592)">
    <path d="M -27 54 L -9 0 L -27 -54 L 135 0 z"/>
   </g>
  </marker>
  <marker id="DefaultArrow4" markerUnits="strokeWidth" viewBox="0 0 1 1" markerWidth="1" markerHeight="1" overflow="visible" orient="auto">
   <!-- REF_ARROW_ROUNDED -->
   <g transform="scale(0.0092592592)">
    <path d="M -9,0 L -9,-45 C -9,-51.708 2.808,-56.580 9,-54 L 117,-9 C 120.916,-7.369 126.000,-4.242 126,0 C 126,4.242 120.916,7.369 117,9 L 9,54 C 2.808,56.580 -9,51.708 -9,45 z"/>
   </g>
  </marker>
  <marker id="DefaultArrow5" markerUnits="strokeWidth" viewBox="0 0 1 1" markerWidth="1" markerHeight="1" overflow="visible" orient="auto">
   <!-- REF_ARROW_SPOT -->
   <g transform="scale(0.0092592592)">
    <path d="M -54, 0 C -54,29.807 -29.807,54 0,54 C 29.807,54 54,29.807 54,0 C 54,-29.807 29.807,-54 0,-54 C -29.807,-54 -54,-29.807 -54,0 z"/>
   </g>
  </marker>
  <marker id="DefaultArrow6" markerUnits="strokeWidth" viewBox="0 0 1 1" markerWidth="1" markerHeight="1" overflow="visible" orient="auto">
   <!-- REF_ARROW_DIAMOND -->
   <g transform="scale(0.0092592592)">
    <path d="M -63,0 L 0,63 L 63,0 L 0,-63 z"/>
   </g>
  </marker>
  <marker id="DefaultArrow7" markerUnits="strokeWidth" viewBox="0 0 1 1" markerWidth="1" markerHeight="1" overflow="visible" orient="auto">
   <!-- REF_ARROW_FEATHER -->
   <g transform="scale(0.0092592592)">
    <path d="M 18,-54 L 108,-54 L 63,0 L 108,54 L 18, 54 L -36,0 z"/>
   </g>
  </marker>
  <marker id="DefaultArrow8" markerUnits="strokeWidth" viewBox="0 0 1 1" markerWidth="1" markerHeight="1" overflow="visible" orient="auto">
   <!-- REF_ARROW_FEATHER2 -->
   <g transform="scale(0.0092592592)">
    <path d="M -36,0 L 18,-54 L 54,-54 L 18,-18 L 27,-18 L 63,-54 L 99,-54 L 63,-18 L 72,-18 L 108,-54 L 144,-54 L 90,0 L 144,54 L 108,54 L 72,18 L 63,18 L 99,54 L 63,54 L 27,18 L 18,18 L 54,54 L 18,54 z"/>
   </g>
  </marker>
  <marker id="DefaultArrow9" markerUnits="strokeWidth" viewBox="0 0 1 1" markerWidth="1" markerHeight="1" overflow="visible" orient="auto">
   <!-- REF_ARROW_HOLLOWDIAMOND -->
   <g transform="scale(0.0092592592)">
    <path d="M 0,45 L -45,0 L 0, -45 L 45, 0 z M 0, 63 L-63, 0 L 0, -63 L 63, 0 z"/>
   </g>
  </marker>
  <filter id="StainedFilter">
   <feBlend mode="multiply" in2="BackgroundImage" in="SourceGraphic" result="blend"/>
   <feComposite in="blend" in2="SourceAlpha" operator="in" result="comp"/>
  </filter>
  <filter id="BleachFilter">
   <feBlend mode="screen" in2="BackgroundImage" in="SourceGraphic" result="blend"/>
   <feComposite in="blend" in2="SourceAlpha" operator="in" result="comp"/>
  </filter>
  <filter id="InvertTransparencyBitmapFilter">
   <feComponentTransfer>
    <feFuncR type="gamma" amplitude="1.055" exponent=".416666666" offset="-0.055"/>
    <feFuncG type="gamma" amplitude="1.055" exponent=".416666666" offset="-0.055"/>
    <feFuncB type="gamma" amplitude="1.055" exponent=".416666666" offset="-0.055"/>
   </feComponentTransfer>
   <feComponentTransfer>
    <feFuncR type="linear" slope="-1" intercept="1"/>
    <feFuncG type="linear" slope="-1" intercept="1"/>
    <feFuncB type="linear" slope="-1" intercept="1"/>
    <feFuncA type="linear" slope="1" intercept="0"/>
   </feComponentTransfer>
   <feComponentTransfer>
    <feFuncR type="gamma" amplitude="1" exponent="2.4" offset="0"/>
    <feFuncG type="gamma" amplitude="1" exponent="2.4" offset="0"/>
    <feFuncB type="gamma" amplitude="1" exponent="2.4" offset="0"/>
   </feComponentTransfer>
  </filter>
 </defs>
 <g id="Document" fill="none" stroke="black" font-family="Times New Roman" font-size="16" transform="scale(1 -1)">
  <g id="Spread" transform="translate(0 -95.25)">
   <g id="Layer 1">
    <g id="Group" fill-rule="nonzero" stroke="none" fill="#005f9c">
     <g id="Group_1">
      <path d="M 177.116,29.831 L 177.116,33.65 L 165.318,33.65 L 165.318,29.831 L 169.033,29.831 L 169.033,15.341 L 173.401,15.341 L 173.401,29.831 L 177.116,29.831 Z" marker-start="none" marker-end="none"/>
      <path d="M 186.225,15.342 L 186.225,24.993 C 186.231,26.455 185.852,27.548 185.09,28.273 C 184.327,28.998 183.145,29.359 181.541,29.358 C 180.585,29.351 179.696,29.221 178.874,28.966 C 178.053,28.71 177.302,28.37 176.621,27.945 L 177.772,25.149 C 178.338,25.512 178.867,25.777 179.358,25.944 C 179.849,26.111 180.359,26.194 180.886,26.192 C 181.368,26.197 181.721,26.095 181.944,25.886 C 182.167,25.676 182.277,25.326 182.275,24.837 L 182.275,23.767 C 182.004,23.9 181.694,24.006 181.345,24.087 C 180.996,24.168 180.581,24.209 180.1,24.211 C 178.822,24.211 177.834,23.832 177.134,23.077 C 176.435,22.321 176.081,21.19 176.072,19.685 C 176.078,18.13 176.386,16.969 176.997,16.202 C 177.608,15.435 178.485,15.053 179.629,15.054 C 180.152,15.058 180.632,15.155 181.07,15.345 C 181.507,15.535 181.909,15.796 182.275,16.126 L 182.275,15.342 L 186.225,15.342 Z M 182.275,18.481 C 182.116,18.348 181.923,18.241 181.695,18.16 C 181.467,18.079 181.215,18.038 180.939,18.036 C 180.549,18.035 180.267,18.174 180.094,18.455 C 179.92,18.735 179.835,19.163 179.838,19.737 C 179.839,20.372 179.93,20.824 180.11,21.095 C 180.291,21.367 180.558,21.498 180.912,21.492 C 181.221,21.491 181.481,21.466 181.692,21.416 C 181.902,21.367 182.097,21.296 182.275,21.203 L 182.275,18.481 Z" marker-start="none" marker-end="none"/>
      <path d="M 198.967,15.341 L 196.064,24.811 L 198.889,29.075 L 194.599,29.075 L 194.023,28.028 C 193.778,27.58 193.542,27.14 193.317,26.706 C 193.092,26.274 192.885,25.87 192.698,25.496 C 192.51,25.121 192.351,24.797 192.218,24.523 C 192.236,24.844 192.253,25.214 192.269,25.632 C 192.284,26.051 192.298,26.477 192.307,26.91 C 192.318,27.343 192.323,27.742 192.323,28.107 L 192.323,34.411 L 188.295,32.841 L 188.295,15.341 L 192.323,15.341 L 192.323,19.84 L 193.134,21.201 L 194.756,15.341 L 198.967,15.341 Z" marker-start="none" marker-end="none"/>
      <path d="M 209.791,21.046 C 209.791,21.173 209.791,21.331 209.791,21.52 C 209.791,21.709 209.791,21.874 209.791,22.014 C 209.784,24.468 209.353,26.306 208.497,27.528 C 207.64,28.749 206.398,29.359 204.771,29.358 C 203.102,29.351 201.825,28.737 200.937,27.514 C 200.05,26.292 199.602,24.502 199.594,22.145 C 199.594,20.673 199.788,19.41 200.174,18.353 C 200.561,17.297 201.139,16.484 201.906,15.916 C 202.674,15.348 203.629,15.061 204.771,15.055 C 205.541,15.058 206.214,15.176 206.789,15.409 C 207.365,15.643 207.876,15.97 208.321,16.392 C 208.766,16.814 209.177,17.31 209.556,17.881 L 207.176,19.764 C 206.899,19.366 206.644,19.055 206.407,18.829 C 206.171,18.604 205.937,18.445 205.703,18.354 C 205.47,18.262 205.221,18.218 204.953,18.221 C 204.648,18.215 204.382,18.296 204.157,18.465 C 203.932,18.634 203.752,18.924 203.616,19.337 C 203.481,19.75 203.396,20.319 203.36,21.046 L 209.791,21.046 Z M 206.129,23.687 L 203.36,23.687 C 203.403,24.353 203.477,24.878 203.584,25.263 C 203.69,25.649 203.834,25.923 204.016,26.086 C 204.198,26.248 204.423,26.327 204.692,26.322 C 205.157,26.332 205.501,26.131 205.724,25.719 C 205.948,25.308 206.082,24.631 206.129,23.687 Z" marker-start="none" marker-end="none"/>
      <path d="M 231.729,33.651 L 226.969,33.651 L 226.131,31.218 C 225.784,30.215 225.478,29.259 225.213,28.351 C 224.947,27.442 224.765,26.637 224.667,25.935 C 224.556,26.637 224.371,27.442 224.111,28.351 C 223.85,29.259 223.547,30.215 223.202,31.218 L 222.365,33.651 L 217.525,33.651 L 222.443,22.351 L 222.443,15.341 L 226.838,15.341 L 226.838,22.43 L 231.729,33.651 Z" marker-start="none" marker-end="none"/>
      <path d="M 241.378,22.246 C 241.368,24.591 240.904,26.362 239.988,27.558 C 239.072,28.755 237.764,29.355 236.066,29.359 C 234.309,29.35 232.981,28.733 232.081,27.509 C 231.182,26.285 230.73,24.504 230.727,22.167 C 230.731,20.605 230.942,19.296 231.359,18.242 C 231.777,17.187 232.379,16.392 233.166,15.858 C 233.952,15.323 234.901,15.055 236.014,15.054 C 237.748,15.059 239.074,15.669 239.991,16.884 C 240.908,18.098 241.371,19.886 241.378,22.246 Z M 237.376,22.193 C 237.377,21.265 237.332,20.525 237.24,19.972 C 237.149,19.419 237.006,19.021 236.813,18.779 C 236.62,18.538 236.371,18.419 236.066,18.425 C 235.744,18.419 235.485,18.538 235.288,18.781 C 235.092,19.025 234.949,19.427 234.86,19.987 C 234.771,20.548 234.728,21.3 234.729,22.246 C 234.728,23.182 234.771,23.924 234.859,24.472 C 234.947,25.02 235.088,25.412 235.281,25.646 C 235.473,25.88 235.726,25.994 236.04,25.988 C 236.353,25.995 236.608,25.884 236.805,25.655 C 237.002,25.426 237.147,25.035 237.239,24.48 C 237.331,23.925 237.377,23.163 237.376,22.193 Z" marker-start="none" marker-end="none"/>
      <path d="M 253.384,15.341 L 253.384,29.072 L 249.356,29.072 L 249.356,19.026 C 249.176,18.867 248.986,18.741 248.787,18.647 C 248.588,18.553 248.359,18.505 248.1,18.503 C 247.773,18.502 247.526,18.628 247.358,18.883 C 247.191,19.136 247.107,19.524 247.106,20.047 L 247.106,29.072 L 243.078,29.072 L 243.078,19.34 C 243.08,17.881 243.371,16.801 243.951,16.099 C 244.532,15.398 245.391,15.05 246.531,15.054 C 247.177,15.061 247.723,15.164 248.169,15.364 C 248.616,15.564 249.011,15.818 249.356,16.125 L 249.356,15.341 L 253.384,15.341 Z" marker-start="none" marker-end="none"/>
      <path d="M 263.535,28.992 C 263.333,29.099 263.103,29.186 262.845,29.254 C 262.587,29.321 262.259,29.356 261.861,29.358 C 261.392,29.354 260.969,29.251 260.592,29.051 C 260.215,28.85 259.871,28.578 259.559,28.233 L 259.559,29.071 L 255.531,29.071 L 255.531,15.341 L 259.559,15.341 L 259.559,24.258 C 259.64,24.748 259.811,25.095 260.072,25.297 C 260.333,25.5 260.668,25.598 261.076,25.591 C 261.437,25.589 261.755,25.516 262.031,25.372 C 262.307,25.229 262.573,25.032 262.829,24.781 L 263.535,28.992 Z" marker-start="none" marker-end="none"/>
      <path d="M 284.478,15.341 L 284.478,33.651 L 280.371,33.651 L 280.371,29.544 C 280.371,29.119 280.374,28.659 280.381,28.164 C 280.387,27.669 280.397,27.177 280.41,26.686 C 280.423,26.196 280.44,25.747 280.459,25.336 C 280.479,24.926 280.502,24.594 280.528,24.339 C 280.41,24.681 280.227,25.131 279.979,25.691 C 279.731,26.252 279.443,26.862 279.116,27.521 C 278.789,28.18 278.449,28.828 278.096,29.466 L 275.769,33.651 L 271.95,33.651 L 271.95,15.341 L 276.056,15.341 L 276.056,20.52 C 276.056,20.957 276.055,21.416 276.051,21.898 C 276.047,22.381 276.04,22.856 276.03,23.326 C 276.02,23.795 276.007,24.228 275.99,24.625 C 275.973,25.023 275.951,25.355 275.926,25.621 C 276.051,25.266 276.233,24.825 276.472,24.296 C 276.71,23.767 276.986,23.185 277.297,22.552 C 277.608,21.918 277.936,21.267 278.279,20.598 L 280.973,15.341 L 284.478,15.341 Z" marker-start="none" marker-end="none"/>
      <path d="M 296.746,21.046 C 296.746,21.173 296.746,21.331 296.746,21.52 C 296.746,21.709 296.746,21.874 296.746,22.014 C 296.739,24.468 296.308,26.306 295.452,27.528 C 294.595,28.749 293.353,29.359 291.726,29.358 C 290.057,29.351 288.78,28.737 287.892,27.514 C 287.005,26.292 286.557,24.502 286.549,22.145 C 286.549,20.673 286.743,19.41 287.129,18.353 C 287.516,17.297 288.094,16.484 288.861,15.916 C 289.629,15.348 290.584,15.061 291.726,15.055 C 292.496,15.058 293.169,15.176 293.744,15.409 C 294.32,15.643 294.831,15.97 295.276,16.392 C 295.721,16.814 296.132,17.31 296.511,17.881 L 294.131,19.764 C 293.854,19.366 293.599,19.055 293.362,18.829 C 293.126,18.604 292.892,18.445 292.658,18.354 C 292.425,18.262 292.176,18.218 291.908,18.221 C 291.603,18.215 291.337,18.296 291.112,18.465 C 290.887,18.634 290.707,18.924 290.571,19.337 C 290.436,19.75 290.351,20.319 290.315,21.046 L 296.746,21.046 Z M 293.084,23.687 L 290.315,23.687 C 290.358,24.353 290.432,24.878 290.539,25.263 C 290.645,25.649 290.789,25.923 290.971,26.086 C 291.153,26.248 291.378,26.327 291.647,26.322 C 292.112,26.332 292.456,26.131 292.679,25.719 C 292.903,25.308 293.037,24.631 293.084,23.687 Z" marker-start="none" marker-end="none"/>
      <path d="M 308.672,15.341 L 305.01,22.586 L 308.332,29.072 L 304.173,29.072 L 303.964,28.523 C 303.741,27.918 303.546,27.342 303.378,26.793 C 303.211,26.245 303.075,25.74 302.97,25.28 C 302.877,25.739 302.748,26.24 302.581,26.784 C 302.413,27.327 302.212,27.907 301.976,28.523 L 301.766,29.072 L 297.503,29.072 L 300.799,22.429 L 297.163,15.341 L 301.322,15.341 L 301.819,16.649 C 301.992,17.102 302.169,17.582 302.348,18.091 C 302.528,18.599 302.692,19.086 302.839,19.552 C 302.988,19.086 303.16,18.599 303.356,18.091 C 303.551,17.582 303.736,17.102 303.911,16.649 L 304.408,15.341 L 308.672,15.341 Z" marker-start="none" marker-end="none"/>
      <path d="M 317.353,19.105 C 317.072,18.923 316.816,18.79 316.585,18.706 C 316.353,18.622 316.103,18.58 315.836,18.582 C 315.534,18.577 315.307,18.664 315.153,18.843 C 314.998,19.022 314.921,19.319 314.92,19.733 L 314.92,25.753 L 317.248,25.753 L 317.248,29.071 L 314.92,29.071 L 314.92,34.411 L 310.997,32.866 L 310.997,29.071 L 309.479,29.071 L 309.479,25.753 L 310.997,25.753 L 310.997,18.713 C 310.998,17.439 311.269,16.51 311.811,15.923 C 312.352,15.336 313.153,15.046 314.214,15.054 C 314.735,15.056 315.216,15.105 315.659,15.201 C 316.102,15.297 316.518,15.431 316.908,15.603 L 317.353,19.105 Z" marker-start="none" marker-end="none"/>
      <path d="M 337.676,20.443 C 337.682,21.452 337.519,22.321 337.187,23.049 C 336.855,23.777 336.318,24.425 335.576,24.993 C 334.834,25.561 333.851,26.11 332.628,26.64 C 332.014,26.906 331.538,27.156 331.198,27.389 C 330.859,27.622 330.623,27.864 330.49,28.114 C 330.357,28.365 330.294,28.649 330.299,28.967 C 330.3,29.198 330.351,29.411 330.452,29.609 C 330.553,29.806 330.701,29.965 330.896,30.087 C 331.09,30.209 331.328,30.272 331.607,30.275 C 331.982,30.279 332.306,30.219 332.579,30.098 C 332.853,29.976 333.132,29.772 333.417,29.485 C 333.703,29.198 334.05,28.807 334.459,28.314 L 337.493,31.034 C 336.997,31.662 336.484,32.192 335.955,32.623 C 335.425,33.054 334.823,33.381 334.149,33.603 C 333.474,33.825 332.67,33.936 331.738,33.937 C 330.86,33.933 330.071,33.794 329.372,33.523 C 328.673,33.251 328.078,32.873 327.585,32.387 C 327.092,31.902 326.716,31.337 326.455,30.693 C 326.195,30.048 326.064,29.351 326.061,28.602 C 326.056,27.653 326.215,26.839 326.542,26.159 C 326.868,25.478 327.397,24.87 328.127,24.332 C 328.857,23.795 329.826,23.265 331.031,22.744 C 331.712,22.443 332.221,22.161 332.561,21.899 C 332.9,21.637 333.125,21.369 333.235,21.095 C 333.345,20.822 333.396,20.517 333.386,20.181 C 333.378,19.685 333.231,19.317 332.945,19.076 C 332.659,18.835 332.283,18.715 331.817,18.717 C 331.374,18.718 330.898,18.905 330.387,19.279 C 329.877,19.653 329.316,20.206 328.703,20.939 L 325.721,18.246 C 326.221,17.572 326.754,16.998 327.322,16.523 C 327.89,16.048 328.532,15.685 329.248,15.434 C 329.964,15.183 330.794,15.057 331.738,15.054 C 332.882,15.058 333.899,15.269 334.789,15.69 C 335.679,16.11 336.38,16.722 336.892,17.523 C 337.405,18.324 337.666,19.297 337.676,20.443 Z" marker-start="none" marker-end="none"/>
      <path d="M 346.641,19.105 C 346.36,18.923 346.104,18.79 345.873,18.706 C 345.641,18.622 345.391,18.58 345.124,18.582 C 344.822,18.577 344.595,18.664 344.441,18.843 C 344.286,19.022 344.209,19.319 344.208,19.733 L 344.208,25.753 L 346.536,25.753 L 346.536,29.071 L 344.208,29.071 L 344.208,34.411 L 340.285,32.866 L 340.285,29.071 L 338.767,29.071 L 338.767,25.753 L 340.285,25.753 L 340.285,18.713 C 340.286,17.439 340.557,16.51 341.099,15.923 C 341.64,15.336 342.441,15.046 343.502,15.054 C 344.023,15.056 344.504,15.105 344.947,15.201 C 345.39,15.297 345.806,15.431 346.196,15.603 L 346.641,19.105 Z" marker-start="none" marker-end="none"/>
      <path d="M 358.018,21.046 C 358.018,21.173 358.018,21.331 358.018,21.52 C 358.018,21.709 358.018,21.874 358.018,22.014 C 358.011,24.468 357.58,26.306 356.724,27.528 C 355.867,28.749 354.625,29.359 352.998,29.358 C 351.329,29.351 350.052,28.737 349.164,27.514 C 348.277,26.292 347.829,24.502 347.821,22.145 C 347.821,20.673 348.015,19.41 348.401,18.353 C 348.788,17.297 349.366,16.484 350.133,15.916 C 350.901,15.348 351.856,15.061 352.998,15.055 C 353.768,15.058 354.441,15.176 355.016,15.409 C 355.592,15.643 356.103,15.97 356.548,16.392 C 356.993,16.814 357.404,17.31 357.783,17.881 L 355.403,19.764 C 355.126,19.366 354.871,19.055 354.634,18.829 C 354.398,18.604 354.164,18.445 353.93,18.354 C 353.697,18.262 353.448,18.218 353.18,18.221 C 352.875,18.215 352.609,18.296 352.384,18.465 C 352.159,18.634 351.979,18.924 351.843,19.337 C 351.708,19.75 351.623,20.319 351.587,21.046 L 358.018,21.046 Z M 354.356,23.687 L 351.587,23.687 C 351.63,24.353 351.704,24.878 351.811,25.263 C 351.917,25.649 352.061,25.923 352.243,26.086 C 352.425,26.248 352.65,26.327 352.919,26.322 C 353.384,26.332 353.728,26.131 353.951,25.719 C 354.175,25.308 354.309,24.631 354.356,23.687 Z" marker-start="none" marker-end="none"/>
      <path d="M 370.101,22.272 C 370.092,24.673 369.763,26.456 369.116,27.62 C 368.47,28.785 367.56,29.364 366.386,29.359 C 365.819,29.352 365.333,29.247 364.928,29.045 C 364.524,28.842 364.155,28.581 363.823,28.261 L 363.823,29.071 L 359.795,29.071 L 359.795,10.293 L 363.823,11.863 L 363.823,16.099 C 364.135,15.816 364.492,15.573 364.895,15.371 C 365.299,15.169 365.761,15.063 366.282,15.054 C 367.517,15.044 368.461,15.626 369.113,16.799 C 369.766,17.972 370.096,19.796 370.101,22.272 Z M 366.098,22.167 C 366.099,21.362 366.076,20.712 366.03,20.217 C 365.984,19.723 365.916,19.348 365.824,19.092 C 365.733,18.836 365.618,18.664 365.481,18.575 C 365.343,18.486 365.183,18.445 365,18.451 C 364.742,18.453 364.519,18.5 364.333,18.592 C 364.147,18.682 363.977,18.801 363.823,18.948 L 363.823,25.491 C 363.99,25.636 364.166,25.751 364.349,25.834 C 364.533,25.917 364.741,25.96 364.974,25.962 C 365.164,25.968 365.329,25.925 365.47,25.833 C 365.61,25.74 365.727,25.563 365.82,25.301 C 365.914,25.039 365.983,24.656 366.029,24.151 C 366.076,23.647 366.099,22.985 366.098,22.167 Z" marker-start="none" marker-end="none"/>
      <path d="M 390.076,29.831 L 390.076,33.65 L 378.278,33.65 L 378.278,29.831 L 381.993,29.831 L 381.993,15.341 L 386.361,15.341 L 386.361,29.831 L 390.076,29.831 Z" marker-start="none" marker-end="none"/>
      <path d="M 399.785,22.246 C 399.775,24.591 399.311,26.362 398.395,27.558 C 397.479,28.755 396.171,29.355 394.473,29.359 C 392.716,29.35 391.388,28.733 390.488,27.509 C 389.589,26.285 389.137,24.504 389.134,22.167 C 389.138,20.605 389.349,19.296 389.766,18.242 C 390.184,17.187 390.786,16.392 391.573,15.858 C 392.359,15.323 393.308,15.055 394.421,15.054 C 396.155,15.059 397.481,15.669 398.398,16.884 C 399.315,18.098 399.778,19.886 399.785,22.246 Z M 395.783,22.193 C 395.784,21.265 395.739,20.525 395.647,19.972 C 395.556,19.419 395.413,19.021 395.22,18.779 C 395.027,18.538 394.778,18.419 394.473,18.425 C 394.151,18.419 393.892,18.538 393.695,18.781 C 393.499,19.025 393.356,19.427 393.267,19.987 C 393.178,20.548 393.135,21.3 393.136,22.246 C 393.135,23.182 393.178,23.924 393.266,24.472 C 393.354,25.02 393.495,25.412 393.688,25.646 C 393.88,25.88 394.133,25.994 394.447,25.988 C 394.76,25.995 395.015,25.884 395.212,25.655 C 395.409,25.426 395.554,25.035 395.646,24.48 C 395.738,23.925 395.784,23.163 395.783,22.193 Z" marker-start="none" marker-end="none"/>
      <path d="M 415.944,29.072 L 412.177,29.072 L 411.941,27.137 C 411.888,26.721 411.828,26.226 411.762,25.65 C 411.695,25.075 411.629,24.477 411.562,23.858 C 411.496,23.238 411.436,22.656 411.382,22.109 C 411.329,21.563 411.289,21.111 411.261,20.755 C 411.221,21.111 411.164,21.561 411.092,22.105 C 411.02,22.649 410.941,23.23 410.853,23.848 C 410.765,24.466 410.676,25.063 410.588,25.639 C 410.5,26.216 410.419,26.715 410.346,27.137 L 410.006,29.072 L 406.501,29.072 L 406.16,27.137 C 406.087,26.728 406.005,26.236 405.914,25.661 C 405.824,25.087 405.734,24.489 405.644,23.868 C 405.554,23.246 405.474,22.661 405.403,22.113 C 405.332,21.564 405.279,21.111 405.245,20.755 C 405.218,21.111 405.177,21.564 405.124,22.113 C 405.071,22.661 405.011,23.246 404.944,23.868 C 404.878,24.489 404.811,25.087 404.745,25.661 C 404.678,26.236 404.618,26.728 404.565,27.137 L 404.303,29.072 L 400.51,29.072 L 403.335,15.341 L 406.867,15.341 L 407.285,17.669 C 407.417,18.385 407.54,19.135 407.656,19.918 C 407.772,20.701 407.877,21.457 407.969,22.185 C 408.062,22.913 408.139,23.552 408.201,24.103 C 408.255,23.552 408.328,22.913 408.42,22.186 C 408.512,21.459 408.616,20.706 408.732,19.926 C 408.847,19.147 408.967,18.403 409.09,17.695 L 409.509,15.341 L 413.119,15.341 L 415.944,29.072 Z" marker-start="none" marker-end="none"/>
      <path d="M 426.891,15.342 L 426.891,24.993 C 426.897,26.455 426.518,27.548 425.756,28.273 C 424.993,28.998 423.811,29.359 422.207,29.358 C 421.251,29.351 420.362,29.221 419.54,28.966 C 418.719,28.71 417.968,28.37 417.287,27.945 L 418.438,25.149 C 419.004,25.512 419.533,25.777 420.024,25.944 C 420.515,26.111 421.025,26.194 421.552,26.192 C 422.034,26.197 422.387,26.095 422.61,25.886 C 422.833,25.676 422.943,25.326 422.941,24.837 L 422.941,23.767 C 422.67,23.9 422.36,24.006 422.011,24.087 C 421.662,24.168 421.247,24.209 420.766,24.211 C 419.488,24.211 418.5,23.832 417.8,23.077 C 417.101,22.321 416.747,21.19 416.738,19.685 C 416.744,18.13 417.052,16.969 417.663,16.202 C 418.274,15.435 419.151,15.053 420.295,15.054 C 420.818,15.058 421.298,15.155 421.736,15.345 C 422.173,15.535 422.575,15.796 422.941,16.126 L 422.941,15.342 L 426.891,15.342 Z M 422.941,18.481 C 422.782,18.348 422.589,18.241 422.361,18.16 C 422.133,18.079 421.881,18.038 421.605,18.036 C 421.215,18.035 420.933,18.174 420.76,18.455 C 420.586,18.735 420.501,19.163 420.504,19.737 C 420.505,20.372 420.596,20.824 420.776,21.095 C 420.957,21.367 421.224,21.498 421.578,21.492 C 421.887,21.491 422.147,21.466 422.358,21.416 C 422.568,21.367 422.763,21.296 422.941,21.203 L 422.941,18.481 Z" marker-start="none" marker-end="none"/>
      <path d="M 436.965,28.992 C 436.763,29.099 436.533,29.186 436.275,29.254 C 436.017,29.321 435.689,29.356 435.291,29.358 C 434.822,29.354 434.399,29.251 434.022,29.051 C 433.645,28.85 433.301,28.578 432.989,28.233 L 432.989,29.071 L 428.961,29.071 L 428.961,15.341 L 432.989,15.341 L 432.989,24.258 C 433.07,24.748 433.241,25.095 433.502,25.297 C 433.763,25.5 434.098,25.598 434.506,25.591 C 434.867,25.589 435.185,25.516 435.461,25.372 C 435.737,25.229 436.003,25.032 436.259,24.781 L 436.965,28.992 Z" marker-start="none" marker-end="none"/>
      <path d="M 447.921,15.341 L 447.921,34.411 L 443.893,32.84 L 443.893,28.313 C 443.581,28.597 443.224,28.84 442.821,29.042 C 442.417,29.243 441.955,29.349 441.434,29.359 C 440.199,29.368 439.255,28.787 438.602,27.614 C 437.95,26.441 437.62,24.616 437.615,22.141 C 437.624,19.74 437.952,17.957 438.599,16.792 C 439.246,15.628 440.156,15.049 441.329,15.054 C 441.888,15.061 442.374,15.165 442.788,15.368 C 443.202,15.57 443.57,15.831 443.893,16.152 L 443.893,15.341 L 447.921,15.341 Z M 443.893,18.922 C 443.726,18.776 443.55,18.662 443.367,18.578 C 443.183,18.495 442.975,18.452 442.742,18.451 C 442.552,18.445 442.387,18.488 442.246,18.58 C 442.106,18.672 441.988,18.849 441.895,19.111 C 441.802,19.374 441.733,19.757 441.686,20.261 C 441.64,20.766 441.617,21.427 441.617,22.246 C 441.617,23.051 441.64,23.701 441.686,24.195 C 441.732,24.69 441.8,25.065 441.892,25.321 C 441.983,25.576 442.098,25.748 442.235,25.837 C 442.373,25.926 442.533,25.968 442.716,25.962 C 442.974,25.959 443.197,25.912 443.383,25.821 C 443.569,25.73 443.739,25.611 443.893,25.465 L 443.893,18.922 Z" marker-start="none" marker-end="none"/>
      <path d="M 468.235,29.831 L 468.235,33.65 L 456.437,33.65 L 456.437,29.831 L 460.152,29.831 L 460.152,15.341 L 464.52,15.341 L 464.52,29.831 L 468.235,29.831 Z" marker-start="none" marker-end="none"/>
      <path d="M 477.944,22.246 C 477.934,24.591 477.47,26.362 476.554,27.558 C 475.638,28.755 474.33,29.355 472.632,29.359 C 470.875,29.35 469.547,28.733 468.647,27.509 C 467.748,26.285 467.296,24.504 467.293,22.167 C 467.297,20.605 467.508,19.296 467.925,18.242 C 468.343,17.187 468.945,16.392 469.732,15.858 C 470.518,15.323 471.467,15.055 472.58,15.054 C 474.314,15.059 475.64,15.669 476.557,16.884 C 477.474,18.098 477.937,19.886 477.944,22.246 Z M 473.942,22.193 C 473.943,21.265 473.898,20.525 473.806,19.972 C 473.715,19.419 473.572,19.021 473.379,18.779 C 473.186,18.538 472.937,18.419 472.632,18.425 C 472.31,18.419 472.051,18.538 471.854,18.781 C 471.658,19.025 471.515,19.427 471.426,19.987 C 471.337,20.548 471.294,21.3 471.295,22.246 C 471.294,23.182 471.337,23.924 471.425,24.472 C 471.513,25.02 471.654,25.412 471.847,25.646 C 472.039,25.88 472.292,25.994 472.606,25.988 C 472.919,25.995 473.174,25.884 473.371,25.655 C 473.568,25.426 473.713,25.035 473.805,24.48 C 473.897,23.925 473.943,23.163 473.942,22.193 Z" marker-start="none" marker-end="none"/>
      <path d="M 496.119,15.341 L 496.119,25.072 C 496.121,26.532 495.837,27.612 495.266,28.313 C 494.696,29.015 493.829,29.363 492.666,29.359 C 491.97,29.352 491.371,29.234 490.867,29.003 C 490.364,28.771 489.901,28.463 489.479,28.078 C 489.247,28.365 488.993,28.604 488.717,28.793 C 488.44,28.983 488.12,29.124 487.757,29.218 C 487.393,29.312 486.964,29.359 486.471,29.359 C 485.847,29.35 485.315,29.243 484.875,29.039 C 484.434,28.834 484.059,28.583 483.749,28.287 L 483.749,29.071 L 479.721,29.071 L 479.721,15.341 L 483.749,15.341 L 483.749,25.386 C 483.931,25.545 484.123,25.672 484.325,25.766 C 484.526,25.859 484.745,25.908 484.979,25.91 C 485.293,25.911 485.529,25.784 485.686,25.53 C 485.843,25.276 485.922,24.888 485.922,24.366 L 485.922,15.341 L 489.924,15.341 L 489.924,25.386 C 490.105,25.545 490.297,25.672 490.498,25.766 C 490.7,25.859 490.917,25.908 491.151,25.91 C 491.464,25.911 491.699,25.784 491.856,25.53 C 492.013,25.276 492.091,24.888 492.091,24.366 L 492.091,15.341 L 496.119,15.341 Z" marker-start="none" marker-end="none"/>
      <path d="M 508.47,22.246 C 508.46,24.591 507.996,26.362 507.08,27.558 C 506.164,28.755 504.856,29.355 503.158,29.359 C 501.401,29.35 500.073,28.733 499.173,27.509 C 498.274,26.285 497.822,24.504 497.819,22.167 C 497.823,20.605 498.034,19.296 498.451,18.242 C 498.869,17.187 499.471,16.392 500.258,15.858 C 501.044,15.323 501.993,15.055 503.106,15.054 C 504.84,15.059 506.166,15.669 507.083,16.884 C 508,18.098 508.463,19.886 508.47,22.246 Z M 504.468,22.193 C 504.469,21.265 504.424,20.525 504.332,19.972 C 504.241,19.419 504.098,19.021 503.905,18.779 C 503.712,18.538 503.463,18.419 503.158,18.425 C 502.836,18.419 502.577,18.538 502.38,18.781 C 502.184,19.025 502.041,19.427 501.952,19.987 C 501.863,20.548 501.82,21.3 501.821,22.246 C 501.82,23.182 501.863,23.924 501.951,24.472 C 502.039,25.02 502.18,25.412 502.373,25.646 C 502.565,25.88 502.818,25.994 503.132,25.988 C 503.445,25.995 503.7,25.884 503.897,25.655 C 504.094,25.426 504.239,25.035 504.331,24.48 C 504.423,23.925 504.469,23.163 504.468,22.193 Z" marker-start="none" marker-end="none"/>
      <path d="M 518.251,28.992 C 518.049,29.099 517.819,29.186 517.561,29.254 C 517.303,29.321 516.975,29.356 516.577,29.358 C 516.108,29.354 515.685,29.251 515.308,29.051 C 514.931,28.85 514.587,28.578 514.275,28.233 L 514.275,29.071 L 510.247,29.071 L 510.247,15.341 L 514.275,15.341 L 514.275,24.258 C 514.356,24.748 514.527,25.095 514.788,25.297 C 515.049,25.5 515.384,25.598 515.792,25.591 C 516.153,25.589 516.471,25.516 516.747,25.372 C 517.023,25.229 517.289,25.032 517.545,24.781 L 518.251,28.992 Z" marker-start="none" marker-end="none"/>
      <path d="M 527.639,28.992 C 527.437,29.099 527.207,29.186 526.949,29.254 C 526.691,29.321 526.363,29.356 525.965,29.358 C 525.496,29.354 525.073,29.251 524.696,29.051 C 524.319,28.85 523.975,28.578 523.663,28.233 L 523.663,29.071 L 519.635,29.071 L 519.635,15.341 L 523.663,15.341 L 523.663,24.258 C 523.744,24.748 523.915,25.095 524.176,25.297 C 524.437,25.5 524.772,25.598 525.18,25.591 C 525.541,25.589 525.859,25.516 526.135,25.372 C 526.411,25.229 526.677,25.032 526.933,24.781 L 527.639,28.992 Z" marker-start="none" marker-end="none"/>
      <path d="M 538.831,22.246 C 538.821,24.591 538.357,26.362 537.441,27.558 C 536.525,28.755 535.217,29.355 533.519,29.359 C 531.762,29.35 530.434,28.733 529.534,27.509 C 528.635,26.285 528.183,24.504 528.18,22.167 C 528.184,20.605 528.395,19.296 528.812,18.242 C 529.23,17.187 529.832,16.392 530.619,15.858 C 531.405,15.323 532.354,15.055 533.467,15.054 C 535.201,15.059 536.527,15.669 537.444,16.884 C 538.361,18.098 538.824,19.886 538.831,22.246 Z M 534.829,22.193 C 534.83,21.265 534.785,20.525 534.693,19.972 C 534.602,19.419 534.459,19.021 534.266,18.779 C 534.073,18.538 533.824,18.419 533.519,18.425 C 533.197,18.419 532.938,18.538 532.741,18.781 C 532.545,19.025 532.402,19.427 532.313,19.987 C 532.224,20.548 532.181,21.3 532.182,22.246 C 532.181,23.182 532.224,23.924 532.312,24.472 C 532.4,25.02 532.541,25.412 532.734,25.646 C 532.926,25.88 533.179,25.994 533.493,25.988 C 533.806,25.995 534.061,25.884 534.258,25.655 C 534.455,25.426 534.6,25.035 534.692,24.48 C 534.784,23.925 534.83,23.163 534.829,22.193 Z" marker-start="none" marker-end="none"/>
      <path d="M 554.99,29.072 L 551.223,29.072 L 550.987,27.137 C 550.934,26.721 550.874,26.226 550.808,25.65 C 550.741,25.075 550.675,24.477 550.608,23.858 C 550.542,23.238 550.482,22.656 550.428,22.109 C 550.375,21.563 550.335,21.111 550.307,20.755 C 550.267,21.111 550.21,21.561 550.138,22.105 C 550.066,22.649 549.987,23.23 549.899,23.848 C 549.811,24.466 549.722,25.063 549.634,25.639 C 549.546,26.216 549.465,26.715 549.392,27.137 L 549.052,29.072 L 545.547,29.072 L 545.206,27.137 C 545.133,26.728 545.051,26.236 544.96,25.661 C 544.87,25.087 544.78,24.489 544.69,23.868 C 544.6,23.246 544.52,22.661 544.449,22.113 C 544.378,21.564 544.325,21.111 544.291,20.755 C 544.264,21.111 544.223,21.564 544.17,22.113 C 544.117,22.661 544.057,23.246 543.99,23.868 C 543.924,24.489 543.857,25.087 543.791,25.661 C 543.724,26.236 543.664,26.728 543.611,27.137 L 543.349,29.072 L 539.556,29.072 L 542.381,15.341 L 545.913,15.341 L 546.331,17.669 C 546.463,18.385 546.586,19.135 546.702,19.918 C 546.818,20.701 546.923,21.457 547.015,22.185 C 547.108,22.913 547.185,23.552 547.247,24.103 C 547.301,23.552 547.374,22.913 547.466,22.186 C 547.558,21.459 547.662,20.706 547.778,19.926 C 547.893,19.147 548.013,18.403 548.136,17.695 L 548.555,15.341 L 552.165,15.341 L 554.99,29.072 Z" marker-start="none" marker-end="none"/>
      <path d="M 574.607,29.831 L 574.607,33.65 L 562.809,33.65 L 562.809,29.831 L 566.524,29.831 L 566.524,15.341 L 570.892,15.341 L 570.892,29.831 L 574.607,29.831 Z" marker-start="none" marker-end="none"/>
      <path d="M 584.316,22.246 C 584.306,24.591 583.842,26.362 582.926,27.558 C 582.01,28.755 580.702,29.355 579.004,29.359 C 577.247,29.35 575.919,28.733 575.019,27.509 C 574.12,26.285 573.668,24.504 573.665,22.167 C 573.669,20.605 573.88,19.296 574.297,18.242 C 574.715,17.187 575.317,16.392 576.104,15.858 C 576.89,15.323 577.839,15.055 578.952,15.054 C 580.686,15.059 582.012,15.669 582.929,16.884 C 583.846,18.098 584.309,19.886 584.316,22.246 Z M 580.314,22.193 C 580.315,21.265 580.27,20.525 580.178,19.972 C 580.087,19.419 579.944,19.021 579.751,18.779 C 579.558,18.538 579.309,18.419 579.004,18.425 C 578.682,18.419 578.423,18.538 578.226,18.781 C 578.03,19.025 577.887,19.427 577.798,19.987 C 577.709,20.548 577.666,21.3 577.667,22.246 C 577.666,23.182 577.709,23.924 577.797,24.472 C 577.885,25.02 578.026,25.412 578.219,25.646 C 578.411,25.88 578.664,25.994 578.978,25.988 C 579.291,25.995 579.546,25.884 579.743,25.655 C 579.94,25.426 580.085,25.035 580.177,24.48 C 580.269,23.925 580.315,23.163 580.314,22.193 Z" marker-start="none" marker-end="none"/>
      <path d="M 596.06,15.341 L 596.06,34.411 L 592.032,32.84 L 592.032,28.313 C 591.72,28.597 591.363,28.84 590.96,29.042 C 590.556,29.243 590.094,29.349 589.573,29.359 C 588.338,29.368 587.394,28.787 586.741,27.614 C 586.089,26.441 585.759,24.616 585.754,22.141 C 585.763,19.74 586.091,17.957 586.738,16.792 C 587.385,15.628 588.295,15.049 589.468,15.054 C 590.027,15.061 590.513,15.165 590.927,15.368 C 591.341,15.57 591.709,15.831 592.032,16.152 L 592.032,15.341 L 596.06,15.341 Z M 592.032,18.922 C 591.865,18.776 591.689,18.662 591.506,18.578 C 591.322,18.495 591.114,18.452 590.881,18.451 C 590.691,18.445 590.526,18.488 590.385,18.58 C 590.245,18.672 590.127,18.849 590.034,19.111 C 589.941,19.374 589.872,19.757 589.825,20.261 C 589.779,20.766 589.756,21.427 589.756,22.246 C 589.756,23.051 589.779,23.701 589.825,24.195 C 589.871,24.69 589.939,25.065 590.031,25.321 C 590.122,25.576 590.237,25.748 590.374,25.837 C 590.512,25.926 590.672,25.968 590.855,25.962 C 591.113,25.959 591.336,25.912 591.522,25.821 C 591.708,25.73 591.878,25.611 592.032,25.465 L 592.032,18.922 Z" marker-start="none" marker-end="none"/>
      <path d="M 607.958,15.342 L 607.958,24.993 C 607.964,26.455 607.585,27.548 606.823,28.273 C 606.06,28.998 604.878,29.359 603.274,29.358 C 602.318,29.351 601.429,29.221 600.607,28.966 C 599.786,28.71 599.035,28.37 598.354,27.945 L 599.505,25.149 C 600.071,25.512 600.6,25.777 601.091,25.944 C 601.582,26.111 602.092,26.194 602.619,26.192 C 603.101,26.197 603.454,26.095 603.677,25.886 C 603.9,25.676 604.01,25.326 604.008,24.837 L 604.008,23.767 C 603.737,23.9 603.427,24.006 603.078,24.087 C 602.729,24.168 602.314,24.209 601.833,24.211 C 600.555,24.211 599.567,23.832 598.867,23.077 C 598.168,22.321 597.814,21.19 597.805,19.685 C 597.811,18.13 598.119,16.969 598.73,16.202 C 599.341,15.435 600.218,15.053 601.362,15.054 C 601.885,15.058 602.365,15.155 602.803,15.345 C 603.24,15.535 603.642,15.796 604.008,16.126 L 604.008,15.342 L 607.958,15.342 Z M 604.008,18.481 C 603.849,18.348 603.656,18.241 603.428,18.16 C 603.2,18.079 602.948,18.038 602.672,18.036 C 602.282,18.035 602,18.174 601.827,18.455 C 601.653,18.735 601.568,19.163 601.571,19.737 C 601.572,20.372 601.663,20.824 601.843,21.095 C 602.024,21.367 602.291,21.498 602.645,21.492 C 602.954,21.491 603.214,21.466 603.425,21.416 C 603.635,21.367 603.83,21.296 604.008,21.203 L 604.008,18.481 Z" marker-start="none" marker-end="none"/>
      <path d="M 620.617,29.072 L 616.431,29.072 L 615.751,25.671 C 615.577,24.82 615.428,24.023 615.302,23.28 C 615.177,22.537 615.072,21.83 614.988,21.157 C 614.903,20.484 614.835,19.826 614.783,19.184 C 614.717,20.143 614.601,21.148 614.437,22.199 C 614.272,23.25 614.065,24.398 613.815,25.645 L 613.135,29.072 L 608.924,29.072 L 612.978,14.946 L 611.513,10.5 L 615.411,10.5 L 620.617,29.072 Z" marker-start="none" marker-end="none"/>
     </g>
    </g>
    <g id="Group_2" fill-rule="nonzero" stroke="none" fill="#d82231">
     <g id="Group_3">
      <path d="M 78.87,77.359 L 78.87,83.983 L 58.409,83.983 L 58.409,77.359 L 64.851,77.359 L 64.851,52.229 L 72.428,52.229 L 72.428,77.359 L 78.87,77.359 Z" marker-start="none" marker-end="none"/>
      <path d="M 99.274,52.229 L 99.274,69.106 C 99.269,71.637 98.757,73.511 97.737,74.727 C 96.717,75.943 95.218,76.548 93.24,76.54 C 92.122,76.528 91.182,76.348 90.422,76.002 C 89.661,75.655 88.982,75.216 88.386,74.682 L 88.386,85.303 L 81.399,82.579 L 81.399,52.229 L 88.386,52.229 L 88.386,69.65 C 88.698,69.926 89.027,70.146 89.373,70.309 C 89.719,70.471 90.116,70.555 90.564,70.558 C 91.131,70.56 91.56,70.34 91.85,69.9 C 92.141,69.459 92.286,68.786 92.287,67.881 L 92.287,52.229 L 99.274,52.229 Z" marker-start="none" marker-end="none"/>
      <path d="M 119.921,62.123 C 119.921,62.343 119.921,62.617 119.921,62.945 C 119.921,63.273 119.921,63.558 119.921,63.802 C 119.909,68.058 119.16,71.246 117.675,73.364 C 116.19,75.482 114.036,76.54 111.213,76.539 C 108.319,76.527 106.103,75.461 104.564,73.341 C 103.024,71.221 102.248,68.117 102.234,64.028 C 102.234,61.476 102.57,59.285 103.241,57.452 C 103.912,55.62 104.914,54.211 106.245,53.225 C 107.576,52.24 109.232,51.742 111.213,51.731 C 112.549,51.737 113.716,51.943 114.714,52.346 C 115.713,52.751 116.598,53.319 117.37,54.051 C 118.142,54.783 118.856,55.643 119.512,56.633 L 115.384,59.9 C 114.905,59.21 114.461,58.669 114.052,58.278 C 113.642,57.887 113.235,57.612 112.83,57.453 C 112.427,57.294 111.993,57.217 111.53,57.223 C 111,57.212 110.539,57.353 110.149,57.646 C 109.759,57.939 109.446,58.443 109.211,59.159 C 108.977,59.875 108.829,60.863 108.767,62.123 L 119.921,62.123 Z M 113.569,66.704 L 108.767,66.704 C 108.841,67.858 108.97,68.769 109.154,69.437 C 109.339,70.107 109.589,70.582 109.904,70.864 C 110.22,71.146 110.611,71.282 111.077,71.274 C 111.883,71.29 112.48,70.942 112.866,70.228 C 113.254,69.514 113.488,68.34 113.569,66.704 Z" marker-start="none" marker-end="none"/>
      <path d="M 152.71,52.229 L 152.71,58.853 L 142.819,58.853 L 142.819,83.985 L 135.197,83.985 L 135.197,52.229 L 152.71,52.229 Z" marker-start="none" marker-end="none"/>
      <path d="M 172.667,52.229 L 172.667,68.969 C 172.677,71.504 172.021,73.4 170.698,74.657 C 169.376,75.914 167.324,76.541 164.544,76.539 C 162.885,76.528 161.343,76.301 159.918,75.858 C 158.493,75.415 157.191,74.826 156.01,74.088 L 158.006,69.24 C 158.989,69.868 159.905,70.328 160.757,70.618 C 161.609,70.908 162.493,71.052 163.408,71.048 C 164.244,71.057 164.855,70.88 165.242,70.517 C 165.629,70.153 165.82,69.546 165.816,68.697 L 165.816,66.841 C 165.347,67.072 164.809,67.257 164.203,67.397 C 163.597,67.537 162.878,67.609 162.045,67.613 C 159.828,67.611 158.113,66.955 156.9,65.645 C 155.688,64.333 155.074,62.373 155.057,59.762 C 155.068,57.065 155.603,55.051 156.662,53.721 C 157.722,52.391 159.244,51.728 161.227,51.73 C 162.134,51.737 162.967,51.905 163.726,52.235 C 164.485,52.565 165.181,53.017 165.816,53.59 L 165.816,52.229 L 172.667,52.229 Z M 165.816,57.674 C 165.541,57.443 165.205,57.257 164.81,57.117 C 164.416,56.977 163.979,56.905 163.498,56.902 C 162.823,56.9 162.335,57.142 162.033,57.628 C 161.732,58.115 161.585,58.856 161.59,59.853 C 161.592,60.953 161.749,61.739 162.062,62.209 C 162.375,62.679 162.839,62.907 163.453,62.895 C 163.989,62.894 164.439,62.851 164.805,62.765 C 165.17,62.679 165.507,62.556 165.816,62.396 L 165.816,57.674 Z" marker-start="none" marker-end="none"/>
      <path d="M 198.12,64.254 L 198.12,69.239 L 187.281,69.239 L 187.281,63.438 L 190.953,63.438 L 190.953,62.122 C 190.965,60.844 190.713,59.86 190.193,59.172 C 189.674,58.483 188.809,58.135 187.598,58.128 C 186.908,58.118 186.315,58.27 185.822,58.584 C 185.328,58.897 184.925,59.428 184.612,60.175 C 184.298,60.922 184.068,61.943 183.92,63.238 C 183.772,64.531 183.699,66.154 183.699,68.106 C 183.694,70.526 183.801,72.458 184.022,73.902 C 184.242,75.347 184.612,76.386 185.13,77.019 C 185.648,77.652 186.35,77.962 187.235,77.948 C 187.861,77.95 188.363,77.77 188.741,77.409 C 189.12,77.047 189.43,76.495 189.673,75.751 C 189.915,75.006 190.145,74.06 190.363,72.913 L 197.621,75 C 197.29,76.499 196.873,77.835 196.369,79.007 C 195.866,80.179 195.222,81.172 194.44,81.986 C 193.658,82.799 192.684,83.417 191.517,83.841 C 190.35,84.265 188.938,84.479 187.281,84.481 C 184.726,84.475 182.603,83.842 180.91,82.584 C 179.217,81.326 177.95,79.481 177.109,77.048 C 176.268,74.616 175.848,71.635 175.848,68.106 C 175.855,64.434 176.301,61.386 177.185,58.962 C 178.068,56.538 179.351,54.726 181.031,53.527 C 182.711,52.328 184.749,51.729 187.145,51.731 C 189.622,51.743 191.672,52.254 193.295,53.263 C 194.92,54.273 196.13,55.712 196.927,57.579 C 197.725,59.446 198.123,61.671 198.12,64.254 Z" marker-start="none" marker-end="none"/>
      <path d="M 219.276,52.229 L 219.276,76.043 L 212.289,76.043 L 212.289,58.62 C 211.977,58.343 211.649,58.124 211.303,57.962 C 210.957,57.799 210.56,57.716 210.112,57.712 C 209.544,57.71 209.115,57.929 208.825,58.37 C 208.535,58.81 208.389,59.483 208.388,60.389 L 208.388,76.043 L 201.401,76.043 L 201.401,59.164 C 201.404,56.633 201.909,54.76 202.915,53.543 C 203.922,52.327 205.414,51.723 207.39,51.73 C 208.51,51.743 209.457,51.922 210.231,52.268 C 211.005,52.615 211.691,53.055 212.289,53.588 L 212.289,52.229 L 219.276,52.229 Z" marker-start="none" marker-end="none"/>
      <path d="M 239.923,52.229 L 239.923,68.969 C 239.933,71.504 239.277,73.4 237.954,74.657 C 236.632,75.914 234.58,76.541 231.8,76.539 C 230.141,76.528 228.599,76.301 227.174,75.858 C 225.749,75.415 224.447,74.826 223.266,74.088 L 225.262,69.24 C 226.245,69.868 227.161,70.328 228.013,70.618 C 228.865,70.908 229.749,71.052 230.664,71.048 C 231.5,71.057 232.111,70.88 232.498,70.517 C 232.885,70.153 233.076,69.546 233.072,68.697 L 233.072,66.841 C 232.603,67.072 232.065,67.257 231.459,67.397 C 230.853,67.537 230.134,67.609 229.301,67.613 C 227.084,67.611 225.369,66.955 224.156,65.645 C 222.944,64.333 222.33,62.373 222.313,59.762 C 222.324,57.065 222.859,55.051 223.918,53.721 C 224.978,52.391 226.5,51.728 228.483,51.73 C 229.39,51.737 230.223,51.905 230.982,52.235 C 231.741,52.565 232.437,53.017 233.072,53.59 L 233.072,52.229 L 239.923,52.229 Z M 233.072,57.674 C 232.797,57.443 232.461,57.257 232.066,57.117 C 231.672,56.977 231.235,56.905 230.754,56.902 C 230.079,56.9 229.591,57.142 229.289,57.628 C 228.988,58.115 228.841,58.856 228.846,59.853 C 228.848,60.953 229.005,61.739 229.318,62.209 C 229.631,62.679 230.095,62.907 230.709,62.895 C 231.245,62.894 231.695,62.851 232.061,62.765 C 232.426,62.679 232.763,62.556 233.072,62.396 L 233.072,57.674 Z" marker-start="none" marker-end="none"/>
      <path d="M 257.397,75.904 C 257.046,76.09 256.647,76.241 256.2,76.358 C 255.753,76.475 255.184,76.536 254.493,76.54 C 253.68,76.532 252.947,76.354 252.293,76.006 C 251.639,75.659 251.042,75.186 250.501,74.589 L 250.501,76.04 L 243.514,76.04 L 243.514,52.229 L 250.501,52.229 L 250.501,67.693 C 250.641,68.544 250.938,69.145 251.391,69.496 C 251.844,69.848 252.424,70.018 253.132,70.006 C 253.758,70.002 254.31,69.875 254.788,69.626 C 255.267,69.378 255.728,69.036 256.172,68.601 L 257.397,75.904 Z" marker-start="none" marker-end="none"/>
      <path d="M 276.398,52.229 L 276.398,85.303 L 269.411,82.579 L 269.411,74.727 C 268.871,75.219 268.251,75.64 267.551,75.991 C 266.852,76.34 266.05,76.524 265.147,76.54 C 263.005,76.557 261.368,75.548 260.235,73.514 C 259.103,71.479 258.532,68.315 258.523,64.021 C 258.539,59.857 259.108,56.765 260.23,54.745 C 261.351,52.726 262.93,51.721 264.965,51.73 C 265.933,51.742 266.776,51.922 267.494,52.274 C 268.213,52.625 268.852,53.079 269.411,53.634 L 269.411,52.229 L 276.398,52.229 Z M 269.411,58.439 C 269.121,58.186 268.817,57.987 268.498,57.843 C 268.179,57.698 267.818,57.624 267.415,57.621 C 267.086,57.611 266.8,57.686 266.556,57.846 C 266.311,58.006 266.108,58.313 265.946,58.767 C 265.785,59.222 265.665,59.887 265.584,60.762 C 265.505,61.636 265.464,62.784 265.464,64.204 C 265.464,65.6 265.504,66.727 265.583,67.585 C 265.663,68.443 265.782,69.093 265.941,69.537 C 266.099,69.98 266.298,70.279 266.536,70.433 C 266.774,70.587 267.052,70.659 267.37,70.649 C 267.818,70.643 268.203,70.562 268.527,70.405 C 268.85,70.246 269.145,70.04 269.411,69.786 L 269.411,58.439 Z" marker-start="none" marker-end="none"/>
      <path d="M 287.685,81.897 C 287.668,82.957 287.305,83.807 286.596,84.448 C 285.887,85.088 284.934,85.417 283.737,85.434 C 282.96,85.429 282.276,85.278 281.686,84.981 C 281.095,84.683 280.633,84.27 280.299,83.741 C 279.966,83.212 279.796,82.598 279.79,81.897 C 279.796,81.167 279.966,80.53 280.299,79.988 C 280.633,79.446 281.095,79.025 281.686,78.725 C 282.276,78.426 282.96,78.273 283.737,78.269 C 284.934,78.284 285.887,78.616 286.596,79.266 C 287.305,79.916 287.668,80.794 287.685,81.897 Z M 287.231,52.229 L 287.231,76.046 L 280.244,76.046 L 280.244,52.229 L 287.231,52.229 Z" marker-start="none" marker-end="none"/>
      <path d="M 308.022,52.229 L 308.022,68.969 C 308.032,71.504 307.376,73.4 306.053,74.657 C 304.731,75.914 302.679,76.541 299.899,76.539 C 298.24,76.528 296.698,76.301 295.273,75.858 C 293.848,75.415 292.546,74.826 291.365,74.088 L 293.361,69.24 C 294.344,69.868 295.26,70.328 296.112,70.618 C 296.964,70.908 297.848,71.052 298.763,71.048 C 299.599,71.057 300.21,70.88 300.597,70.517 C 300.984,70.153 301.175,69.546 301.171,68.697 L 301.171,66.841 C 300.702,67.072 300.164,67.257 299.558,67.397 C 298.952,67.537 298.233,67.609 297.4,67.613 C 295.183,67.611 293.468,66.955 292.255,65.645 C 291.043,64.333 290.429,62.373 290.412,59.762 C 290.423,57.065 290.958,55.051 292.017,53.721 C 293.077,52.391 294.599,51.728 296.582,51.73 C 297.489,51.737 298.322,51.905 299.081,52.235 C 299.84,52.565 300.536,53.017 301.171,53.59 L 301.171,52.229 L 308.022,52.229 Z M 301.171,57.674 C 300.896,57.443 300.56,57.257 300.165,57.117 C 299.771,56.977 299.334,56.905 298.853,56.902 C 298.178,56.9 297.69,57.142 297.388,57.628 C 297.087,58.115 296.94,58.856 296.945,59.853 C 296.947,60.953 297.104,61.739 297.417,62.209 C 297.73,62.679 298.194,62.907 298.808,62.895 C 299.344,62.894 299.794,62.851 300.16,62.765 C 300.525,62.679 300.862,62.556 301.171,62.396 L 301.171,57.674 Z" marker-start="none" marker-end="none"/>
      <path d="M 344.543,61.031 L 337.51,63.435 C 337.232,62.142 336.957,61.118 336.685,60.36 C 336.413,59.603 336.091,59.062 335.719,58.738 C 335.347,58.414 334.87,58.256 334.289,58.264 C 333.446,58.251 332.767,58.565 332.254,59.205 C 331.74,59.846 331.368,60.892 331.137,62.343 C 330.905,63.795 330.792,65.73 330.796,68.151 C 330.793,70.543 330.905,72.458 331.134,73.896 C 331.362,75.335 331.727,76.373 332.227,77.011 C 332.728,77.649 333.385,77.961 334.199,77.948 C 334.81,77.948 335.296,77.748 335.657,77.347 C 336.018,76.947 336.306,76.349 336.521,75.556 C 336.735,74.763 336.929,73.776 337.102,72.596 L 344.452,74.592 C 344.155,76.115 343.763,77.485 343.278,78.702 C 342.793,79.917 342.164,80.955 341.39,81.816 C 340.616,82.676 339.646,83.334 338.48,83.79 C 337.315,84.247 335.903,84.477 334.244,84.481 C 331.876,84.483 329.851,83.88 328.168,82.673 C 326.486,81.467 325.197,79.648 324.301,77.216 C 323.405,74.785 322.953,71.733 322.944,68.061 C 322.946,62.717 323.885,58.663 325.758,55.899 C 327.632,53.135 330.43,51.745 334.153,51.731 C 336.241,51.739 337.969,52.116 339.337,52.862 C 340.705,53.607 341.801,54.674 342.625,56.059 C 343.449,57.445 344.088,59.103 344.543,61.031 Z" marker-start="none" marker-end="none"/>
      <path d="M 369.463,63.345 L 369.463,83.985 L 361.794,83.985 L 361.794,62.936 C 361.802,61.414 361.558,60.263 361.062,59.483 C 360.565,58.704 359.765,58.313 358.661,58.309 C 357.532,58.313 356.704,58.704 356.176,59.483 C 355.649,60.263 355.387,61.414 355.393,62.936 L 355.393,83.985 L 347.724,83.985 L 347.724,63.163 C 347.735,60.566 348.181,58.422 349.061,56.732 C 349.942,55.041 351.188,53.784 352.8,52.961 C 354.412,52.138 356.32,51.728 358.525,51.731 C 360.789,51.726 362.736,52.135 364.367,52.958 C 365.997,53.781 367.251,55.05 368.13,56.765 C 369.009,58.48 369.453,60.674 369.463,63.345 Z" marker-start="none" marker-end="none"/>
      <path d="M 395.737,52.229 L 395.737,83.985 L 388.614,83.985 L 388.614,76.862 C 388.614,76.125 388.619,75.327 388.631,74.469 C 388.642,73.61 388.659,72.756 388.682,71.906 C 388.704,71.056 388.733,70.275 388.767,69.564 C 388.801,68.853 388.841,68.276 388.886,67.834 C 388.682,68.427 388.364,69.208 387.934,70.18 C 387.503,71.151 387.004,72.209 386.437,73.352 C 385.869,74.495 385.28,75.62 384.668,76.726 L 380.631,83.985 L 374.007,83.985 L 374.007,52.229 L 381.13,52.229 L 381.13,61.211 C 381.13,61.968 381.127,62.764 381.12,63.601 C 381.113,64.437 381.101,65.263 381.085,66.076 C 381.068,66.89 381.045,67.642 381.015,68.33 C 380.985,69.02 380.948,69.596 380.903,70.057 C 381.121,69.442 381.437,68.676 381.851,67.759 C 382.265,66.841 382.742,65.833 383.282,64.734 C 383.822,63.636 384.39,62.507 384.985,61.347 L 389.657,52.229 L 395.737,52.229 Z" marker-start="none" marker-end="none"/>
      <path d="M 423.187,83.985 L 414.93,83.985 L 413.478,79.766 C 412.877,78.025 412.345,76.368 411.885,74.792 C 411.425,73.216 411.109,71.82 410.938,70.602 C 410.747,71.82 410.425,73.216 409.974,74.792 C 409.522,76.368 408.996,78.025 408.397,79.766 L 406.945,83.985 L 398.552,83.985 L 407.081,64.386 L 407.081,52.229 L 414.703,52.229 L 414.703,64.522 L 423.187,83.985 Z" marker-start="none" marker-end="none"/>
      <path d="M 457.203,52.229 L 457.203,58.536 L 444.908,58.536 C 445.029,59.386 445.301,60.22 445.726,61.037 C 446.151,61.854 446.82,62.721 447.734,63.639 C 448.647,64.556 449.898,65.592 451.486,66.745 C 452.898,67.778 454.012,68.785 454.828,69.766 C 455.645,70.746 456.225,71.756 456.567,72.796 C 456.91,73.836 457.077,74.964 457.066,76.179 C 457.063,77.853 456.702,79.31 455.983,80.549 C 455.264,81.789 454.206,82.752 452.812,83.438 C 451.417,84.123 449.705,84.471 447.675,84.481 C 446.025,84.479 444.577,84.252 443.332,83.802 C 442.086,83.352 440.964,82.696 439.965,81.833 C 438.967,80.97 438.013,79.917 437.104,78.674 L 442.049,74.592 C 442.825,75.563 443.512,76.306 444.109,76.819 C 444.707,77.332 445.279,77.681 445.827,77.867 C 446.374,78.053 446.96,78.141 447.584,78.129 C 448.276,78.116 448.832,77.872 449.252,77.398 C 449.671,76.925 449.887,76.306 449.898,75.544 C 449.904,74.978 449.801,74.453 449.591,73.967 C 449.38,73.482 449.025,72.986 448.527,72.48 C 448.029,71.974 447.352,71.408 446.495,70.781 C 444.998,69.709 443.674,68.6 442.526,67.456 C 441.377,66.311 440.405,65.037 439.611,63.633 C 438.816,62.228 438.202,60.599 437.768,58.745 C 437.333,56.892 437.082,54.72 437.013,52.229 L 457.203,52.229 Z" marker-start="none" marker-end="none"/>
      <path d="M 483.507,52.229 L 476.021,68.606 L 483.189,83.985 L 475.159,83.985 L 474.116,81.263 C 473.636,80.015 473.211,78.835 472.84,77.724 C 472.468,76.613 472.167,75.569 471.938,74.594 C 471.71,75.569 471.417,76.613 471.059,77.724 C 470.7,78.835 470.283,80.015 469.806,81.263 L 468.762,83.985 L 460.505,83.985 L 467.673,68.424 L 460.233,52.229 L 468.263,52.229 L 469.579,55.676 C 470.059,56.927 470.492,58.122 470.877,59.26 C 471.262,60.398 471.57,61.457 471.802,62.435 C 472.034,61.457 472.341,60.398 472.721,59.26 C 473.1,58.122 473.52,56.927 473.979,55.676 L 475.25,52.229 L 483.507,52.229 Z" marker-start="none" marker-end="none"/>
      <path d="M 517.698,77.359 L 517.698,83.983 L 497.237,83.983 L 497.237,77.359 L 503.679,77.359 L 503.679,52.229 L 511.256,52.229 L 511.256,77.359 L 517.698,77.359 Z" marker-start="none" marker-end="none"/>
      <path d="M 533.761,62.123 C 533.761,62.343 533.761,62.617 533.761,62.945 C 533.761,63.273 533.761,63.558 533.761,63.802 C 533.749,68.058 533,71.246 531.515,73.364 C 530.03,75.482 527.876,76.54 525.053,76.539 C 522.159,76.527 519.943,75.461 518.404,73.341 C 516.864,71.221 516.088,68.117 516.074,64.028 C 516.074,61.476 516.41,59.285 517.081,57.452 C 517.752,55.62 518.754,54.211 520.085,53.225 C 521.416,52.24 523.072,51.742 525.053,51.731 C 526.389,51.737 527.556,51.943 528.554,52.346 C 529.553,52.751 530.438,53.319 531.21,54.051 C 531.982,54.783 532.696,55.643 533.352,56.633 L 529.224,59.9 C 528.745,59.21 528.301,58.669 527.892,58.278 C 527.482,57.887 527.075,57.612 526.67,57.453 C 526.267,57.294 525.833,57.217 525.37,57.223 C 524.84,57.212 524.379,57.353 523.989,57.646 C 523.599,57.939 523.286,58.443 523.051,59.159 C 522.817,59.875 522.669,60.863 522.607,62.123 L 533.761,62.123 Z M 527.409,66.704 L 522.607,66.704 C 522.681,67.858 522.81,68.769 522.994,69.437 C 523.179,70.107 523.429,70.582 523.744,70.864 C 524.06,71.146 524.451,71.282 524.917,71.274 C 525.723,71.29 526.32,70.942 526.706,70.228 C 527.094,69.514 527.328,68.34 527.409,66.704 Z" marker-start="none" marker-end="none"/>
      <path d="M 553.485,58.711 L 548.267,61.389 C 547.954,60.399 547.658,59.626 547.379,59.069 C 547.099,58.513 546.809,58.123 546.51,57.899 C 546.21,57.675 545.874,57.568 545.5,57.577 C 544.942,57.566 544.49,57.767 544.143,58.18 C 543.795,58.592 543.54,59.274 543.38,60.226 C 543.218,61.178 543.139,62.458 543.141,64.067 C 543.139,65.706 543.213,67.012 543.364,67.984 C 543.515,68.956 543.755,69.653 544.082,70.076 C 544.409,70.498 544.836,70.704 545.364,70.694 C 545.797,70.699 546.157,70.583 546.443,70.346 C 546.729,70.109 546.978,69.721 547.189,69.181 C 547.4,68.642 547.608,67.921 547.814,67.018 L 553.349,69.65 C 552.92,71.034 552.372,72.241 551.705,73.27 C 551.039,74.299 550.199,75.1 549.185,75.671 C 548.171,76.242 546.928,76.531 545.455,76.54 C 542.369,76.54 540.056,75.499 538.513,73.417 C 536.971,71.337 536.199,68.22 536.199,64.067 C 536.208,61.216 536.58,58.879 537.313,57.057 C 538.048,55.236 539.095,53.892 540.454,53.023 C 541.814,52.155 543.435,51.724 545.318,51.73 C 546.673,51.728 547.856,51.975 548.867,52.472 C 549.879,52.97 550.76,53.734 551.509,54.766 C 552.259,55.796 552.917,57.111 553.485,58.711 Z" marker-start="none" marker-end="none"/>
      <path d="M 574.189,52.229 L 574.189,69.106 C 574.184,71.637 573.672,73.511 572.652,74.727 C 571.632,75.943 570.133,76.548 568.155,76.54 C 567.037,76.528 566.097,76.348 565.337,76.002 C 564.576,75.655 563.897,75.216 563.301,74.682 L 563.301,85.303 L 556.314,82.579 L 556.314,52.229 L 563.301,52.229 L 563.301,69.65 C 563.613,69.926 563.942,70.146 564.288,70.309 C 564.634,70.471 565.031,70.555 565.479,70.558 C 566.046,70.56 566.475,70.34 566.765,69.9 C 567.056,69.459 567.201,68.786 567.202,67.881 L 567.202,52.229 L 574.189,52.229 Z" marker-start="none" marker-end="none"/>
      <path d="M 612.657,52.229 L 604.491,83.985 L 596.687,83.985 L 588.476,52.229 L 596.279,52.229 L 597.413,58.132 L 603.674,58.132 L 604.854,52.229 L 612.657,52.229 Z M 602.404,64.299 L 598.638,64.299 L 598.82,65.297 C 599.21,67.402 599.552,69.328 599.846,71.075 C 600.14,72.822 600.357,74.419 600.498,75.866 C 600.664,74.418 600.9,72.823 601.207,71.081 C 601.514,69.338 601.853,67.425 602.222,65.343 L 602.404,64.299 Z" marker-start="none" marker-end="none"/>
      <path d="M 631.375,58.711 L 626.157,61.389 C 625.844,60.399 625.548,59.626 625.269,59.069 C 624.989,58.513 624.699,58.123 624.4,57.899 C 624.1,57.675 623.764,57.568 623.39,57.577 C 622.832,57.566 622.38,57.767 622.033,58.18 C 621.685,58.592 621.43,59.274 621.27,60.226 C 621.108,61.178 621.029,62.458 621.031,64.067 C 621.029,65.706 621.103,67.012 621.254,67.984 C 621.405,68.956 621.645,69.653 621.972,70.076 C 622.299,70.498 622.726,70.704 623.254,70.694 C 623.687,70.699 624.047,70.583 624.333,70.346 C 624.619,70.109 624.868,69.721 625.079,69.181 C 625.29,68.642 625.498,67.921 625.704,67.018 L 631.239,69.65 C 630.81,71.034 630.262,72.241 629.595,73.27 C 628.929,74.299 628.089,75.1 627.075,75.671 C 626.061,76.242 624.818,76.531 623.345,76.54 C 620.259,76.54 617.946,75.499 616.403,73.417 C 614.861,71.337 614.089,68.22 614.089,64.067 C 614.098,61.216 614.47,58.879 615.203,57.057 C 615.938,55.236 616.985,53.892 618.344,53.023 C 619.704,52.155 621.325,51.724 623.208,51.73 C 624.563,51.728 625.746,51.975 626.757,52.472 C 627.769,52.97 628.65,53.734 629.399,54.766 C 630.149,55.796 630.807,57.111 631.375,58.711 Z" marker-start="none" marker-end="none"/>
      <path d="M 650.995,52.229 L 650.995,68.969 C 651.005,71.504 650.349,73.4 649.026,74.657 C 647.704,75.914 645.652,76.541 642.872,76.539 C 641.213,76.528 639.671,76.301 638.246,75.858 C 636.821,75.415 635.519,74.826 634.338,74.088 L 636.334,69.24 C 637.317,69.868 638.233,70.328 639.085,70.618 C 639.937,70.908 640.821,71.052 641.736,71.048 C 642.572,71.057 643.183,70.88 643.57,70.517 C 643.957,70.153 644.148,69.546 644.144,68.697 L 644.144,66.841 C 643.675,67.072 643.137,67.257 642.531,67.397 C 641.925,67.537 641.206,67.609 640.373,67.613 C 638.156,67.611 636.441,66.955 635.228,65.645 C 634.016,64.333 633.402,62.373 633.385,59.762 C 633.396,57.065 633.931,55.051 634.99,53.721 C 636.05,52.391 637.572,51.728 639.555,51.73 C 640.462,51.737 641.295,51.905 642.054,52.235 C 642.813,52.565 643.509,53.017 644.144,53.59 L 644.144,52.229 L 650.995,52.229 Z M 644.144,57.674 C 643.869,57.443 643.533,57.257 643.138,57.117 C 642.744,56.977 642.307,56.905 641.826,56.902 C 641.151,56.9 640.663,57.142 640.361,57.628 C 640.06,58.115 639.913,58.856 639.918,59.853 C 639.92,60.953 640.077,61.739 640.39,62.209 C 640.703,62.679 641.167,62.907 641.781,62.895 C 642.317,62.894 642.767,62.851 643.133,62.765 C 643.498,62.679 643.835,62.556 644.144,62.396 L 644.144,57.674 Z" marker-start="none" marker-end="none"/>
      <path d="M 671.874,52.229 L 671.874,85.303 L 664.887,82.579 L 664.887,74.727 C 664.347,75.219 663.727,75.64 663.027,75.991 C 662.328,76.34 661.526,76.524 660.623,76.54 C 658.481,76.557 656.844,75.548 655.711,73.514 C 654.579,71.479 654.008,68.315 653.999,64.021 C 654.015,59.857 654.584,56.765 655.706,54.745 C 656.827,52.726 658.406,51.721 660.441,51.73 C 661.409,51.742 662.252,51.922 662.97,52.274 C 663.689,52.625 664.328,53.079 664.887,53.634 L 664.887,52.229 L 671.874,52.229 Z M 664.887,58.439 C 664.597,58.186 664.293,57.987 663.974,57.843 C 663.655,57.698 663.294,57.624 662.891,57.621 C 662.562,57.611 662.276,57.686 662.032,57.846 C 661.787,58.006 661.584,58.313 661.422,58.767 C 661.261,59.222 661.141,59.887 661.06,60.762 C 660.981,61.636 660.94,62.784 660.94,64.204 C 660.94,65.6 660.98,66.727 661.059,67.585 C 661.139,68.443 661.258,69.093 661.417,69.537 C 661.575,69.98 661.774,70.279 662.012,70.433 C 662.25,70.587 662.528,70.659 662.846,70.649 C 663.294,70.643 663.679,70.562 664.003,70.405 C 664.326,70.246 664.621,70.04 664.887,69.786 L 664.887,58.439 Z" marker-start="none" marker-end="none"/>
      <path d="M 692.643,62.123 C 692.643,62.343 692.643,62.617 692.643,62.945 C 692.643,63.273 692.643,63.558 692.643,63.802 C 692.631,68.058 691.882,71.246 690.397,73.364 C 688.912,75.482 686.758,76.54 683.935,76.539 C 681.041,76.527 678.825,75.461 677.286,73.341 C 675.746,71.221 674.97,68.117 674.956,64.028 C 674.956,61.476 675.292,59.285 675.963,57.452 C 676.634,55.62 677.636,54.211 678.967,53.225 C 680.298,52.24 681.954,51.742 683.935,51.731 C 685.271,51.737 686.438,51.943 687.436,52.346 C 688.435,52.751 689.32,53.319 690.092,54.051 C 690.864,54.783 691.578,55.643 692.234,56.633 L 688.106,59.9 C 687.627,59.21 687.183,58.669 686.774,58.278 C 686.364,57.887 685.957,57.612 685.552,57.453 C 685.149,57.294 684.715,57.217 684.252,57.223 C 683.722,57.212 683.261,57.353 682.871,57.646 C 682.481,57.939 682.168,58.443 681.933,59.159 C 681.699,59.875 681.551,60.863 681.489,62.123 L 692.643,62.123 Z M 686.291,66.704 L 681.489,66.704 C 681.563,67.858 681.692,68.769 681.876,69.437 C 682.061,70.107 682.311,70.582 682.626,70.864 C 682.942,71.146 683.333,71.282 683.799,71.274 C 684.605,71.29 685.202,70.942 685.588,70.228 C 685.976,69.514 686.21,68.34 686.291,66.704 Z" marker-start="none" marker-end="none"/>
      <path d="M 724.166,52.229 L 724.166,69.106 C 724.169,71.637 723.676,73.511 722.686,74.727 C 721.697,75.943 720.194,76.548 718.177,76.54 C 716.97,76.529 715.93,76.323 715.056,75.923 C 714.184,75.521 713.381,74.987 712.649,74.32 C 712.247,74.817 711.807,75.231 711.327,75.56 C 710.848,75.888 710.293,76.134 709.662,76.297 C 709.031,76.459 708.287,76.54 707.432,76.54 C 706.35,76.525 705.427,76.34 704.663,75.985 C 703.899,75.63 703.248,75.195 702.711,74.682 L 702.711,76.042 L 695.724,76.042 L 695.724,52.229 L 702.711,52.229 L 702.711,69.65 C 703.027,69.926 703.359,70.146 703.71,70.309 C 704.059,70.471 704.438,70.555 704.844,70.558 C 705.39,70.56 705.798,70.34 706.071,69.9 C 706.343,69.459 706.479,68.786 706.479,67.881 L 706.479,52.229 L 713.421,52.229 L 713.421,69.65 C 713.736,69.926 714.068,70.146 714.417,70.309 C 714.766,70.471 715.143,70.555 715.549,70.558 C 716.092,70.56 716.5,70.34 716.772,69.9 C 717.043,69.459 717.179,68.786 717.179,67.881 L 717.179,52.229 L 724.166,52.229 Z" marker-start="none" marker-end="none"/>
      <path d="M 746.032,76.043 L 738.773,76.043 L 737.593,70.145 C 737.292,68.669 737.033,67.286 736.815,65.998 C 736.598,64.71 736.416,63.482 736.27,62.314 C 736.123,61.147 736.004,60.007 735.915,58.893 C 735.799,60.557 735.599,62.3 735.314,64.122 C 735.028,65.945 734.669,67.937 734.236,70.1 L 733.056,76.043 L 725.752,76.043 L 732.784,51.544 L 730.244,43.831 L 737.004,43.831 L 746.032,76.043 Z" marker-start="none" marker-end="none"/>
     </g>
    </g>
   </g>
  </g>
 </g>
</svg>
