<?xml version="1.0" standalone="no"?>
<!DOCTYPE svg PUBLIC "-//W3C//DTD SVG 1.1//EN" "http://www.w3.org/Graphics/SVG/1.1/DTD/svg11.dtd">
<!--Generator: Xara Designer (www.xara.com), SVG filter version: 4.0.0.1-->
<svg stroke-width="0.501" stroke-linejoin="bevel" fill-rule="evenodd" xmlns:xlink="http://www.w3.org/1999/xlink" xmlns="http://www.w3.org/2000/svg" version="1.1" overflow="visible" width="307.5pt" height="120pt" viewBox="0 0 307.5 120">
 <defs>
  <marker id="DefaultArrow2" markerUnits="strokeWidth" viewBox="0 0 1 1" markerWidth="1" markerHeight="1" overflow="visible" orient="auto">
   <!-- REF_ARROW_STRAIGHT (-2) -->
   <g transform="scale(0.0092592592)">
    <!-- 1/108 -->
    <path d="M -9 54 L -9 -54 L 117 0 z"/>
   </g>
  </marker>
  <marker id="DefaultArrow3" markerUnits="strokeWidth" viewBox="0 0 1 1" markerWidth="1" markerHeight="1" overflow="visible" orient="auto">
   <!-- REF_ARROW_ANGLED -->
   <g transform="scale(0.0092592592)">
    <path d="M -27 54 L -9 0 L -27 -54 L 135 0 z"/>
   </g>
  </marker>
  <marker id="DefaultArrow4" markerUnits="strokeWidth" viewBox="0 0 1 1" markerWidth="1" markerHeight="1" overflow="visible" orient="auto">
   <!-- REF_ARROW_ROUNDED -->
   <g transform="scale(0.0092592592)">
    <path d="M -9,0 L -9,-45 C -9,-51.708 2.808,-56.580 9,-54 L 117,-9 C 120.916,-7.369 126.000,-4.242 126,0 C 126,4.242 120.916,7.369 117,9 L 9,54 C 2.808,56.580 -9,51.708 -9,45 z"/>
   </g>
  </marker>
  <marker id="DefaultArrow5" markerUnits="strokeWidth" viewBox="0 0 1 1" markerWidth="1" markerHeight="1" overflow="visible" orient="auto">
   <!-- REF_ARROW_SPOT -->
   <g transform="scale(0.0092592592)">
    <path d="M -54, 0 C -54,29.807 -29.807,54 0,54 C 29.807,54 54,29.807 54,0 C 54,-29.807 29.807,-54 0,-54 C -29.807,-54 -54,-29.807 -54,0 z"/>
   </g>
  </marker>
  <marker id="DefaultArrow6" markerUnits="strokeWidth" viewBox="0 0 1 1" markerWidth="1" markerHeight="1" overflow="visible" orient="auto">
   <!-- REF_ARROW_DIAMOND -->
   <g transform="scale(0.0092592592)">
    <path d="M -63,0 L 0,63 L 63,0 L 0,-63 z"/>
   </g>
  </marker>
  <marker id="DefaultArrow7" markerUnits="strokeWidth" viewBox="0 0 1 1" markerWidth="1" markerHeight="1" overflow="visible" orient="auto">
   <!-- REF_ARROW_FEATHER -->
   <g transform="scale(0.0092592592)">
    <path d="M 18,-54 L 108,-54 L 63,0 L 108,54 L 18, 54 L -36,0 z"/>
   </g>
  </marker>
  <marker id="DefaultArrow8" markerUnits="strokeWidth" viewBox="0 0 1 1" markerWidth="1" markerHeight="1" overflow="visible" orient="auto">
   <!-- REF_ARROW_FEATHER2 -->
   <g transform="scale(0.0092592592)">
    <path d="M -36,0 L 18,-54 L 54,-54 L 18,-18 L 27,-18 L 63,-54 L 99,-54 L 63,-18 L 72,-18 L 108,-54 L 144,-54 L 90,0 L 144,54 L 108,54 L 72,18 L 63,18 L 99,54 L 63,54 L 27,18 L 18,18 L 54,54 L 18,54 z"/>
   </g>
  </marker>
  <marker id="DefaultArrow9" markerUnits="strokeWidth" viewBox="0 0 1 1" markerWidth="1" markerHeight="1" overflow="visible" orient="auto">
   <!-- REF_ARROW_HOLLOWDIAMOND -->
   <g transform="scale(0.0092592592)">
    <path d="M 0,45 L -45,0 L 0, -45 L 45, 0 z M 0, 63 L-63, 0 L 0, -63 L 63, 0 z"/>
   </g>
  </marker>
  <filter id="StainedFilter">
   <feBlend mode="multiply" in2="BackgroundImage" in="SourceGraphic" result="blend"/>
   <feComposite in="blend" in2="SourceAlpha" operator="in" result="comp"/>
  </filter>
  <filter id="BleachFilter">
   <feBlend mode="screen" in2="BackgroundImage" in="SourceGraphic" result="blend"/>
   <feComposite in="blend" in2="SourceAlpha" operator="in" result="comp"/>
  </filter>
  <filter id="InvertTransparencyBitmapFilter">
   <feComponentTransfer>
    <feFuncR type="gamma" amplitude="1.055" exponent=".416666666" offset="-0.055"/>
    <feFuncG type="gamma" amplitude="1.055" exponent=".416666666" offset="-0.055"/>
    <feFuncB type="gamma" amplitude="1.055" exponent=".416666666" offset="-0.055"/>
   </feComponentTransfer>
   <feComponentTransfer>
    <feFuncR type="linear" slope="-1" intercept="1"/>
    <feFuncG type="linear" slope="-1" intercept="1"/>
    <feFuncB type="linear" slope="-1" intercept="1"/>
    <feFuncA type="linear" slope="1" intercept="0"/>
   </feComponentTransfer>
   <feComponentTransfer>
    <feFuncR type="gamma" amplitude="1" exponent="2.4" offset="0"/>
    <feFuncG type="gamma" amplitude="1" exponent="2.4" offset="0"/>
    <feFuncB type="gamma" amplitude="1" exponent="2.4" offset="0"/>
   </feComponentTransfer>
  </filter>
 </defs>
 <g id="Document" fill="none" stroke="black" font-family="Times New Roman" font-size="16" transform="scale(1 -1)">
  <g id="Spread" transform="translate(0 -120)">
   <g id="Layer 1"/>
   <g id="SVG Document">
    <g id="Group" stroke="none">
     <path d="M 3.336,115.9 L 310.166,115.9 L 310.166,-3.399 L 3.336,-3.399 L 3.336,115.9"/>
     <g id="Group_1" fill-rule="nonzero" stroke-linejoin="miter">
      <g id="Group_2">
       <path d="M 3.336,7.869 L 3.336,115.896 L 104.041,115.896 L 104.041,7.869 L 3.336,7.869 Z" fill="#dc1b30" stroke-width="0" marker-start="none" marker-end="none" stroke-miterlimit="79.8403193612775"/>
       <path d="M 5.282,16.921 L 52.692,73.42 L 5.169,25.899 L 5.169,26.209 L 52.547,73.588 L 5.169,33.834 L 5.169,34.121 L 52.401,73.752 L 5.169,40.68 L 5.169,40.949 L 52.286,73.94 L 5.169,46.737 L 5.169,46.991 L 52.151,74.117 L 5.169,52.208 L 5.169,52.451 L 52.08,74.327 L 5.169,57.253 L 5.169,57.487 L 51.977,74.523 L 5.169,61.981 L 5.169,62.209 L 51.955,74.745 L 5.169,66.496 L 5.169,66.719 L 51.895,74.959 L 5.169,70.871 L 5.169,71.092 L 51.895,75.179 L 5.169,75.179 L 5.169,75.4 L 51.865,75.4 L 5.169,79.485 L 5.169,79.706 L 51.915,75.617 L 5.169,83.859 L 5.169,84.083 L 51.918,75.84 L 5.169,88.365 L 5.169,88.593 L 51.995,76.046 L 5.169,93.09 L 5.169,93.323 L 52.08,76.25 L 5.169,98.127 L 5.169,98.369 L 52.145,76.463 L 5.169,103.585 L 5.169,103.84 L 52.282,76.638 L 5.169,109.628 L 5.169,109.896 L 52.407,76.819 L 6.84,115.055 L 7.182,115.055 L 52.538,76.997 L 14.48,115.055 L 14.791,115.055 L 52.695,77.15 L 20.891,115.055 L 21.178,115.055 L 52.859,77.299 L 26.423,115.055 L 26.691,115.055 L 53.049,77.411 L 31.315,115.055 L 31.569,115.055 L 53.239,77.521 L 35.739,115.055 L 35.98,115.055 L 53.442,77.609 L 39.812,115.055 L 40.046,115.055 L 53.642,77.7 L 43.634,115.055 L 43.862,115.055 L 53.853,77.769 L 47.277,115.055 L 47.502,115.055 L 54.07,77.809 L 50.811,115.055 L 51.031,115.055 L 54.293,77.784 L 54.293,115.055 L 54.513,115.055 L 54.513,77.835 L 57.77,115.055 L 57.991,115.055 L 54.73,77.785 L 61.302,115.055 L 61.525,115.055 L 54.945,77.73 L 64.945,115.055 L 65.174,115.055 L 55.169,77.722 L 68.758,115.055 L 68.993,115.055 L 55.359,77.599 L 72.825,115.055 L 73.068,115.055 L 55.573,77.539 L 77.234,115.055 L 77.489,115.055 L 55.759,77.418 L 82.113,115.055 L 82.382,115.055 L 55.935,77.285 L 87.627,115.055 L 87.916,115.055 L 56.105,77.145 L 94.016,115.055 L 94.327,115.055 L 56.269,76.997 L 101.625,115.055 L 101.966,115.055 L 56.405,76.825 L 103.303,109.664 L 103.303,109.395 L 56.544,76.653 L 103.303,103.649 L 103.303,103.396 L 56.629,76.447 L 103.303,98.213 L 103.303,97.971 L 56.745,76.259 L 103.303,93.203 L 103.303,92.969 L 56.792,76.043 L 103.303,88.504 L 103.303,88.276 L 56.882,75.837 L 103.303,84.022 L 103.303,83.8 L 56.898,75.617 L 103.303,79.676 L 103.303,79.456 L 56.941,75.4 L 103.303,75.4 L 103.303,75.179 L 56.91,75.179 L 103.303,71.121 L 103.303,70.9 L 56.918,74.957 L 103.303,66.778 L 103.303,66.554 L 56.846,74.747 L 103.303,62.299 L 103.303,62.071 L 56.813,74.528 L 103.303,57.607 L 103.303,57.372 L 56.745,74.318 L 103.303,52.608 L 103.303,52.365 L 56.622,74.132 L 103.303,47.18 L 103.303,46.926 L 56.541,73.926 L 103.303,41.181 L 103.303,40.912 L 56.412,73.746 L 103.303,34.4 L 103.303,34.113 L 56.259,73.588 L 103.303,26.543 L 103.303,26.232 L 56.108,73.427 L 103.303,17.181 L 103.303,16.921 L 103.233,16.921 L 55.933,73.292 L 95.404,16.921 L 95.135,16.921 L 55.762,73.152 L 88.228,16.921 L 87.973,16.921 L 55.57,73.045 L 81.74,16.921 L 81.496,16.921 L 55.375,72.943 L 75.765,16.921 L 75.53,16.921 L 55.161,72.885 L 70.157,16.921 L 69.929,16.921 L 54.946,72.837 L 64.807,16.921 L 64.583,16.921 L 54.729,72.801 L 59.619,16.921 L 59.397,16.921 L 54.513,72.738 L 54.513,16.921 L 54.293,16.921 L 54.293,72.791 L 49.405,16.921 L 49.183,16.921 L 54.07,72.777 L 44.221,16.921 L 43.998,16.921 L 53.85,72.796 L 38.879,16.921 L 38.65,16.921 L 53.652,72.906 L 33.273,16.921 L 33.039,16.921 L 53.427,72.934 L 27.309,16.921 L 27.066,16.921 L 53.243,73.062 L 20.829,16.921 L 20.576,16.921 L 53.046,73.158 L 13.667,16.921 L 13.398,16.921 L 52.862,73.279 L 5.57,16.921 L 5.282,16.921 Z" fill="#e14245" stroke-width="0" marker-start="none" marker-end="none" stroke-miterlimit="79.8403193612775"/>
       <path d="M 3.754,8.662 L 3.754,25.312 L 103.484,25.312 L 103.484,8.662 L 3.754,8.662 Z" fill="#dc1b30" stroke-width="0" marker-start="none" marker-end="none" stroke-miterlimit="79.8403193612775"/>
       <path d="M 8.828,15.701 C 8.828,16.585 9.062,17.333 9.531,17.901 C 10.018,18.505 10.676,18.793 11.542,18.793 C 12.389,18.793 13.029,18.505 13.444,17.937 C 13.742,17.531 13.859,17.18 13.958,16.467 L 12.488,16.368 C 12.47,16.756 12.434,16.918 12.336,17.135 C 12.191,17.459 11.884,17.649 11.496,17.649 C 10.757,17.649 10.397,16.981 10.397,15.63 C 10.397,14.321 10.748,13.744 11.524,13.744 C 12.119,13.744 12.461,14.114 12.597,14.88 L 13.958,14.8 C 13.877,14.205 13.769,13.907 13.507,13.546 C 13.066,12.934 12.371,12.6 11.514,12.6 C 9.882,12.6 8.828,13.817 8.828,15.701 Z" fill="#ffffff" stroke-width="0" marker-start="none" marker-end="none" stroke-miterlimit="79.8403193612775"/>
       <path d="M 15.304,13.464 C 14.854,14.06 14.61,14.844 14.61,15.719 C 14.61,16.575 14.854,17.36 15.286,17.919 C 15.728,18.487 16.386,18.793 17.198,18.793 C 18.009,18.793 18.622,18.505 19.055,17.919 C 19.497,17.315 19.74,16.522 19.74,15.657 C 19.74,14.871 19.488,14.032 19.073,13.473 C 18.649,12.914 17.964,12.599 17.152,12.599 C 16.368,12.599 15.737,12.896 15.304,13.464 Z M 18.271,15.693 C 18.271,16.999 17.919,17.649 17.189,17.649 C 16.792,17.649 16.512,17.477 16.341,17.125 C 16.179,16.783 16.079,16.26 16.079,15.701 C 16.079,14.394 16.449,13.744 17.198,13.744 C 17.919,13.744 18.271,14.385 18.271,15.693 Z" fill="#ffffff" stroke-width="0" marker-start="none" marker-end="none" stroke-miterlimit="79.8403193612775"/>
       <path d="M 20.78,12.689 L 20.78,18.703 L 22.971,18.703 L 24.026,15.105 L 25.144,18.703 L 27.335,18.703 L 27.335,12.689 L 25.919,12.689 L 25.919,17.594 L 24.405,12.689 L 23.44,12.689 L 21.961,17.594 L 21.961,12.689 L 20.78,12.689 Z" fill="#ffffff" stroke-width="0" marker-start="none" marker-end="none" stroke-miterlimit="79.8403193612775"/>
       <path d="M 28.656,12.689 L 28.656,18.703 L 30.846,18.703 L 31.901,15.105 L 33.019,18.703 L 35.21,18.703 L 35.21,12.689 L 33.795,12.689 L 33.795,17.594 L 32.28,12.689 L 31.316,12.689 L 29.837,17.594 L 29.837,12.689 L 28.656,12.689 Z" fill="#ffffff" stroke-width="0" marker-start="none" marker-end="none" stroke-miterlimit="79.8403193612775"/>
       <path d="M 37,13.194 C 36.621,13.573 36.468,14.069 36.468,14.953 L 36.468,18.703 L 37.992,18.703 L 37.992,14.953 C 37.992,14.466 38.037,14.259 38.163,14.078 C 38.316,13.862 38.623,13.744 39.011,13.744 C 39.398,13.744 39.741,13.871 39.894,14.069 C 40.029,14.241 40.066,14.439 40.066,14.953 L 40.066,18.703 L 41.265,18.703 L 41.265,14.953 C 41.265,13.969 41.13,13.537 40.705,13.159 C 40.282,12.78 39.687,12.6 38.884,12.6 C 38.037,12.6 37.424,12.798 37,13.194 Z" fill="#ffffff" stroke-width="0" marker-start="none" marker-end="none" stroke-miterlimit="79.8403193612775"/>
       <path d="M 42.503,12.689 L 42.503,18.703 L 44.017,18.703 L 46.064,15.16 C 46.046,15.349 46.037,15.439 46.037,15.556 L 46.037,18.703 L 47.128,18.703 L 47.128,12.689 L 45.92,12.689 L 43.567,16.756 C 43.576,16.657 43.576,16.575 43.576,16.548 C 43.585,16.413 43.594,16.323 43.594,16.287 L 43.594,12.689 L 42.503,12.689 Z" fill="#ffffff" stroke-width="0" marker-start="none" marker-end="none" stroke-miterlimit="79.8403193612775"/>
       <path d="M 48.457,12.689 L 48.457,18.703 L 49.863,18.703 L 49.863,12.689 L 48.457,12.689 Z" fill="#ffffff" stroke-width="0" marker-start="none" marker-end="none" stroke-miterlimit="79.8403193612775"/>
       <path d="M 52.073,12.689 L 52.073,17.513 L 50.577,17.513 L 50.577,18.703 L 54.986,18.703 L 54.986,17.513 L 53.498,17.513 L 53.498,12.689 L 52.073,12.689 Z" fill="#ffffff" stroke-width="0" marker-start="none" marker-end="none" stroke-miterlimit="79.8403193612775"/>
       <path d="M 56.756,12.689 L 56.756,15.223 L 54.863,18.703 L 56.495,18.703 L 57.649,16.422 L 58.785,18.703 L 60.046,18.703 L 58.163,15.223 L 58.163,12.689 L 56.756,12.689 Z" fill="#ffffff" stroke-width="0" marker-start="none" marker-end="none" stroke-miterlimit="79.8403193612775"/>
       <path d="M 62.621,15.701 C 62.621,16.585 62.855,17.333 63.324,17.901 C 63.81,18.505 64.468,18.793 65.334,18.793 C 66.182,18.793 66.822,18.505 67.237,17.937 C 67.534,17.531 67.652,17.18 67.751,16.467 L 66.281,16.368 C 66.263,16.756 66.226,16.918 66.128,17.135 C 65.983,17.459 65.676,17.649 65.289,17.649 C 64.55,17.649 64.189,16.981 64.189,15.63 C 64.189,14.321 64.54,13.744 65.316,13.744 C 65.911,13.744 66.254,14.114 66.389,14.88 L 67.751,14.8 C 67.669,14.205 67.561,13.907 67.3,13.546 C 66.858,12.934 66.163,12.6 65.307,12.6 C 63.675,12.6 62.621,13.817 62.621,15.701 Z" fill="#ffffff" stroke-width="0" marker-start="none" marker-end="none" stroke-miterlimit="79.8403193612775"/>
       <path d="M 69.097,13.464 C 68.646,14.06 68.403,14.844 68.403,15.719 C 68.403,16.575 68.646,17.36 69.079,17.919 C 69.521,18.487 70.179,18.793 70.991,18.793 C 71.802,18.793 72.415,18.505 72.848,17.919 C 73.29,17.315 73.533,16.522 73.533,15.657 C 73.533,14.871 73.28,14.032 72.866,13.473 C 72.442,12.914 71.757,12.599 70.945,12.599 C 70.161,12.599 69.53,12.896 69.097,13.464 Z M 72.063,15.693 C 72.063,16.999 71.711,17.649 70.982,17.649 C 70.584,17.649 70.305,17.477 70.133,17.125 C 69.971,16.783 69.872,16.26 69.872,15.701 C 69.872,14.394 70.242,13.744 70.991,13.744 C 71.711,13.744 72.063,14.385 72.063,15.693 Z" fill="#ffffff" stroke-width="0" marker-start="none" marker-end="none" stroke-miterlimit="79.8403193612775"/>
       <path d="M 74.573,12.689 L 74.573,18.703 L 75.997,18.703 L 75.997,13.88 L 78.387,13.88 L 78.387,12.689 L 74.573,12.689 Z" fill="#ffffff" stroke-width="0" marker-start="none" marker-end="none" stroke-miterlimit="79.8403193612775"/>
       <path d="M 79.228,12.689 L 79.228,18.703 L 80.653,18.703 L 80.653,13.88 L 83.042,13.88 L 83.042,12.689 L 79.228,12.689 Z" fill="#ffffff" stroke-width="0" marker-start="none" marker-end="none" stroke-miterlimit="79.8403193612775"/>
       <path d="M 83.883,12.689 L 83.883,18.703 L 88.183,18.703 L 88.183,17.559 L 85.316,17.559 L 85.316,16.323 L 87.57,16.323 L 87.57,15.196 L 85.316,15.196 L 85.316,13.88 L 88.183,13.88 L 88.183,12.689 L 83.883,12.689 Z" fill="#ffffff" stroke-width="0" marker-start="none" marker-end="none" stroke-miterlimit="79.8403193612775"/>
       <path d="M 88.854,15.619 C 88.854,17.567 89.873,18.793 91.477,18.793 C 92.758,18.793 93.605,18.054 93.821,16.729 L 92.487,16.548 C 92.442,16.855 92.396,16.981 92.307,17.152 C 92.135,17.468 91.819,17.649 91.45,17.649 C 90.701,17.649 90.287,16.936 90.287,15.646 C 90.287,14.421 90.72,13.744 91.513,13.744 C 91.838,13.744 92.118,13.871 92.298,14.114 C 92.442,14.312 92.487,14.465 92.487,14.782 L 91.351,14.782 L 91.351,15.908 L 93.821,15.908 L 93.821,12.689 L 93.182,12.689 C 93.109,13.005 93.091,13.06 92.974,13.385 C 92.46,12.798 92.045,12.599 91.333,12.599 C 89.818,12.599 88.854,13.771 88.854,15.619 Z" fill="#ffffff" stroke-width="0" marker-start="none" marker-end="none" stroke-miterlimit="79.8403193612775"/>
       <path d="M 95.051,12.689 L 95.051,18.703 L 99.352,18.703 L 99.352,17.559 L 96.485,17.559 L 96.485,16.323 L 98.739,16.323 L 98.739,15.196 L 96.485,15.196 L 96.485,13.88 L 99.352,13.88 L 99.352,12.689 L 95.051,12.689 Z" fill="#ffffff" stroke-width="0" marker-start="none" marker-end="none" stroke-miterlimit="79.8403193612775"/>
       <path d="M 20.837,28.875 C 20.837,32.969 22.979,35.546 26.353,35.546 C 29.044,35.546 30.826,33.992 31.28,31.206 L 28.475,30.827 C 28.381,31.472 28.286,31.737 28.096,32.097 C 27.736,32.76 27.073,33.139 26.296,33.139 C 24.723,33.139 23.851,31.643 23.851,28.931 C 23.851,26.354 24.761,24.932 26.429,24.932 C 27.111,24.932 27.698,25.198 28.077,25.709 C 28.381,26.126 28.475,26.449 28.475,27.112 L 26.087,27.112 L 26.087,29.481 L 31.28,29.481 L 31.28,22.715 L 29.935,22.715 C 29.783,23.378 29.745,23.492 29.499,24.174 C 28.419,22.943 27.546,22.526 26.049,22.526 C 22.865,22.526 20.837,24.99 20.837,28.875 Z" fill="#ffffff" stroke-width="0" marker-start="none" marker-end="none" stroke-miterlimit="79.8403193612775"/>
       <path d="M 34.846,23.776 C 34.05,24.572 33.729,25.615 33.729,27.472 L 33.729,35.357 L 36.931,35.357 L 36.931,27.472 C 36.931,26.449 37.026,26.013 37.291,25.634 C 37.614,25.179 38.258,24.932 39.073,24.932 C 39.888,24.932 40.609,25.198 40.93,25.615 C 41.215,25.975 41.291,26.392 41.291,27.472 L 41.291,35.357 L 43.812,35.357 L 43.812,27.472 C 43.812,25.406 43.527,24.496 42.637,23.7 C 41.745,22.904 40.494,22.526 38.808,22.526 C 37.026,22.526 35.737,22.943 34.846,23.776 Z" fill="#ffffff" stroke-width="0" marker-start="none" marker-end="none" stroke-miterlimit="79.8403193612775"/>
       <path d="M 44.932,22.715 L 48.97,35.357 L 52.4,35.357 L 56.362,22.715 L 53.178,22.715 L 52.4,25.312 L 48.325,25.312 L 47.529,22.715 L 44.932,22.715 Z M 51.718,27.643 L 50.372,32.078 L 49.027,27.643 L 51.718,27.643 Z" fill="#ffffff" stroke-width="0" marker-start="none" marker-end="none" stroke-miterlimit="79.8403193612775"/>
       <path d="M 57.975,22.715 L 57.975,35.357 L 63.529,35.357 C 65.159,35.357 66.05,35.129 66.808,34.504 C 67.623,33.84 68.135,32.703 68.135,31.566 C 68.135,30.656 67.794,29.747 67.187,29.102 C 66.883,28.78 66.599,28.591 65.955,28.287 L 68.286,22.715 L 65.007,22.715 L 63.074,27.718 L 60.951,27.718 L 60.951,22.715 L 57.975,22.715 Z M 64.344,30.144 C 64.78,30.41 65.083,30.978 65.083,31.528 C 65.083,32.021 64.856,32.495 64.496,32.779 C 64.117,33.064 63.889,33.102 62.695,33.102 L 60.951,33.102 L 60.951,29.88 L 62.771,29.88 C 63.756,29.88 63.984,29.918 64.344,30.144 Z" fill="#ffffff" stroke-width="0" marker-start="none" marker-end="none" stroke-miterlimit="79.8403193612775"/>
       <path d="M 70.582,22.715 L 70.582,35.357 L 74.43,35.357 C 76.856,35.357 78.144,34.883 79.319,33.594 C 80.362,32.419 80.93,30.846 80.93,29.064 C 80.93,27.302 80.38,25.728 79.357,24.553 C 78.296,23.321 76.818,22.715 74.922,22.715 L 70.582,22.715 Z M 76.969,26.108 C 77.557,26.904 77.879,27.965 77.879,29.102 C 77.879,30.239 77.557,31.244 76.988,32.002 C 76.439,32.723 75.775,33.025 74.733,33.025 L 73.482,33.025 L 73.482,25.084 L 74.695,25.084 C 75.718,25.084 76.439,25.407 76.969,26.108 Z" fill="#ffffff" stroke-width="0" marker-start="none" marker-end="none" stroke-miterlimit="79.8403193612775"/>
       <path d="M 83.114,22.715 L 83.114,35.357 L 86.071,35.357 L 86.071,22.715 L 83.114,22.715 Z" fill="#ffffff" stroke-width="0" marker-start="none" marker-end="none" stroke-miterlimit="79.8403193612775"/>
       <path d="M 87.587,22.715 L 91.624,35.357 L 95.054,35.357 L 99.016,22.715 L 95.832,22.715 L 95.054,25.312 L 90.98,25.312 L 90.183,22.715 L 87.587,22.715 Z M 94.373,27.643 L 93.027,32.078 L 91.681,27.643 L 94.373,27.643 Z" fill="#ffffff" stroke-width="0" marker-start="none" marker-end="none" stroke-miterlimit="79.8403193612775"/>
       <path d="M 9.16,22.895 L 9.16,35.537 L 12.155,35.537 L 12.155,25.396 L 19.3,25.403 L 19.255,22.895 L 9.16,22.895 Z" fill="#ffffff" stroke-width="0" marker-start="none" marker-end="none" stroke-miterlimit="79.8403193612775"/>
       <path d="M 14.264,28.969 C 14.264,29.78 14.716,30.382 15.538,30.694 C 15.99,30.857 16.523,30.95 17.809,31.054 L 17.809,31.378 C 17.809,31.934 17.53,32.212 16.963,32.212 C 16.407,32.212 16.059,31.922 15.99,31.378 L 14.438,31.528 C 14.554,32.142 14.727,32.455 15.086,32.733 C 15.584,33.115 16.291,33.312 17.125,33.312 C 18.052,33.312 18.805,33.046 19.175,32.594 C 19.419,32.282 19.488,31.98 19.488,31.135 L 19.488,28.551 C 19.488,27.868 19.488,27.868 19.592,27.486 L 17.959,27.486 C 17.889,27.857 17.878,27.926 17.878,28.227 C 17.878,28.239 17.878,28.308 17.889,28.378 C 17.333,27.625 16.882,27.37 16.059,27.37 C 14.971,27.37 14.264,27.996 14.264,28.969 Z M 17.809,29.698 L 17.808,30.219 C 17.287,30.162 17.079,30.127 16.789,30.023 C 16.291,29.86 16.036,29.571 16.036,29.154 C 16.036,28.726 16.326,28.425 16.754,28.425 C 17.357,28.425 17.809,28.98 17.809,29.698 Z" fill="#ffffff" stroke-width="0" marker-start="none" marker-end="none" stroke-miterlimit="79.8403193612775"/>
       <path d="M 34.155,73.292 C 34.155,84.035 42.863,92.743 53.606,92.743 C 64.349,92.743 73.057,84.035 73.057,73.292 C 73.057,62.55 64.349,53.841 53.606,53.841 C 42.863,53.841 34.155,62.55 34.155,73.292 Z" fill="#dc1b30" stroke-width="0" marker-start="none" marker-end="none" stroke-miterlimit="79.8403193612775"/>
       <path d="M 68.653,48.803 L 62.756,55.77 L 63.293,62.199 L 69.722,61.662 L 75.616,54.699 L 69.188,55.234 L 68.653,48.803 Z" fill="#ffffff" stroke-width="0" marker-start="none" marker-end="none" stroke-miterlimit="79.8403193612775"/>
       <path d="M 27.071,63.801 L 30.748,69.103 L 25.446,72.78 L 34.426,74.404 L 39.728,70.727 L 36.05,65.425 L 27.071,63.801 Z" fill="#ffffff" stroke-width="0" marker-start="none" marker-end="none" stroke-miterlimit="79.8403193612775"/>
       <path d="M 39.456,48.759 L 38.866,55.184 L 32.44,54.593 L 38.275,61.609 L 44.702,62.198 L 45.291,55.774 L 39.456,48.759 Z" fill="#ffffff" stroke-width="0" marker-start="none" marker-end="none" stroke-miterlimit="79.8403193612775"/>
       <path d="M 80.976,63.935 L 71.982,65.48 L 68.258,70.749 L 73.529,74.473 L 82.52,72.928 L 77.254,69.204 L 80.976,63.935 Z" fill="#ffffff" stroke-width="0" marker-start="none" marker-end="none" stroke-miterlimit="79.8403193612775"/>
       <path d="M 58.916,86.871 L 56.162,92.708 L 59.247,101.297 L 61.999,95.464 L 67.835,98.214 L 64.754,89.624 L 58.916,86.871 Z" fill="#ffffff" stroke-width="0" marker-start="none" marker-end="none" stroke-miterlimit="79.8403193612775"/>
       <path d="M 48.975,86.914 L 43.114,89.614 L 39.954,98.176 L 45.815,95.474 L 48.517,101.332 L 51.675,92.774 L 48.975,86.914 Z" fill="#ffffff" stroke-width="0" marker-start="none" marker-end="none" stroke-miterlimit="79.8403193612775"/>
       <path d="M 49.404,44.968 L 49.363,54.094 L 53.907,58.677 L 58.488,54.136 L 58.53,45.009 L 53.945,49.552 L 49.404,44.968 Z" fill="#ffffff" stroke-width="0" marker-start="none" marker-end="none" stroke-miterlimit="79.8403193612775"/>
       <path d="M 72.791,78.797 L 66.552,80.44 L 68.194,86.682 L 76.075,91.277 L 74.435,85.038 L 80.675,83.393 L 72.791,78.797 Z" fill="#ffffff" stroke-width="0" marker-start="none" marker-end="none" stroke-miterlimit="79.8403193612775"/>
       <path d="M 35.174,78.722 L 27.25,83.252 L 33.475,84.947 L 31.777,91.173 L 39.702,86.645 L 41.398,80.419 L 35.174,78.722 Z" fill="#ffffff" stroke-width="0" marker-start="none" marker-end="none" stroke-miterlimit="79.8403193612775"/>
       <g id="Group_3" stroke-width="1" fill="#ffffff" stroke-miterlimit="79.8403193612775">
        <g id="Group_4">
         <g id="Group_5">
          <path d="M 124.324,77.588 L 122.692,84.065 C 122.64,84.279 122.587,84.509 122.533,84.754 C 122.48,84.999 122.43,85.235 122.386,85.462 C 122.342,85.688 122.308,85.88 122.284,86.037 C 122.275,85.972 122.256,85.852 122.229,85.677 C 122.202,85.502 122.171,85.307 122.137,85.091 C 122.104,84.876 122.072,84.676 122.043,84.49 C 122.013,84.305 121.992,84.169 121.978,84.082 L 120.839,77.877 L 119.088,77.877 L 121.179,89.777 L 123.015,89.777 L 124.494,83.521 C 124.552,83.284 124.612,83.029 124.674,82.758 C 124.735,82.487 124.791,82.228 124.842,81.984 C 124.892,81.738 124.929,81.537 124.953,81.379 C 125.03,81.543 125.137,81.748 125.274,81.995 C 125.41,82.242 125.558,82.5 125.715,82.769 C 125.873,83.039 126.021,83.289 126.16,83.521 L 129.883,89.777 L 131.753,89.777 L 129.662,77.877 L 127.911,77.877 L 129.067,84.082 C 129.081,84.169 129.104,84.305 129.137,84.49 C 129.17,84.676 129.205,84.876 129.244,85.091 C 129.282,85.307 129.316,85.502 129.347,85.677 C 129.377,85.852 129.397,85.972 129.407,86.037 C 129.331,85.88 129.234,85.69 129.114,85.465 C 128.994,85.241 128.865,85.006 128.726,84.761 C 128.587,84.516 128.452,84.284 128.319,84.065 L 124.324,77.588 Z" stroke-width="0" marker-start="none" marker-end="none" stroke-miterlimit="40"/>
          <path d="M 134.192,77.871 C 133.837,77.992 133.527,78.173 133.265,78.415 C 133.002,78.656 132.806,78.957 132.675,79.318 C 132.545,79.679 132.499,80.1 132.538,80.58 C 132.58,81.106 132.709,81.561 132.926,81.945 C 133.143,82.328 133.425,82.644 133.771,82.892 C 134.116,83.14 134.504,83.324 134.933,83.444 C 135.363,83.564 135.811,83.624 136.278,83.623 C 136.57,83.622 136.855,83.602 137.134,83.561 C 137.414,83.521 137.67,83.468 137.904,83.401 C 138.137,83.335 138.332,83.261 138.488,83.181 L 138.607,83.827 C 138.624,83.914 138.637,84.003 138.645,84.095 C 138.654,84.186 138.658,84.267 138.658,84.337 C 138.66,84.717 138.528,84.994 138.263,85.168 C 137.997,85.342 137.585,85.427 137.026,85.425 C 136.609,85.423 136.21,85.372 135.83,85.272 C 135.449,85.172 135.088,85.036 134.748,84.864 L 134.255,86.258 C 134.512,86.39 134.802,86.511 135.125,86.622 C 135.447,86.732 135.787,86.82 136.145,86.886 C 136.503,86.953 136.865,86.987 137.23,86.989 C 137.874,86.99 138.432,86.905 138.904,86.732 C 139.376,86.56 139.741,86.293 139.999,85.931 C 140.258,85.57 140.389,85.107 140.392,84.541 C 140.391,84.422 140.384,84.303 140.371,84.182 C 140.357,84.061 140.342,83.937 140.324,83.81 L 139.287,77.877 L 137.57,77.877 L 137.706,78.676 C 137.519,78.493 137.307,78.327 137.071,78.179 C 136.834,78.03 136.572,77.912 136.284,77.825 C 135.997,77.737 135.683,77.692 135.343,77.69 C 134.932,77.69 134.548,77.75 134.192,77.871 Z M 136.649,79.361 C 136.923,79.462 137.174,79.595 137.403,79.76 C 137.632,79.924 137.829,80.101 137.995,80.291 L 138.25,81.736 C 138.012,81.866 137.723,81.971 137.381,82.053 C 137.039,82.134 136.643,82.175 136.193,82.178 C 135.817,82.177 135.485,82.116 135.199,81.995 C 134.912,81.873 134.686,81.695 134.518,81.46 C 134.351,81.226 134.257,80.938 134.238,80.597 C 134.221,80.328 134.265,80.089 134.371,79.88 C 134.477,79.671 134.647,79.507 134.881,79.387 C 135.116,79.267 135.417,79.205 135.785,79.203 C 136.087,79.206 136.375,79.259 136.649,79.361 Z" stroke-width="0" marker-start="none" marker-end="none" stroke-miterlimit="40"/>
          <path d="M 143.078,78.162 C 142.75,78.472 142.586,78.91 142.585,79.475 C 142.586,79.569 142.593,79.666 142.606,79.768 C 142.62,79.87 142.635,79.977 142.653,80.087 L 143.554,85.204 L 142.279,85.204 L 142.568,86.802 L 143.843,86.802 L 144.285,89.318 L 146.172,90.27 L 145.56,86.802 L 147.668,86.802 L 147.379,85.204 L 145.271,85.204 L 144.438,80.427 C 144.421,80.341 144.408,80.258 144.4,80.176 C 144.391,80.095 144.387,80.02 144.387,79.951 C 144.388,79.723 144.458,79.558 144.595,79.456 C 144.733,79.354 144.93,79.303 145.186,79.305 C 145.453,79.305 145.684,79.339 145.881,79.405 C 146.077,79.471 146.271,79.568 146.461,79.696 L 145.951,78.03 C 145.725,77.912 145.488,77.825 145.239,77.771 C 144.99,77.716 144.757,77.689 144.54,77.69 C 143.893,77.694 143.406,77.851 143.078,78.162 Z" stroke-width="0" marker-start="none" marker-end="none" stroke-miterlimit="40"/>
          <path d="M 148.483,77.877 L 150.506,89.352 L 152.427,90.27 L 151.679,86.037 C 151.843,86.209 152.031,86.367 152.245,86.511 C 152.458,86.654 152.7,86.769 152.972,86.856 C 153.244,86.942 153.55,86.987 153.889,86.989 C 154.769,86.987 155.444,86.753 155.914,86.286 C 156.384,85.818 156.621,85.129 156.626,84.218 C 156.625,84.046 156.614,83.863 156.592,83.668 C 156.57,83.472 156.542,83.276 156.507,83.079 L 155.589,77.877 L 153.838,77.877 L 154.705,82.858 C 154.731,83.012 154.751,83.163 154.767,83.311 C 154.782,83.458 154.79,83.596 154.79,83.725 C 154.795,84.285 154.683,84.7 154.456,84.97 C 154.229,85.241 153.859,85.376 153.345,85.374 C 152.795,85.374 152.323,85.162 151.93,84.739 C 151.537,84.315 151.26,83.683 151.101,82.841 L 150.234,77.877 L 148.483,77.877 Z" stroke-width="0" marker-start="none" marker-end="none" stroke-miterlimit="40"/>
          <path d="M 157.373,75.735 L 158.427,80.24 L 160.654,80.24 L 158.58,75.735 L 157.373,75.735 Z" stroke-width="0" marker-start="none" marker-end="none" stroke-miterlimit="40"/>
          <path d="M 167.299,77.877 L 169.39,89.777 L 176.989,89.777 L 176.683,88.043 L 170.869,88.043 L 170.359,85.102 L 173.708,85.102 L 173.402,83.368 L 170.053,83.368 L 169.39,79.611 L 175.459,79.611 L 175.153,77.877 L 167.299,77.877 Z" stroke-width="0" marker-start="none" marker-end="none" stroke-miterlimit="40"/>
          <path d="M 177.411,77.877 L 178.992,86.802 L 180.743,86.802 L 180.607,86.037 C 180.771,86.209 180.959,86.367 181.173,86.511 C 181.386,86.654 181.628,86.769 181.9,86.856 C 182.172,86.942 182.478,86.987 182.817,86.989 C 183.697,86.987 184.372,86.753 184.842,86.286 C 185.312,85.818 185.549,85.129 185.554,84.218 C 185.553,84.046 185.542,83.863 185.52,83.668 C 185.498,83.472 185.47,83.276 185.435,83.079 L 184.517,77.877 L 182.766,77.877 L 183.633,82.858 C 183.659,83.012 183.679,83.163 183.695,83.311 C 183.71,83.458 183.718,83.596 183.718,83.725 C 183.723,84.285 183.611,84.7 183.384,84.97 C 183.157,85.241 182.787,85.376 182.273,85.374 C 181.723,85.374 181.251,85.162 180.858,84.739 C 180.465,84.315 180.188,83.683 180.029,82.841 L 179.162,77.877 L 177.411,77.877 Z" stroke-width="0" marker-start="none" marker-end="none" stroke-miterlimit="40"/>
          <path d="M 189.327,74.596 L 188.953,75.99 C 189.587,76.007 190.114,76.072 190.536,76.184 C 190.957,76.296 191.297,76.455 191.554,76.661 C 191.811,76.868 192.011,77.12 192.152,77.42 C 192.293,77.719 192.4,78.064 192.472,78.455 L 192.506,78.625 C 192.209,78.333 191.877,78.105 191.509,77.941 C 191.142,77.776 190.738,77.693 190.296,77.69 C 189.73,77.691 189.225,77.831 188.781,78.111 C 188.337,78.391 187.988,78.808 187.731,79.36 C 187.474,79.912 187.343,80.596 187.338,81.413 C 187.342,82.274 187.452,83.047 187.667,83.733 C 187.882,84.419 188.177,85.004 188.554,85.489 C 188.93,85.973 189.361,86.344 189.848,86.601 C 190.335,86.858 190.853,86.987 191.401,86.989 C 191.945,86.983 192.417,86.885 192.816,86.694 C 193.216,86.503 193.543,86.256 193.798,85.952 L 193.934,86.802 L 195.685,86.802 L 194.325,78.999 C 194.207,78.281 194.038,77.654 193.819,77.118 C 193.6,76.582 193.304,76.133 192.929,75.771 C 192.554,75.409 192.074,75.131 191.487,74.937 C 190.901,74.743 190.181,74.629 189.327,74.596 Z M 191.688,79.497 C 191.951,79.618 192.181,79.757 192.378,79.912 C 192.575,80.067 192.725,80.199 192.829,80.308 L 193.509,84.184 C 193.404,84.354 193.249,84.53 193.044,84.712 C 192.839,84.894 192.601,85.048 192.33,85.175 C 192.059,85.302 191.772,85.368 191.469,85.374 C 191.09,85.369 190.755,85.26 190.464,85.046 C 190.173,84.832 189.928,84.543 189.729,84.178 C 189.53,83.813 189.379,83.401 189.277,82.943 C 189.175,82.485 189.124,82.009 189.123,81.515 C 189.128,80.798 189.28,80.251 189.58,79.875 C 189.88,79.498 190.3,79.308 190.84,79.305 C 191.143,79.312 191.425,79.376 191.688,79.497 Z" stroke-width="0" marker-start="none" marker-end="none" stroke-miterlimit="40"/>
          <path d="M 196.755,77.877 L 198.319,86.802 L 200.07,86.802 L 198.506,77.877 L 196.755,77.877 Z M 199.002,88.113 C 198.836,88.214 198.703,88.348 198.605,88.517 C 198.507,88.686 198.457,88.874 198.455,89.08 C 198.457,89.292 198.507,89.484 198.605,89.655 C 198.703,89.826 198.836,89.962 199.002,90.064 C 199.168,90.165 199.354,90.217 199.56,90.219 C 199.761,90.217 199.943,90.165 200.107,90.064 C 200.27,89.962 200.401,89.826 200.498,89.655 C 200.596,89.484 200.646,89.292 200.648,89.08 C 200.646,88.874 200.596,88.686 200.498,88.517 C 200.401,88.348 200.27,88.214 200.107,88.113 C 199.943,88.012 199.761,87.961 199.56,87.958 C 199.354,87.961 199.168,88.012 199.002,88.113 Z" stroke-width="0" marker-start="none" marker-end="none" stroke-miterlimit="40"/>
          <path d="M 201.16,77.877 L 202.741,86.802 L 204.492,86.802 L 204.356,86.037 C 204.52,86.209 204.708,86.367 204.922,86.511 C 205.135,86.654 205.377,86.769 205.649,86.856 C 205.921,86.942 206.227,86.987 206.566,86.989 C 207.446,86.987 208.121,86.753 208.591,86.286 C 209.061,85.818 209.298,85.129 209.303,84.218 C 209.302,84.046 209.291,83.863 209.269,83.668 C 209.247,83.472 209.219,83.276 209.184,83.079 L 208.266,77.877 L 206.515,77.877 L 207.382,82.858 C 207.408,83.012 207.428,83.163 207.444,83.311 C 207.459,83.458 207.467,83.596 207.467,83.725 C 207.472,84.285 207.36,84.7 207.133,84.97 C 206.906,85.241 206.536,85.376 206.022,85.374 C 205.472,85.374 205,85.162 204.607,84.739 C 204.214,84.315 203.937,83.683 203.778,82.841 L 202.911,77.877 L 201.16,77.877 Z" stroke-width="0" marker-start="none" marker-end="none" stroke-miterlimit="40"/>
          <path d="M 212.588,78.233 C 212.039,78.59 211.632,79.093 211.366,79.743 C 211.1,80.392 211.001,81.159 211.07,82.042 C 211.129,82.809 211.279,83.497 211.523,84.106 C 211.766,84.715 212.083,85.234 212.473,85.663 C 212.862,86.092 213.306,86.42 213.805,86.647 C 214.303,86.873 214.837,86.987 215.405,86.989 C 216.119,86.983 216.716,86.825 217.195,86.516 C 217.673,86.206 218.033,85.781 218.274,85.241 C 218.514,84.701 218.635,84.083 218.635,83.385 C 218.634,83.094 218.615,82.809 218.576,82.529 C 218.537,82.248 218.483,81.984 218.414,81.736 L 212.753,81.736 C 212.711,81.218 212.772,80.776 212.935,80.409 C 213.098,80.042 213.341,79.761 213.665,79.566 C 213.988,79.371 214.37,79.273 214.81,79.271 C 215.172,79.275 215.515,79.34 215.839,79.467 C 216.162,79.593 216.488,79.76 216.816,79.968 L 217.581,78.744 C 217.125,78.395 216.651,78.132 216.159,77.956 C 215.667,77.779 215.138,77.69 214.572,77.69 C 213.797,77.695 213.135,77.876 212.588,78.233 Z M 216.863,84.308 C 216.751,84.646 216.56,84.914 216.288,85.109 C 216.016,85.304 215.659,85.404 215.218,85.408 C 214.822,85.404 214.475,85.306 214.179,85.113 C 213.883,84.92 213.635,84.654 213.435,84.315 C 213.235,83.977 213.081,83.587 212.974,83.147 L 216.969,83.147 C 217.009,83.582 216.974,83.969 216.863,84.308 Z" stroke-width="0" marker-start="none" marker-end="none" stroke-miterlimit="40"/>
          <path d="M 221.852,78.233 C 221.303,78.59 220.896,79.093 220.63,79.743 C 220.364,80.392 220.265,81.159 220.334,82.042 C 220.393,82.809 220.543,83.497 220.787,84.106 C 221.03,84.715 221.347,85.234 221.737,85.663 C 222.126,86.092 222.57,86.42 223.069,86.647 C 223.567,86.873 224.101,86.987 224.669,86.989 C 225.383,86.983 225.98,86.825 226.459,86.516 C 226.937,86.206 227.297,85.781 227.538,85.241 C 227.778,84.701 227.899,84.083 227.899,83.385 C 227.898,83.094 227.879,82.809 227.84,82.529 C 227.801,82.248 227.747,81.984 227.678,81.736 L 222.017,81.736 C 221.975,81.218 222.036,80.776 222.199,80.409 C 222.362,80.042 222.605,79.761 222.929,79.566 C 223.252,79.371 223.634,79.273 224.074,79.271 C 224.436,79.275 224.779,79.34 225.103,79.467 C 225.426,79.593 225.752,79.76 226.08,79.968 L 226.845,78.744 C 226.389,78.395 225.915,78.132 225.423,77.956 C 224.931,77.779 224.402,77.69 223.836,77.69 C 223.061,77.695 222.399,77.876 221.852,78.233 Z M 226.127,84.308 C 226.015,84.646 225.824,84.914 225.552,85.109 C 225.28,85.304 224.923,85.404 224.482,85.408 C 224.086,85.404 223.739,85.306 223.443,85.113 C 223.147,84.92 222.899,84.654 222.699,84.315 C 222.499,83.977 222.345,83.587 222.238,83.147 L 226.233,83.147 C 226.273,83.582 226.238,83.969 226.127,84.308 Z" stroke-width="0" marker-start="none" marker-end="none" stroke-miterlimit="40"/>
          <path d="M 229.326,77.877 L 230.907,86.802 L 232.658,86.802 L 232.505,85.986 C 232.762,86.288 233.068,86.53 233.423,86.711 C 233.778,86.892 234.169,86.984 234.596,86.989 C 234.952,86.986 235.256,86.937 235.506,86.845 C 235.756,86.752 235.957,86.636 236.109,86.496 L 235.378,84.796 C 235.242,84.91 235.068,85.009 234.857,85.091 C 234.647,85.174 234.401,85.217 234.12,85.221 C 233.762,85.226 233.438,85.152 233.147,85.001 C 232.857,84.85 232.608,84.594 232.401,84.234 C 232.194,83.873 232.036,83.381 231.927,82.756 L 231.077,77.877 L 229.326,77.877 Z" stroke-width="0" marker-start="none" marker-end="none" stroke-miterlimit="40"/>
          <path d="M 236.45,77.877 L 238.014,86.802 L 239.765,86.802 L 238.201,77.877 L 236.45,77.877 Z M 238.697,88.113 C 238.531,88.214 238.398,88.348 238.3,88.517 C 238.202,88.686 238.152,88.874 238.15,89.08 C 238.152,89.292 238.202,89.484 238.3,89.655 C 238.398,89.826 238.531,89.962 238.697,90.064 C 238.863,90.165 239.049,90.217 239.255,90.219 C 239.456,90.217 239.638,90.165 239.802,90.064 C 239.965,89.962 240.096,89.826 240.193,89.655 C 240.291,89.484 240.341,89.292 240.343,89.08 C 240.341,88.874 240.291,88.686 240.193,88.517 C 240.096,88.348 239.965,88.214 239.802,88.113 C 239.638,88.012 239.456,87.961 239.255,87.958 C 239.049,87.961 238.863,88.012 238.697,88.113 Z" stroke-width="0" marker-start="none" marker-end="none" stroke-miterlimit="40"/>
          <path d="M 240.855,77.877 L 242.436,86.802 L 244.187,86.802 L 244.051,86.037 C 244.215,86.209 244.403,86.367 244.617,86.511 C 244.83,86.654 245.072,86.769 245.344,86.856 C 245.616,86.942 245.922,86.987 246.261,86.989 C 247.141,86.987 247.816,86.753 248.286,86.286 C 248.756,85.818 248.993,85.129 248.998,84.218 C 248.997,84.046 248.986,83.863 248.964,83.668 C 248.942,83.472 248.914,83.276 248.879,83.079 L 247.961,77.877 L 246.21,77.877 L 247.077,82.858 C 247.103,83.012 247.123,83.163 247.139,83.311 C 247.154,83.458 247.162,83.596 247.162,83.725 C 247.167,84.285 247.055,84.7 246.828,84.97 C 246.601,85.241 246.231,85.376 245.717,85.374 C 245.167,85.374 244.695,85.162 244.302,84.739 C 243.909,84.315 243.632,83.683 243.473,82.841 L 242.606,77.877 L 240.855,77.877 Z" stroke-width="0" marker-start="none" marker-end="none" stroke-miterlimit="40"/>
          <path d="M 252.771,74.596 L 252.397,75.99 C 253.031,76.007 253.558,76.072 253.98,76.184 C 254.401,76.296 254.741,76.455 254.998,76.661 C 255.255,76.868 255.455,77.12 255.596,77.42 C 255.737,77.719 255.844,78.064 255.916,78.455 L 255.95,78.625 C 255.653,78.333 255.321,78.105 254.953,77.941 C 254.586,77.776 254.182,77.693 253.74,77.69 C 253.174,77.691 252.669,77.831 252.225,78.111 C 251.781,78.391 251.432,78.808 251.175,79.36 C 250.918,79.912 250.787,80.596 250.782,81.413 C 250.786,82.274 250.896,83.047 251.111,83.733 C 251.326,84.419 251.621,85.004 251.998,85.489 C 252.374,85.973 252.805,86.344 253.292,86.601 C 253.779,86.858 254.297,86.987 254.845,86.989 C 255.389,86.983 255.861,86.885 256.26,86.694 C 256.66,86.503 256.987,86.256 257.242,85.952 L 257.378,86.802 L 259.129,86.802 L 257.769,78.999 C 257.651,78.281 257.482,77.654 257.263,77.118 C 257.044,76.582 256.748,76.133 256.373,75.771 C 255.998,75.409 255.518,75.131 254.931,74.937 C 254.345,74.743 253.625,74.629 252.771,74.596 Z M 255.132,79.497 C 255.395,79.618 255.625,79.757 255.822,79.912 C 256.019,80.067 256.169,80.199 256.273,80.308 L 256.953,84.184 C 256.848,84.354 256.693,84.53 256.488,84.712 C 256.283,84.894 256.045,85.048 255.774,85.175 C 255.503,85.302 255.216,85.368 254.913,85.374 C 254.534,85.369 254.199,85.26 253.908,85.046 C 253.617,84.832 253.372,84.543 253.173,84.178 C 252.974,83.813 252.823,83.401 252.721,82.943 C 252.619,82.485 252.568,82.009 252.567,81.515 C 252.572,80.798 252.724,80.251 253.024,79.875 C 253.324,79.498 253.744,79.308 254.284,79.305 C 254.587,79.312 254.869,79.376 255.132,79.497 Z" stroke-width="0" marker-start="none" marker-end="none" stroke-miterlimit="40"/>
         </g>
         <g id="Group_6">
          <path d="M 120.521,57.871 C 120.166,57.992 119.856,58.173 119.594,58.415 C 119.331,58.656 119.135,58.957 119.004,59.318 C 118.874,59.679 118.828,60.1 118.867,60.58 C 118.909,61.106 119.038,61.561 119.255,61.945 C 119.472,62.328 119.754,62.644 120.1,62.892 C 120.445,63.14 120.833,63.324 121.262,63.444 C 121.692,63.564 122.14,63.624 122.607,63.623 C 122.899,63.622 123.184,63.602 123.463,63.561 C 123.743,63.521 123.999,63.468 124.233,63.401 C 124.466,63.335 124.661,63.261 124.817,63.181 L 124.936,63.827 C 124.953,63.914 124.966,64.003 124.974,64.095 C 124.983,64.186 124.987,64.267 124.987,64.337 C 124.989,64.717 124.857,64.994 124.592,65.168 C 124.326,65.342 123.914,65.427 123.355,65.425 C 122.938,65.423 122.539,65.372 122.159,65.272 C 121.778,65.172 121.417,65.036 121.077,64.864 L 120.584,66.258 C 120.841,66.39 121.131,66.511 121.454,66.622 C 121.776,66.732 122.116,66.82 122.474,66.886 C 122.832,66.953 123.194,66.987 123.559,66.989 C 124.203,66.99 124.761,66.905 125.233,66.732 C 125.705,66.56 126.07,66.293 126.328,65.931 C 126.587,65.57 126.718,65.107 126.721,64.541 C 126.72,64.422 126.713,64.303 126.7,64.182 C 126.686,64.061 126.671,63.937 126.653,63.81 L 125.616,57.877 L 123.899,57.877 L 124.035,58.676 C 123.848,58.493 123.636,58.327 123.4,58.179 C 123.163,58.03 122.901,57.912 122.613,57.825 C 122.326,57.737 122.012,57.692 121.672,57.69 C 121.261,57.69 120.877,57.75 120.521,57.871 Z M 122.978,59.361 C 123.252,59.462 123.503,59.595 123.732,59.76 C 123.961,59.924 124.158,60.101 124.324,60.291 L 124.579,61.736 C 124.341,61.866 124.052,61.971 123.71,62.053 C 123.368,62.134 122.972,62.175 122.522,62.178 C 122.146,62.177 121.814,62.116 121.528,61.995 C 121.241,61.873 121.015,61.695 120.847,61.46 C 120.68,61.226 120.586,60.938 120.567,60.597 C 120.55,60.328 120.594,60.089 120.7,59.88 C 120.806,59.671 120.976,59.507 121.21,59.387 C 121.445,59.267 121.746,59.205 122.114,59.203 C 122.416,59.206 122.704,59.259 122.978,59.361 Z" stroke-width="0" marker-start="none" marker-end="none" stroke-miterlimit="40"/>
          <path d="M 128.03,57.877 L 129.611,66.802 L 131.362,66.802 L 131.226,66.037 C 131.39,66.209 131.578,66.367 131.792,66.511 C 132.005,66.654 132.247,66.769 132.519,66.856 C 132.791,66.942 133.097,66.987 133.436,66.989 C 134.316,66.987 134.991,66.753 135.461,66.286 C 135.931,65.818 136.168,65.129 136.173,64.218 C 136.172,64.046 136.161,63.863 136.139,63.668 C 136.117,63.472 136.089,63.276 136.054,63.079 L 135.136,57.877 L 133.385,57.877 L 134.252,62.858 C 134.278,63.012 134.298,63.163 134.314,63.311 C 134.329,63.458 134.337,63.596 134.337,63.725 C 134.342,64.285 134.23,64.7 134.003,64.97 C 133.776,65.241 133.406,65.376 132.892,65.374 C 132.342,65.374 131.87,65.162 131.477,64.739 C 131.084,64.315 130.807,63.683 130.648,62.841 L 129.781,57.877 L 128.03,57.877 Z" stroke-width="0" marker-start="none" marker-end="none" stroke-miterlimit="40"/>
          <path d="M 139.383,58.111 C 138.939,58.391 138.59,58.808 138.333,59.36 C 138.076,59.912 137.945,60.596 137.94,61.413 C 137.944,62.274 138.054,63.047 138.269,63.733 C 138.484,64.419 138.779,65.004 139.156,65.489 C 139.532,65.973 139.963,66.344 140.45,66.601 C 140.937,66.858 141.455,66.987 142.003,66.989 C 142.547,66.983 143.019,66.885 143.418,66.694 C 143.818,66.503 144.145,66.256 144.4,65.952 L 144.995,69.369 L 146.899,70.27 L 144.706,57.877 L 142.972,57.877 L 143.108,58.625 C 142.811,58.333 142.479,58.105 142.111,57.941 C 141.744,57.776 141.34,57.693 140.898,57.69 C 140.332,57.691 139.827,57.831 139.383,58.111 Z M 142.29,59.497 C 142.553,59.618 142.783,59.757 142.98,59.912 C 143.177,60.067 143.327,60.199 143.431,60.308 L 144.111,64.184 C 144.006,64.354 143.851,64.53 143.646,64.712 C 143.441,64.894 143.203,65.048 142.932,65.175 C 142.661,65.302 142.374,65.368 142.071,65.374 C 141.692,65.369 141.357,65.26 141.066,65.046 C 140.775,64.832 140.53,64.543 140.331,64.178 C 140.132,63.813 139.981,63.401 139.879,62.943 C 139.777,62.485 139.726,62.009 139.725,61.515 C 139.73,60.798 139.882,60.251 140.182,59.875 C 140.482,59.498 140.902,59.308 141.442,59.305 C 141.745,59.312 142.027,59.376 142.29,59.497 Z" stroke-width="0" marker-start="none" marker-end="none" stroke-miterlimit="40"/>
          <path d="M 155.087,58.001 C 154.56,58.208 154.102,58.516 153.715,58.927 C 153.328,59.337 153.027,59.848 152.814,60.458 C 152.602,61.069 152.494,61.778 152.491,62.586 C 152.497,63.699 152.654,64.707 152.964,65.611 C 153.273,66.514 153.701,67.29 154.246,67.939 C 154.792,68.588 155.421,69.086 156.134,69.435 C 156.848,69.784 157.611,69.96 158.424,69.964 C 159.076,69.962 159.655,69.859 160.162,69.656 C 160.668,69.452 161.1,69.163 161.458,68.788 C 161.815,68.413 162.096,67.966 162.3,67.448 L 160.617,66.649 C 160.376,67.146 160.063,67.53 159.68,67.801 C 159.296,68.072 158.81,68.21 158.22,68.213 C 157.685,68.209 157.184,68.075 156.715,67.811 C 156.247,67.547 155.834,67.174 155.477,66.694 C 155.119,66.213 154.839,65.646 154.637,64.993 C 154.434,64.34 154.331,63.623 154.327,62.841 C 154.33,62.12 154.438,61.506 154.65,61 C 154.863,60.494 155.163,60.109 155.551,59.843 C 155.939,59.577 156.398,59.443 156.928,59.441 C 157.494,59.446 158.007,59.585 158.467,59.86 C 158.926,60.134 159.354,60.516 159.75,61.005 L 161.042,59.883 C 160.532,59.189 159.925,58.652 159.221,58.27 C 158.517,57.889 157.719,57.695 156.826,57.69 C 156.194,57.69 155.615,57.794 155.087,58.001 Z" stroke-width="0" marker-start="none" marker-end="none" stroke-miterlimit="40"/>
          <path d="M 164.805,58.256 C 164.248,58.627 163.831,59.139 163.554,59.793 C 163.277,60.447 163.17,61.202 163.233,62.059 C 163.289,62.826 163.449,63.513 163.714,64.12 C 163.978,64.728 164.317,65.245 164.731,65.672 C 165.145,66.098 165.604,66.424 166.109,66.649 C 166.613,66.874 167.134,66.987 167.67,66.989 C 168.263,66.986 168.793,66.877 169.261,66.662 C 169.729,66.447 170.122,66.144 170.441,65.752 C 170.76,65.361 170.992,64.898 171.136,64.364 C 171.281,63.83 171.327,63.243 171.274,62.603 C 171.218,61.836 171.059,61.15 170.796,60.544 C 170.532,59.939 170.193,59.424 169.778,58.999 C 169.363,58.574 168.901,58.251 168.391,58.027 C 167.881,57.804 167.352,57.692 166.803,57.69 C 166.027,57.697 165.361,57.885 164.805,58.256 Z M 168.226,59.8 C 168.599,60.09 168.899,60.483 169.126,60.98 C 169.353,61.478 169.485,62.041 169.523,62.671 C 169.557,63.191 169.503,63.649 169.362,64.046 C 169.221,64.443 168.996,64.754 168.687,64.979 C 168.378,65.205 167.988,65.319 167.517,65.323 C 167.054,65.318 166.64,65.173 166.275,64.89 C 165.91,64.606 165.616,64.215 165.393,63.716 C 165.169,63.217 165.039,62.642 165.001,61.991 C 164.968,61.472 165.021,61.015 165.16,60.62 C 165.3,60.226 165.52,59.918 165.822,59.695 C 166.124,59.473 166.502,59.36 166.956,59.356 C 167.43,59.362 167.854,59.51 168.226,59.8 Z" stroke-width="0" marker-start="none" marker-end="none" stroke-miterlimit="40"/>
          <path d="M 172.582,57.877 L 174.146,66.802 L 175.897,66.802 L 175.761,66.003 C 175.924,66.187 176.106,66.352 176.308,66.501 C 176.51,66.649 176.74,66.767 176.999,66.854 C 177.258,66.942 177.553,66.987 177.886,66.989 C 178.469,66.987 178.944,66.872 179.312,66.643 C 179.68,66.413 179.964,66.081 180.164,65.646 C 180.395,65.898 180.648,66.125 180.924,66.327 C 181.2,66.528 181.512,66.689 181.858,66.807 C 182.204,66.926 182.597,66.986 183.037,66.989 C 183.868,66.984 184.514,66.748 184.973,66.279 C 185.432,65.811 185.665,65.141 185.672,64.269 C 185.672,64.087 185.66,63.886 185.636,63.668 C 185.612,63.449 185.579,63.236 185.536,63.028 L 184.635,57.877 L 182.884,57.877 L 183.768,62.858 C 183.795,63.025 183.818,63.197 183.838,63.377 C 183.858,63.556 183.869,63.712 183.87,63.844 C 183.873,64.345 183.761,64.72 183.537,64.968 C 183.312,65.216 182.958,65.34 182.476,65.34 C 181.937,65.339 181.485,65.129 181.12,64.709 C 180.756,64.289 180.499,63.667 180.351,62.841 L 179.484,57.877 L 177.733,57.877 L 178.6,62.858 C 178.627,63.023 178.653,63.194 178.679,63.37 C 178.704,63.546 178.717,63.704 178.719,63.844 C 178.721,64.347 178.607,64.727 178.377,64.985 C 178.147,65.243 177.791,65.373 177.308,65.374 C 176.77,65.371 176.321,65.152 175.961,64.72 C 175.601,64.287 175.347,63.661 175.2,62.841 L 174.333,57.877 L 172.582,57.877 Z" stroke-width="0" marker-start="none" marker-end="none" stroke-miterlimit="40"/>
          <path d="M 186.555,54.596 L 188.714,66.802 L 190.448,66.802 L 190.312,66.054 C 190.609,66.346 190.941,66.574 191.309,66.738 C 191.676,66.903 192.08,66.986 192.522,66.989 C 193.089,66.988 193.594,66.848 194.037,66.568 C 194.481,66.288 194.831,65.872 195.087,65.319 C 195.344,64.767 195.475,64.083 195.48,63.266 C 195.476,62.405 195.366,61.632 195.151,60.946 C 194.936,60.26 194.641,59.675 194.265,59.19 C 193.888,58.706 193.457,58.335 192.97,58.078 C 192.483,57.822 191.965,57.692 191.417,57.69 C 190.873,57.696 190.401,57.794 190.002,57.985 C 189.602,58.176 189.275,58.424 189.02,58.727 L 188.459,55.497 L 186.555,54.596 Z M 192.354,59.633 C 192.645,59.847 192.89,60.136 193.089,60.501 C 193.289,60.866 193.439,61.278 193.541,61.736 C 193.643,62.195 193.695,62.671 193.695,63.164 C 193.69,63.881 193.538,64.428 193.238,64.805 C 192.938,65.181 192.518,65.371 191.978,65.374 C 191.676,65.367 191.393,65.304 191.13,65.182 C 190.867,65.061 190.637,64.922 190.44,64.767 C 190.244,64.612 190.093,64.48 189.989,64.371 L 189.309,60.495 C 189.414,60.325 189.569,60.149 189.774,59.967 C 189.979,59.786 190.217,59.631 190.488,59.504 C 190.759,59.377 191.046,59.311 191.349,59.305 C 191.728,59.31 192.063,59.419 192.354,59.633 Z" stroke-width="0" marker-start="none" marker-end="none" stroke-miterlimit="40"/>
          <path d="M 197.942,58.393 C 197.472,58.861 197.235,59.55 197.23,60.461 C 197.231,60.633 197.242,60.816 197.264,61.011 C 197.286,61.206 197.314,61.403 197.349,61.6 L 198.267,66.802 L 200.018,66.802 L 199.151,61.821 C 199.125,61.667 199.105,61.516 199.089,61.368 C 199.074,61.221 199.066,61.082 199.066,60.954 C 199.061,60.394 199.173,59.979 199.4,59.709 C 199.627,59.438 199.997,59.304 200.511,59.305 C 200.876,59.305 201.209,59.398 201.512,59.584 C 201.815,59.77 202.073,60.051 202.287,60.426 C 202.501,60.801 202.657,61.272 202.755,61.838 L 203.622,66.802 L 205.373,66.802 L 203.792,57.877 L 202.041,57.877 L 202.177,58.642 C 202.013,58.47 201.825,58.312 201.612,58.169 C 201.398,58.025 201.156,57.91 200.884,57.823 C 200.612,57.737 200.306,57.692 199.967,57.69 C 199.087,57.692 198.412,57.926 197.942,58.393 Z" stroke-width="0" marker-start="none" marker-end="none" stroke-miterlimit="40"/>
          <path d="M 207.752,58.162 C 207.424,58.472 207.26,58.91 207.259,59.475 C 207.26,59.569 207.267,59.666 207.28,59.768 C 207.294,59.87 207.309,59.977 207.327,60.087 L 208.228,65.204 L 206.953,65.204 L 207.242,66.802 L 208.517,66.802 L 208.959,69.318 L 210.846,70.27 L 210.234,66.802 L 212.342,66.802 L 212.053,65.204 L 209.945,65.204 L 209.112,60.427 C 209.095,60.341 209.082,60.258 209.074,60.176 C 209.065,60.095 209.061,60.02 209.061,59.951 C 209.062,59.723 209.132,59.558 209.269,59.456 C 209.407,59.354 209.604,59.303 209.86,59.305 C 210.127,59.305 210.358,59.339 210.555,59.405 C 210.751,59.471 210.945,59.568 211.135,59.696 L 210.625,58.03 C 210.399,57.912 210.162,57.825 209.913,57.771 C 209.664,57.716 209.431,57.689 209.214,57.69 C 208.567,57.694 208.08,57.851 207.752,58.162 Z" stroke-width="0" marker-start="none" marker-end="none" stroke-miterlimit="40"/>
          <path d="M 214.964,58.233 C 214.415,58.59 214.008,59.093 213.742,59.743 C 213.476,60.392 213.377,61.159 213.446,62.042 C 213.505,62.809 213.655,63.497 213.899,64.106 C 214.142,64.715 214.459,65.234 214.849,65.663 C 215.238,66.092 215.682,66.42 216.181,66.647 C 216.679,66.873 217.213,66.987 217.781,66.989 C 218.495,66.983 219.092,66.825 219.571,66.516 C 220.049,66.206 220.409,65.781 220.65,65.241 C 220.89,64.701 221.011,64.083 221.011,63.385 C 221.01,63.094 220.991,62.809 220.952,62.529 C 220.913,62.248 220.859,61.984 220.79,61.736 L 215.129,61.736 C 215.087,61.218 215.148,60.776 215.311,60.409 C 215.474,60.042 215.717,59.761 216.041,59.566 C 216.364,59.371 216.746,59.273 217.186,59.271 C 217.548,59.275 217.891,59.34 218.215,59.467 C 218.538,59.593 218.864,59.76 219.192,59.968 L 219.957,58.744 C 219.501,58.395 219.027,58.132 218.535,57.956 C 218.043,57.779 217.514,57.69 216.948,57.69 C 216.173,57.695 215.511,57.876 214.964,58.233 Z M 219.239,64.308 C 219.127,64.646 218.936,64.914 218.664,65.109 C 218.392,65.304 218.035,65.404 217.594,65.408 C 217.198,65.404 216.851,65.306 216.555,65.113 C 216.259,64.92 216.011,64.654 215.811,64.315 C 215.611,63.977 215.457,63.587 215.35,63.147 L 219.345,63.147 C 219.385,63.582 219.35,63.969 219.239,64.308 Z" stroke-width="0" marker-start="none" marker-end="none" stroke-miterlimit="40"/>
          <path d="M 222.438,57.877 L 224.019,66.802 L 225.77,66.802 L 225.617,65.986 C 225.874,66.288 226.18,66.53 226.535,66.711 C 226.89,66.892 227.281,66.984 227.708,66.989 C 228.064,66.986 228.368,66.937 228.618,66.845 C 228.868,66.752 229.069,66.636 229.221,66.496 L 228.49,64.796 C 228.354,64.91 228.18,65.009 227.969,65.091 C 227.759,65.174 227.513,65.217 227.232,65.221 C 226.874,65.226 226.55,65.152 226.259,65.001 C 225.969,64.85 225.72,64.594 225.513,64.234 C 225.306,63.873 225.148,63.381 225.039,62.756 L 224.189,57.877 L 222.438,57.877 Z" stroke-width="0" marker-start="none" marker-end="none" stroke-miterlimit="40"/>
          <path d="M 236.521,58.001 C 235.941,58.203 235.442,58.468 235.025,58.796 C 234.607,59.124 234.271,59.481 234.016,59.866 L 235.444,61.022 C 235.868,60.479 236.354,60.074 236.902,59.807 C 237.449,59.539 238.063,59.406 238.742,59.407 C 239.16,59.408 239.54,59.474 239.882,59.606 C 240.223,59.738 240.499,59.93 240.708,60.183 C 240.917,60.435 241.032,60.743 241.054,61.107 C 241.07,61.404 241.004,61.671 240.856,61.91 C 240.707,62.148 240.449,62.378 240.079,62.599 C 239.71,62.821 239.202,63.054 238.555,63.3 C 237.862,63.56 237.285,63.843 236.824,64.15 C 236.363,64.457 236.027,64.827 235.815,65.261 C 235.603,65.694 235.525,66.231 235.58,66.87 C 235.643,67.524 235.856,68.081 236.219,68.541 C 236.583,69.002 237.061,69.353 237.655,69.597 C 238.249,69.84 238.923,69.962 239.677,69.964 C 240.31,69.961 240.875,69.882 241.371,69.726 C 241.868,69.57 242.308,69.355 242.692,69.08 C 243.075,68.805 243.413,68.488 243.706,68.128 L 242.295,66.904 C 242.065,67.167 241.813,67.4 241.538,67.604 C 241.263,67.808 240.95,67.969 240.599,68.085 C 240.248,68.202 239.844,68.262 239.388,68.264 C 238.947,68.26 238.579,68.19 238.286,68.054 C 237.992,67.918 237.769,67.739 237.617,67.516 C 237.466,67.293 237.382,67.05 237.365,66.785 C 237.349,66.587 237.371,66.406 237.43,66.242 C 237.489,66.078 237.604,65.92 237.773,65.769 C 237.942,65.618 238.184,65.462 238.498,65.303 C 238.812,65.143 239.217,64.968 239.711,64.779 C 240.374,64.53 240.954,64.244 241.449,63.922 C 241.944,63.599 242.319,63.204 242.575,62.735 C 242.83,62.267 242.93,61.69 242.873,61.005 C 242.805,60.311 242.58,59.717 242.198,59.224 C 241.815,58.73 241.308,58.352 240.676,58.089 C 240.044,57.826 239.32,57.693 238.504,57.69 C 237.762,57.696 237.101,57.799 236.521,58.001 Z" stroke-width="0" marker-start="none" marker-end="none" stroke-miterlimit="40"/>
          <path d="M 246.548,58.25 C 245.994,58.617 245.581,59.13 245.307,59.788 C 245.032,60.446 244.93,61.214 244.998,62.093 C 245.058,62.872 245.218,63.565 245.479,64.171 C 245.74,64.777 246.076,65.289 246.488,65.708 C 246.899,66.127 247.359,66.445 247.869,66.662 C 248.379,66.879 248.912,66.988 249.469,66.989 C 250.032,66.984 250.513,66.901 250.911,66.74 C 251.31,66.578 251.646,66.367 251.92,66.105 C 252.193,65.844 252.425,65.56 252.614,65.255 L 251.322,64.082 C 251.182,64.306 251.018,64.512 250.833,64.699 C 250.647,64.885 250.431,65.036 250.185,65.149 C 249.939,65.262 249.655,65.32 249.333,65.323 C 248.859,65.319 248.437,65.178 248.067,64.902 C 247.696,64.625 247.398,64.24 247.171,63.744 C 246.944,63.249 246.809,62.67 246.766,62.008 C 246.727,61.467 246.778,60.998 246.919,60.603 C 247.06,60.207 247.285,59.901 247.593,59.685 C 247.902,59.468 248.289,59.359 248.755,59.356 C 249.109,59.357 249.447,59.44 249.769,59.603 C 250.091,59.765 250.416,60.001 250.744,60.308 L 251.679,59.118 C 251.204,58.65 250.705,58.295 250.183,58.053 C 249.661,57.812 249.111,57.691 248.534,57.69 C 247.764,57.696 247.102,57.882 246.548,58.25 Z" stroke-width="0" marker-start="none" marker-end="none" stroke-miterlimit="40"/>
          <path d="M 253.618,57.877 L 255.182,66.802 L 256.933,66.802 L 255.369,57.877 L 253.618,57.877 Z M 255.865,68.113 C 255.699,68.214 255.566,68.348 255.468,68.517 C 255.37,68.686 255.32,68.874 255.318,69.08 C 255.32,69.292 255.37,69.484 255.468,69.655 C 255.566,69.826 255.699,69.962 255.865,70.064 C 256.031,70.165 256.217,70.217 256.423,70.219 C 256.624,70.217 256.806,70.165 256.97,70.064 C 257.133,69.962 257.264,69.826 257.361,69.655 C 257.459,69.484 257.509,69.292 257.511,69.08 C 257.509,68.874 257.459,68.686 257.361,68.517 C 257.264,68.348 257.133,68.214 256.97,68.113 C 256.806,68.012 256.624,67.961 256.423,67.958 C 256.217,67.961 256.031,68.012 255.865,68.113 Z" stroke-width="0" marker-start="none" marker-end="none" stroke-miterlimit="40"/>
          <path d="M 259.83,58.233 C 259.281,58.59 258.874,59.093 258.608,59.743 C 258.342,60.392 258.243,61.159 258.312,62.042 C 258.371,62.809 258.521,63.497 258.765,64.106 C 259.008,64.715 259.325,65.234 259.715,65.663 C 260.104,66.092 260.548,66.42 261.047,66.647 C 261.545,66.873 262.079,66.987 262.647,66.989 C 263.361,66.983 263.958,66.825 264.437,66.516 C 264.915,66.206 265.275,65.781 265.516,65.241 C 265.756,64.701 265.877,64.083 265.877,63.385 C 265.876,63.094 265.857,62.809 265.818,62.529 C 265.779,62.248 265.725,61.984 265.656,61.736 L 259.995,61.736 C 259.953,61.218 260.014,60.776 260.177,60.409 C 260.34,60.042 260.583,59.761 260.907,59.566 C 261.23,59.371 261.612,59.273 262.052,59.271 C 262.414,59.275 262.757,59.34 263.081,59.467 C 263.404,59.593 263.73,59.76 264.058,59.968 L 264.823,58.744 C 264.367,58.395 263.893,58.132 263.401,57.956 C 262.909,57.779 262.38,57.69 261.814,57.69 C 261.039,57.695 260.377,57.876 259.83,58.233 Z M 264.105,64.308 C 263.993,64.646 263.802,64.914 263.53,65.109 C 263.258,65.304 262.901,65.404 262.46,65.408 C 262.064,65.404 261.717,65.306 261.421,65.113 C 261.125,64.92 260.877,64.654 260.677,64.315 C 260.477,63.977 260.323,63.587 260.216,63.147 L 264.211,63.147 C 264.251,63.582 264.216,63.969 264.105,64.308 Z" stroke-width="0" marker-start="none" marker-end="none" stroke-miterlimit="40"/>
          <path d="M 267.287,57.877 L 268.868,66.802 L 270.619,66.802 L 270.483,66.037 C 270.647,66.209 270.835,66.367 271.049,66.511 C 271.262,66.654 271.504,66.769 271.776,66.856 C 272.048,66.942 272.354,66.987 272.693,66.989 C 273.573,66.987 274.248,66.753 274.718,66.286 C 275.188,65.818 275.425,65.129 275.43,64.218 C 275.429,64.046 275.418,63.863 275.396,63.668 C 275.374,63.472 275.346,63.276 275.311,63.079 L 274.393,57.877 L 272.642,57.877 L 273.509,62.858 C 273.535,63.012 273.555,63.163 273.571,63.311 C 273.586,63.458 273.594,63.596 273.594,63.725 C 273.599,64.285 273.487,64.7 273.26,64.97 C 273.033,65.241 272.663,65.376 272.149,65.374 C 271.599,65.374 271.127,65.162 270.734,64.739 C 270.341,64.315 270.064,63.683 269.905,62.841 L 269.038,57.877 L 267.287,57.877 Z" stroke-width="0" marker-start="none" marker-end="none" stroke-miterlimit="40"/>
          <path d="M 278.747,58.25 C 278.193,58.617 277.78,59.13 277.506,59.788 C 277.231,60.446 277.129,61.214 277.197,62.093 C 277.257,62.872 277.417,63.565 277.678,64.171 C 277.939,64.777 278.275,65.289 278.687,65.708 C 279.098,66.127 279.558,66.445 280.068,66.662 C 280.578,66.879 281.111,66.988 281.668,66.989 C 282.231,66.984 282.712,66.901 283.11,66.74 C 283.509,66.578 283.845,66.367 284.119,66.105 C 284.392,65.844 284.624,65.56 284.813,65.255 L 283.521,64.082 C 283.381,64.306 283.217,64.512 283.032,64.699 C 282.846,64.885 282.63,65.036 282.384,65.149 C 282.138,65.262 281.854,65.32 281.532,65.323 C 281.058,65.319 280.636,65.178 280.266,64.902 C 279.895,64.625 279.597,64.24 279.37,63.744 C 279.143,63.249 279.008,62.67 278.965,62.008 C 278.926,61.467 278.977,60.998 279.118,60.603 C 279.259,60.207 279.484,59.901 279.792,59.685 C 280.101,59.468 280.488,59.359 280.954,59.356 C 281.308,59.357 281.646,59.44 281.968,59.603 C 282.29,59.765 282.615,60.001 282.943,60.308 L 283.878,59.118 C 283.403,58.65 282.904,58.295 282.382,58.053 C 281.86,57.812 281.31,57.691 280.733,57.69 C 279.963,57.696 279.301,57.882 278.747,58.25 Z" stroke-width="0" marker-start="none" marker-end="none" stroke-miterlimit="40"/>
          <path d="M 287.522,58.233 C 286.973,58.59 286.566,59.093 286.3,59.743 C 286.034,60.392 285.935,61.159 286.004,62.042 C 286.063,62.809 286.213,63.497 286.457,64.106 C 286.7,64.715 287.017,65.234 287.407,65.663 C 287.796,66.092 288.24,66.42 288.739,66.647 C 289.237,66.873 289.771,66.987 290.339,66.989 C 291.053,66.983 291.65,66.825 292.129,66.516 C 292.607,66.206 292.967,65.781 293.208,65.241 C 293.448,64.701 293.569,64.083 293.569,63.385 C 293.568,63.094 293.549,62.809 293.51,62.529 C 293.471,62.248 293.417,61.984 293.348,61.736 L 287.687,61.736 C 287.645,61.218 287.706,60.776 287.869,60.409 C 288.032,60.042 288.275,59.761 288.599,59.566 C 288.922,59.371 289.304,59.273 289.744,59.271 C 290.106,59.275 290.449,59.34 290.773,59.467 C 291.096,59.593 291.422,59.76 291.75,59.968 L 292.515,58.744 C 292.059,58.395 291.585,58.132 291.093,57.956 C 290.601,57.779 290.072,57.69 289.506,57.69 C 288.731,57.695 288.069,57.876 287.522,58.233 Z M 291.797,64.308 C 291.685,64.646 291.494,64.914 291.222,65.109 C 290.95,65.304 290.593,65.404 290.152,65.408 C 289.756,65.404 289.409,65.306 289.113,65.113 C 288.817,64.92 288.569,64.654 288.369,64.315 C 288.169,63.977 288.015,63.587 287.908,63.147 L 291.903,63.147 C 291.943,63.582 291.908,63.969 291.797,64.308 Z" stroke-width="0" marker-start="none" marker-end="none" stroke-miterlimit="40"/>
         </g>
         <g id="Group_7">
          <path d="M 119.088,37.877 L 121.196,49.777 L 123.559,49.777 C 124.833,49.779 125.908,49.577 126.783,49.173 C 127.658,48.768 128.304,48.151 128.722,47.322 C 129.14,46.492 129.3,45.44 129.203,44.167 C 129.13,43.241 128.947,42.429 128.655,41.731 C 128.362,41.033 127.989,40.439 127.535,39.948 C 127.08,39.457 126.574,39.059 126.017,38.754 C 125.46,38.45 124.879,38.227 124.277,38.086 C 123.674,37.945 123.078,37.875 122.488,37.877 L 119.088,37.877 Z M 124.396,39.893 C 124.936,40.082 125.421,40.367 125.852,40.748 C 126.283,41.129 126.631,41.608 126.897,42.186 C 127.164,42.763 127.32,43.441 127.367,44.218 C 127.464,45.5 127.194,46.459 126.555,47.093 C 125.917,47.727 124.89,48.044 123.474,48.043 L 122.675,48.043 L 121.179,39.611 L 122.692,39.611 C 123.287,39.611 123.855,39.705 124.396,39.893 Z" stroke-width="0" marker-start="none" marker-end="none" stroke-miterlimit="40"/>
          <path d="M 132.095,38.233 C 131.546,38.59 131.139,39.093 130.873,39.743 C 130.607,40.392 130.508,41.159 130.577,42.042 C 130.636,42.809 130.786,43.497 131.03,44.106 C 131.273,44.715 131.59,45.234 131.98,45.663 C 132.369,46.092 132.813,46.42 133.312,46.647 C 133.81,46.873 134.344,46.987 134.912,46.989 C 135.626,46.983 136.223,46.825 136.702,46.516 C 137.18,46.206 137.54,45.781 137.781,45.241 C 138.021,44.701 138.142,44.083 138.142,43.385 C 138.141,43.094 138.122,42.809 138.083,42.529 C 138.044,42.248 137.99,41.984 137.921,41.736 L 132.26,41.736 C 132.218,41.218 132.279,40.776 132.442,40.409 C 132.605,40.042 132.848,39.761 133.172,39.566 C 133.495,39.371 133.877,39.273 134.317,39.271 C 134.679,39.275 135.022,39.34 135.346,39.467 C 135.669,39.593 135.995,39.76 136.323,39.968 L 137.088,38.744 C 136.632,38.395 136.158,38.132 135.666,37.956 C 135.174,37.779 134.645,37.69 134.079,37.69 C 133.304,37.695 132.642,37.876 132.095,38.233 Z M 136.37,44.308 C 136.258,44.646 136.067,44.914 135.795,45.109 C 135.523,45.304 135.166,45.404 134.725,45.408 C 134.329,45.404 133.982,45.306 133.686,45.113 C 133.39,44.92 133.142,44.654 132.942,44.315 C 132.742,43.977 132.588,43.587 132.481,43.147 L 136.476,43.147 C 136.516,43.582 136.481,43.969 136.37,44.308 Z" stroke-width="0" marker-start="none" marker-end="none" stroke-miterlimit="40"/>
          <path d="M 138.974,34.596 L 141.133,46.802 L 142.867,46.802 L 142.731,46.054 C 143.028,46.346 143.36,46.574 143.728,46.738 C 144.095,46.903 144.499,46.986 144.941,46.989 C 145.508,46.988 146.013,46.848 146.456,46.568 C 146.9,46.288 147.25,45.872 147.506,45.319 C 147.763,44.767 147.894,44.083 147.899,43.266 C 147.895,42.405 147.785,41.632 147.57,40.946 C 147.355,40.26 147.06,39.675 146.684,39.19 C 146.307,38.706 145.876,38.335 145.389,38.078 C 144.902,37.822 144.384,37.692 143.836,37.69 C 143.292,37.696 142.82,37.794 142.421,37.985 C 142.021,38.176 141.694,38.424 141.439,38.727 L 140.878,35.497 L 138.974,34.596 Z M 144.773,39.633 C 145.064,39.847 145.309,40.136 145.508,40.501 C 145.708,40.866 145.858,41.278 145.96,41.736 C 146.062,42.195 146.114,42.671 146.114,43.164 C 146.109,43.881 145.957,44.428 145.657,44.805 C 145.357,45.181 144.937,45.371 144.397,45.374 C 144.095,45.367 143.812,45.304 143.549,45.182 C 143.286,45.061 143.056,44.922 142.859,44.767 C 142.663,44.612 142.512,44.48 142.408,44.371 L 141.728,40.495 C 141.833,40.325 141.988,40.149 142.193,39.967 C 142.398,39.786 142.636,39.631 142.907,39.504 C 143.178,39.377 143.465,39.311 143.768,39.305 C 144.147,39.31 144.482,39.419 144.773,39.633 Z" stroke-width="0" marker-start="none" marker-end="none" stroke-miterlimit="40"/>
          <path d="M 150.878,37.871 C 150.523,37.992 150.213,38.173 149.951,38.415 C 149.688,38.656 149.492,38.957 149.361,39.318 C 149.231,39.679 149.185,40.1 149.224,40.58 C 149.266,41.106 149.395,41.561 149.612,41.945 C 149.829,42.328 150.111,42.644 150.457,42.892 C 150.802,43.14 151.19,43.324 151.619,43.444 C 152.049,43.564 152.497,43.624 152.964,43.623 C 153.256,43.622 153.541,43.602 153.82,43.561 C 154.1,43.521 154.356,43.468 154.59,43.401 C 154.823,43.335 155.018,43.261 155.174,43.181 L 155.293,43.827 C 155.31,43.914 155.323,44.003 155.331,44.095 C 155.34,44.186 155.344,44.267 155.344,44.337 C 155.346,44.717 155.214,44.994 154.949,45.168 C 154.683,45.342 154.271,45.427 153.712,45.425 C 153.295,45.423 152.896,45.372 152.516,45.272 C 152.135,45.172 151.774,45.036 151.434,44.864 L 150.941,46.258 C 151.198,46.39 151.488,46.511 151.811,46.622 C 152.133,46.732 152.473,46.82 152.831,46.886 C 153.189,46.953 153.551,46.987 153.916,46.989 C 154.56,46.99 155.118,46.905 155.59,46.732 C 156.062,46.56 156.427,46.293 156.685,45.931 C 156.944,45.57 157.075,45.107 157.078,44.541 C 157.077,44.422 157.07,44.303 157.057,44.182 C 157.043,44.061 157.028,43.937 157.01,43.81 L 155.973,37.877 L 154.256,37.877 L 154.392,38.676 C 154.205,38.493 153.993,38.327 153.757,38.179 C 153.52,38.03 153.258,37.912 152.97,37.825 C 152.683,37.737 152.369,37.692 152.029,37.69 C 151.618,37.69 151.234,37.75 150.878,37.871 Z M 153.335,39.361 C 153.609,39.462 153.86,39.595 154.089,39.76 C 154.318,39.924 154.515,40.101 154.681,40.291 L 154.936,41.736 C 154.698,41.866 154.409,41.971 154.067,42.053 C 153.725,42.134 153.329,42.175 152.879,42.178 C 152.503,42.177 152.171,42.116 151.885,41.995 C 151.598,41.873 151.372,41.695 151.204,41.46 C 151.037,41.226 150.943,40.938 150.924,40.597 C 150.907,40.328 150.951,40.089 151.057,39.88 C 151.163,39.671 151.333,39.507 151.567,39.387 C 151.802,39.267 152.103,39.205 152.471,39.203 C 152.773,39.206 153.061,39.259 153.335,39.361 Z" stroke-width="0" marker-start="none" marker-end="none" stroke-miterlimit="40"/>
          <path d="M 158.404,37.877 L 159.985,46.802 L 161.736,46.802 L 161.583,45.986 C 161.84,46.288 162.146,46.53 162.501,46.711 C 162.856,46.892 163.247,46.984 163.674,46.989 C 164.03,46.986 164.334,46.937 164.584,46.845 C 164.834,46.752 165.035,46.636 165.187,46.496 L 164.456,44.796 C 164.32,44.91 164.146,45.009 163.935,45.091 C 163.725,45.174 163.479,45.217 163.198,45.221 C 162.84,45.226 162.516,45.152 162.225,45.001 C 161.935,44.85 161.686,44.594 161.479,44.234 C 161.272,43.873 161.114,43.381 161.005,42.756 L 160.155,37.877 L 158.404,37.877 Z" stroke-width="0" marker-start="none" marker-end="none" stroke-miterlimit="40"/>
          <path d="M 166.803,38.162 C 166.475,38.472 166.311,38.91 166.31,39.475 C 166.311,39.569 166.318,39.666 166.331,39.768 C 166.345,39.87 166.36,39.977 166.378,40.087 L 167.279,45.204 L 166.004,45.204 L 166.293,46.802 L 167.568,46.802 L 168.01,49.318 L 169.897,50.27 L 169.285,46.802 L 171.393,46.802 L 171.104,45.204 L 168.996,45.204 L 168.163,40.427 C 168.146,40.341 168.133,40.258 168.125,40.176 C 168.116,40.095 168.112,40.02 168.112,39.951 C 168.113,39.723 168.183,39.558 168.32,39.456 C 168.458,39.354 168.655,39.303 168.911,39.305 C 169.178,39.305 169.409,39.339 169.606,39.405 C 169.802,39.471 169.996,39.568 170.186,39.696 L 169.676,38.03 C 169.45,37.912 169.213,37.825 168.964,37.771 C 168.715,37.716 168.482,37.689 168.265,37.69 C 167.618,37.694 167.131,37.851 166.803,38.162 Z" stroke-width="0" marker-start="none" marker-end="none" stroke-miterlimit="40"/>
          <path d="M 172.225,37.877 L 173.789,46.802 L 175.54,46.802 L 175.404,46.003 C 175.567,46.187 175.749,46.352 175.951,46.501 C 176.153,46.649 176.383,46.767 176.642,46.854 C 176.901,46.942 177.196,46.987 177.529,46.989 C 178.112,46.987 178.587,46.872 178.955,46.643 C 179.323,46.413 179.607,46.081 179.807,45.646 C 180.038,45.898 180.291,46.125 180.567,46.327 C 180.843,46.528 181.155,46.689 181.501,46.807 C 181.847,46.926 182.24,46.986 182.68,46.989 C 183.511,46.984 184.157,46.748 184.616,46.279 C 185.075,45.811 185.308,45.141 185.315,44.269 C 185.315,44.087 185.303,43.886 185.279,43.668 C 185.255,43.449 185.222,43.236 185.179,43.028 L 184.278,37.877 L 182.527,37.877 L 183.411,42.858 C 183.438,43.025 183.461,43.197 183.481,43.377 C 183.501,43.556 183.512,43.712 183.513,43.844 C 183.516,44.345 183.404,44.72 183.18,44.968 C 182.955,45.216 182.601,45.34 182.119,45.34 C 181.58,45.339 181.128,45.129 180.763,44.709 C 180.399,44.289 180.142,43.667 179.994,42.841 L 179.127,37.877 L 177.376,37.877 L 178.243,42.858 C 178.27,43.023 178.296,43.194 178.322,43.37 C 178.347,43.546 178.36,43.704 178.362,43.844 C 178.364,44.347 178.25,44.727 178.02,44.985 C 177.79,45.243 177.434,45.373 176.951,45.374 C 176.413,45.371 175.964,45.152 175.604,44.72 C 175.244,44.287 174.99,43.661 174.843,42.841 L 173.976,37.877 L 172.225,37.877 Z" stroke-width="0" marker-start="none" marker-end="none" stroke-miterlimit="40"/>
          <path d="M 188.583,38.233 C 188.034,38.59 187.627,39.093 187.361,39.743 C 187.095,40.392 186.996,41.159 187.065,42.042 C 187.124,42.809 187.274,43.497 187.518,44.106 C 187.761,44.715 188.078,45.234 188.468,45.663 C 188.857,46.092 189.301,46.42 189.8,46.647 C 190.298,46.873 190.832,46.987 191.4,46.989 C 192.114,46.983 192.711,46.825 193.19,46.516 C 193.668,46.206 194.028,45.781 194.269,45.241 C 194.509,44.701 194.63,44.083 194.63,43.385 C 194.629,43.094 194.61,42.809 194.571,42.529 C 194.532,42.248 194.478,41.984 194.409,41.736 L 188.748,41.736 C 188.706,41.218 188.767,40.776 188.93,40.409 C 189.093,40.042 189.336,39.761 189.66,39.566 C 189.983,39.371 190.365,39.273 190.805,39.271 C 191.167,39.275 191.51,39.34 191.834,39.467 C 192.157,39.593 192.483,39.76 192.811,39.968 L 193.576,38.744 C 193.12,38.395 192.646,38.132 192.154,37.956 C 191.662,37.779 191.133,37.69 190.567,37.69 C 189.792,37.695 189.13,37.876 188.583,38.233 Z M 192.858,44.308 C 192.746,44.646 192.555,44.914 192.283,45.109 C 192.011,45.304 191.654,45.404 191.213,45.408 C 190.817,45.404 190.47,45.306 190.174,45.113 C 189.878,44.92 189.63,44.654 189.43,44.315 C 189.23,43.977 189.076,43.587 188.969,43.147 L 192.964,43.147 C 193.004,43.582 192.969,43.969 192.858,44.308 Z" stroke-width="0" marker-start="none" marker-end="none" stroke-miterlimit="40"/>
          <path d="M 196.04,37.877 L 197.621,46.802 L 199.372,46.802 L 199.236,46.037 C 199.4,46.209 199.588,46.367 199.802,46.511 C 200.015,46.654 200.257,46.769 200.529,46.856 C 200.801,46.942 201.107,46.987 201.446,46.989 C 202.326,46.987 203.001,46.753 203.471,46.286 C 203.941,45.818 204.178,45.129 204.183,44.218 C 204.182,44.046 204.171,43.863 204.149,43.668 C 204.127,43.472 204.099,43.276 204.064,43.079 L 203.146,37.877 L 201.395,37.877 L 202.262,42.858 C 202.288,43.012 202.308,43.163 202.324,43.311 C 202.339,43.458 202.347,43.596 202.347,43.725 C 202.352,44.285 202.24,44.7 202.013,44.97 C 201.786,45.241 201.416,45.376 200.902,45.374 C 200.352,45.374 199.88,45.162 199.487,44.739 C 199.094,44.315 198.817,43.683 198.658,42.841 L 197.791,37.877 L 196.04,37.877 Z" stroke-width="0" marker-start="none" marker-end="none" stroke-miterlimit="40"/>
          <path d="M 207.038,38.162 C 206.71,38.472 206.546,38.91 206.545,39.475 C 206.546,39.569 206.553,39.666 206.566,39.768 C 206.58,39.87 206.595,39.977 206.613,40.087 L 207.514,45.204 L 206.239,45.204 L 206.528,46.802 L 207.803,46.802 L 208.245,49.318 L 210.132,50.27 L 209.52,46.802 L 211.628,46.802 L 211.339,45.204 L 209.231,45.204 L 208.398,40.427 C 208.381,40.341 208.368,40.258 208.36,40.176 C 208.351,40.095 208.347,40.02 208.347,39.951 C 208.348,39.723 208.418,39.558 208.555,39.456 C 208.693,39.354 208.89,39.303 209.146,39.305 C 209.413,39.305 209.644,39.339 209.841,39.405 C 210.037,39.471 210.231,39.568 210.421,39.696 L 209.911,38.03 C 209.685,37.912 209.448,37.825 209.199,37.771 C 208.95,37.716 208.717,37.689 208.5,37.69 C 207.853,37.694 207.366,37.851 207.038,38.162 Z" stroke-width="0" marker-start="none" marker-end="none" stroke-miterlimit="40"/>
         </g>
        </g>
       </g>
      </g>
     </g>
    </g>
   </g>
  </g>
 </g>
</svg>
