<?xml version="1.0" standalone="no"?>
<!DOCTYPE svg PUBLIC "-//W3C//DTD SVG 1.1//EN" "http://www.w3.org/Graphics/SVG/1.1/DTD/svg11.dtd">
<!--Generator: Xara Designer (www.xara.com), SVG filter version: 4.0.0.1-->
<svg stroke-width="0.501" stroke-linejoin="bevel" fill-rule="evenodd" xmlns:xlink="http://www.w3.org/1999/xlink" xmlns="http://www.w3.org/2000/svg" version="1.1" overflow="visible" width="82.5pt" height="88.5pt" viewBox="0 0 82.5 88.5">
 <defs>
  <marker id="DefaultArrow2" markerUnits="strokeWidth" viewBox="0 0 1 1" markerWidth="1" markerHeight="1" overflow="visible" orient="auto">
   <!-- REF_ARROW_STRAIGHT (-2) -->
   <g transform="scale(0.0092592592)">
    <!-- 1/108 -->
    <path d="M -9 54 L -9 -54 L 117 0 z"/>
   </g>
  </marker>
  <marker id="DefaultArrow3" markerUnits="strokeWidth" viewBox="0 0 1 1" markerWidth="1" markerHeight="1" overflow="visible" orient="auto">
   <!-- REF_ARROW_ANGLED -->
   <g transform="scale(0.0092592592)">
    <path d="M -27 54 L -9 0 L -27 -54 L 135 0 z"/>
   </g>
  </marker>
  <marker id="DefaultArrow4" markerUnits="strokeWidth" viewBox="0 0 1 1" markerWidth="1" markerHeight="1" overflow="visible" orient="auto">
   <!-- REF_ARROW_ROUNDED -->
   <g transform="scale(0.0092592592)">
    <path d="M -9,0 L -9,-45 C -9,-51.708 2.808,-56.580 9,-54 L 117,-9 C 120.916,-7.369 126.000,-4.242 126,0 C 126,4.242 120.916,7.369 117,9 L 9,54 C 2.808,56.580 -9,51.708 -9,45 z"/>
   </g>
  </marker>
  <marker id="DefaultArrow5" markerUnits="strokeWidth" viewBox="0 0 1 1" markerWidth="1" markerHeight="1" overflow="visible" orient="auto">
   <!-- REF_ARROW_SPOT -->
   <g transform="scale(0.0092592592)">
    <path d="M -54, 0 C -54,29.807 -29.807,54 0,54 C 29.807,54 54,29.807 54,0 C 54,-29.807 29.807,-54 0,-54 C -29.807,-54 -54,-29.807 -54,0 z"/>
   </g>
  </marker>
  <marker id="DefaultArrow6" markerUnits="strokeWidth" viewBox="0 0 1 1" markerWidth="1" markerHeight="1" overflow="visible" orient="auto">
   <!-- REF_ARROW_DIAMOND -->
   <g transform="scale(0.0092592592)">
    <path d="M -63,0 L 0,63 L 63,0 L 0,-63 z"/>
   </g>
  </marker>
  <marker id="DefaultArrow7" markerUnits="strokeWidth" viewBox="0 0 1 1" markerWidth="1" markerHeight="1" overflow="visible" orient="auto">
   <!-- REF_ARROW_FEATHER -->
   <g transform="scale(0.0092592592)">
    <path d="M 18,-54 L 108,-54 L 63,0 L 108,54 L 18, 54 L -36,0 z"/>
   </g>
  </marker>
  <marker id="DefaultArrow8" markerUnits="strokeWidth" viewBox="0 0 1 1" markerWidth="1" markerHeight="1" overflow="visible" orient="auto">
   <!-- REF_ARROW_FEATHER2 -->
   <g transform="scale(0.0092592592)">
    <path d="M -36,0 L 18,-54 L 54,-54 L 18,-18 L 27,-18 L 63,-54 L 99,-54 L 63,-18 L 72,-18 L 108,-54 L 144,-54 L 90,0 L 144,54 L 108,54 L 72,18 L 63,18 L 99,54 L 63,54 L 27,18 L 18,18 L 54,54 L 18,54 z"/>
   </g>
  </marker>
  <marker id="DefaultArrow9" markerUnits="strokeWidth" viewBox="0 0 1 1" markerWidth="1" markerHeight="1" overflow="visible" orient="auto">
   <!-- REF_ARROW_HOLLOWDIAMOND -->
   <g transform="scale(0.0092592592)">
    <path d="M 0,45 L -45,0 L 0, -45 L 45, 0 z M 0, 63 L-63, 0 L 0, -63 L 63, 0 z"/>
   </g>
  </marker>
  <filter id="StainedFilter">
   <feBlend mode="multiply" in2="BackgroundImage" in="SourceGraphic" result="blend"/>
   <feComposite in="blend" in2="SourceAlpha" operator="in" result="comp"/>
  </filter>
  <filter id="BleachFilter">
   <feBlend mode="screen" in2="BackgroundImage" in="SourceGraphic" result="blend"/>
   <feComposite in="blend" in2="SourceAlpha" operator="in" result="comp"/>
  </filter>
  <filter id="InvertTransparencyBitmapFilter">
   <feComponentTransfer>
    <feFuncR type="gamma" amplitude="1.055" exponent=".416666666" offset="-0.055"/>
    <feFuncG type="gamma" amplitude="1.055" exponent=".416666666" offset="-0.055"/>
    <feFuncB type="gamma" amplitude="1.055" exponent=".416666666" offset="-0.055"/>
   </feComponentTransfer>
   <feComponentTransfer>
    <feFuncR type="linear" slope="-1" intercept="1"/>
    <feFuncG type="linear" slope="-1" intercept="1"/>
    <feFuncB type="linear" slope="-1" intercept="1"/>
    <feFuncA type="linear" slope="1" intercept="0"/>
   </feComponentTransfer>
   <feComponentTransfer>
    <feFuncR type="gamma" amplitude="1" exponent="2.4" offset="0"/>
    <feFuncG type="gamma" amplitude="1" exponent="2.4" offset="0"/>
    <feFuncB type="gamma" amplitude="1" exponent="2.4" offset="0"/>
   </feComponentTransfer>
  </filter>
 </defs>
 <g id="Document" fill="none" stroke="black" font-family="Times New Roman" font-size="16" transform="scale(1 -1)">
  <g id="Spread" transform="translate(0 -88.5)">
   <g id="SVG Document">
    <g id="ClipView">
     <path d="M -4.913,65.895 L 132.028,65.895 L 132.028,12.651 L -4.913,12.651 L -4.913,65.895" stroke="none"/>
     <clipPath id="ClipPath">
      <path d="M -4.913,12.651 L -4.913,65.895 L 132.028,65.895 L 132.028,12.651 L -4.913,12.651 Z"/>
     </clipPath>
     <g clip-path="url(#ClipPath)">
      <g id="Group">
       <g id="Group_1">
        <path d="M 40.033,17.68 L -4.913,17.68 L -4.913,65.894 L 40.033,65.894 L 40.033,17.68" stroke="none" fill="#dc1b30" stroke-width="0.044" fill-rule="nonzero" stroke-linejoin="miter" stroke-miterlimit="79.8403193612775"/>
        <path d="M -4.095,32.444 L -4.095,32.324 L 16.985,47.084 L -4.095,29.397 L -4.095,29.268 L 17.05,47.011 L -4.095,25.865 L -4.095,25.727 L 17.115,46.936 L -4.044,21.72 L -3.916,21.72 L 17.191,46.873 L -0.422,21.72 L -0.302,21.72 L 17.273,46.82 L 2.782,21.72 L 2.894,21.72 L 17.361,46.777 L 5.678,21.72 L 5.786,21.72 L 17.444,46.719 L 8.344,21.72 L 8.448,21.72 L 17.543,46.707 L 10.848,21.72 L 10.95,21.72 L 17.632,46.657 L 13.234,21.72 L 13.334,21.72 L 17.73,46.649 L 15.549,21.72 L 15.648,21.72 L 17.829,46.655 L 17.829,21.72 L 17.928,21.72 L 17.928,46.632 L 20.107,21.72 L 20.206,21.72 L 18.025,46.66 L 22.423,21.72 L 22.522,21.72 L 18.121,46.676 L 24.809,21.72 L 24.91,21.72 L 18.217,46.698 L 27.308,21.72 L 27.413,21.72 L 18.312,46.723 L 29.97,21.72 L 30.08,21.72 L 18.4,46.769 L 32.862,21.72 L 32.975,21.72 L 18.486,46.817 L 36.058,21.72 L 36.178,21.72 L 18.561,46.879 L 39.672,21.72 L 39.703,21.72 L 39.703,21.836 L 18.639,46.939 L 39.703,25.876 L 39.703,26.014 L 18.707,47.011 L 39.703,29.393 L 39.703,29.521 L 18.776,47.082 L 39.703,32.427 L 39.703,32.547 L 18.833,47.162 L 39.703,35.112 L 39.703,35.225 L 18.869,47.254 L 39.703,37.539 L 39.703,37.647 L 18.924,47.337 L 39.703,39.774 L 39.703,39.879 L 18.954,47.431 L 39.703,41.871 L 39.703,41.972 L 18.969,47.529 L 39.703,43.872 L 39.703,43.971 L 19.001,47.622 L 39.703,45.812 L 39.703,45.91 L 18.998,47.721 L 39.703,47.721 L 39.703,47.82 L 19.012,47.82 L 39.703,49.631 L 39.703,49.728 L 18.992,47.916 L 39.703,51.569 L 39.703,51.668 L 18.985,48.015 L 39.703,53.566 L 39.703,53.668 L 18.944,48.107 L 39.703,55.661 L 39.703,55.765 L 18.924,48.203 L 39.703,57.894 L 39.703,58.002 L 18.872,48.287 L 39.703,60.315 L 39.703,60.428 L 18.834,48.379 L 39.703,62.992 L 39.703,63.112 L 18.773,48.456 L 39.107,65.518 L 38.955,65.518 L 18.712,48.533 L 35.697,65.518 L 35.558,65.518 L 18.638,48.598 L 32.836,65.518 L 32.707,65.518 L 18.562,48.662 L 30.366,65.518 L 30.246,65.518 L 18.484,48.72 L 28.182,65.518 L 28.069,65.518 L 18.401,48.774 L 26.21,65.518 L 26.101,65.518 L 18.305,48.802 L 24.39,65.518 L 24.286,65.518 L 18.221,48.856 L 22.686,65.518 L 22.583,65.518 L 18.121,48.86 L 21.057,65.518 L 20.958,65.518 L 18.025,48.884 L 19.48,65.518 L 19.381,65.518 L 17.928,48.907 L 17.928,65.518 L 17.829,65.518 L 17.829,48.883 L 16.374,65.518 L 16.276,65.518 L 17.73,48.895 L 14.799,65.518 L 14.698,65.518 L 17.633,48.877 L 13.175,65.518 L 13.072,65.518 L 17.539,48.847 L 11.471,65.518 L 11.367,65.518 L 17.45,48.806 L 9.656,65.518 L 9.548,65.518 L 17.359,48.766 L 7.688,65.518 L 7.575,65.518 L 17.275,48.717 L 5.51,65.518 L 5.391,65.518 L 17.189,48.667 L 3.05,65.518 L 2.922,65.518 L 17.116,48.601 L 0.199,65.518 L 0.061,65.518 L 17.046,48.533 L -3.197,65.518 L -3.349,65.518 L 16.988,48.454 L -4.095,63.216 L -4.095,63.096 L 16.932,48.372 L -4.095,60.513 L -4.095,60.398 L 16.871,48.294 L -4.095,58.071 L -4.095,57.963 L 16.842,48.199 L -4.095,55.819 L -4.095,55.715 L 16.804,48.108 L -4.095,53.708 L -4.095,53.606 L 16.77,48.016 L -4.095,51.695 L -4.095,51.595 L 16.768,47.916 L -4.095,49.741 L -4.095,49.643 L 16.745,47.82 L -4.095,47.82 L -4.095,47.721 L 16.759,47.721 L -4.095,45.897 L -4.095,45.798 L 16.759,47.623 L -4.095,43.945 L -4.095,43.846 L 16.786,47.527 L -4.095,41.932 L -4.095,41.831 L 16.795,47.428 L -4.095,39.825 L -4.095,39.721 L 16.842,47.341 L -4.095,37.577 L -4.095,37.469 L 16.873,47.247 L -4.095,35.141 L -4.095,35.028 L 16.933,47.168" stroke="none" fill="#e14245" stroke-width="0.044" fill-rule="nonzero" stroke-linejoin="miter" stroke-miterlimit="79.8403193612775"/>
        <path d="M 39.784,18.034 L -4.727,18.034 L -4.727,25.465 L 39.784,25.465 L 39.784,18.034" stroke="none" fill="#dc1b30" stroke-width="0.044" fill-rule="nonzero" stroke-linejoin="miter" stroke-miterlimit="79.8403193612775"/>
        <path d="M -0.828,21.473 C -0.836,21.646 -0.853,21.718 -0.896,21.816 C -0.961,21.96 -1.098,22.045 -1.271,22.045 C -1.601,22.045 -1.762,21.747 -1.762,21.144 C -1.762,20.559 -1.605,20.302 -1.259,20.302 C -0.994,20.302 -0.84,20.467 -0.779,20.81 L -0.173,20.774 C -0.208,20.508 -0.257,20.375 -0.373,20.213 C -0.57,19.941 -0.88,19.792 -1.263,19.792 C -1.991,19.792 -2.463,20.335 -2.463,21.175 C -2.463,21.57 -2.357,21.904 -2.148,22.157 C -1.931,22.427 -1.637,22.555 -1.25,22.555 C -0.873,22.555 -0.587,22.427 -0.402,22.173 C -0.268,21.992 -0.216,21.836 -0.173,21.517 L -0.828,21.473" stroke="none" fill="#ffffff" stroke-width="0.044" fill-rule="nonzero" stroke-linejoin="miter" stroke-miterlimit="79.8403193612775"/>
        <path d="M 0.891,21.811 C 0.819,21.658 0.774,21.425 0.774,21.175 C 0.774,20.593 0.939,20.302 1.274,20.302 C 1.596,20.302 1.752,20.588 1.752,21.172 C 1.752,21.755 1.596,22.045 1.27,22.045 C 1.092,22.045 0.968,21.968 0.891,21.811 Z M 2.102,22.166 C 2.3,21.896 2.408,21.542 2.408,21.155 C 2.408,20.805 2.296,20.43 2.111,20.181 C 1.922,19.932 1.616,19.791 1.253,19.791 C 0.903,19.791 0.622,19.924 0.428,20.177 C 0.228,20.444 0.119,20.793 0.119,21.184 C 0.119,21.566 0.228,21.916 0.42,22.166 C 0.618,22.418 0.911,22.555 1.274,22.555 C 1.636,22.555 1.909,22.427 2.102,22.166" stroke="none" fill="#ffffff" stroke-width="0.044" fill-rule="nonzero" stroke-linejoin="miter" stroke-miterlimit="79.8403193612775"/>
        <path d="M 3.4,22.021 L 3.4,19.832 L 2.872,19.832 L 2.872,22.516 L 3.85,22.516 L 4.321,20.909 L 4.82,22.516 L 5.798,22.516 L 5.798,19.832 L 5.166,19.832 L 5.166,22.021 L 4.49,19.832 L 4.059,19.832 L 3.4,22.021" stroke="none" fill="#ffffff" stroke-width="0.044" fill-rule="nonzero" stroke-linejoin="miter" stroke-miterlimit="79.8403193612775"/>
        <path d="M 6.914,22.021 L 6.914,19.832 L 6.387,19.832 L 6.387,22.516 L 7.366,22.516 L 7.836,20.909 L 8.334,22.516 L 9.313,22.516 L 9.313,19.832 L 8.681,19.832 L 8.681,22.021 L 8.005,19.832 L 7.575,19.832 L 6.914,22.021" stroke="none" fill="#ffffff" stroke-width="0.044" fill-rule="nonzero" stroke-linejoin="miter" stroke-miterlimit="79.8403193612775"/>
        <path d="M 12.015,20.841 C 12.015,20.403 11.955,20.209 11.765,20.041 C 11.577,19.872 11.311,19.792 10.952,19.792 C 10.574,19.792 10.301,19.88 10.111,20.057 C 9.942,20.226 9.874,20.447 9.874,20.841 L 9.874,22.516 L 10.554,22.516 L 10.554,20.841 C 10.554,20.624 10.574,20.532 10.631,20.451 C 10.699,20.355 10.837,20.302 11.009,20.302 C 11.183,20.302 11.335,20.358 11.403,20.447 C 11.463,20.524 11.48,20.613 11.48,20.841 L 11.48,22.516 L 12.015,22.516 L 12.015,20.841" stroke="none" fill="#ffffff" stroke-width="0.044" fill-rule="nonzero" stroke-linejoin="miter" stroke-miterlimit="79.8403193612775"/>
        <path d="M 14.632,19.832 L 14.092,19.832 L 13.042,21.646 C 13.047,21.602 13.047,21.566 13.047,21.553 C 13.051,21.493 13.055,21.453 13.055,21.437 L 13.055,19.832 L 12.567,19.832 L 12.567,22.516 L 13.243,22.516 L 14.157,20.934 C 14.149,21.018 14.145,21.058 14.145,21.11 L 14.145,22.516 L 14.632,22.516 L 14.632,19.832" stroke="none" fill="#ffffff" stroke-width="0.044" fill-rule="nonzero" stroke-linejoin="miter" stroke-miterlimit="79.8403193612775"/>
        <path d="M 15.853,19.832 L 15.225,19.832 L 15.225,22.516 L 15.853,22.516 L 15.853,19.832" stroke="none" fill="#ffffff" stroke-width="0.044" fill-rule="nonzero" stroke-linejoin="miter" stroke-miterlimit="79.8403193612775"/>
        <path d="M 18.139,21.984 L 17.475,21.984 L 17.475,19.832 L 16.839,19.832 L 16.839,21.984 L 16.172,21.984 L 16.172,22.516 L 18.139,22.516 L 18.139,21.984" stroke="none" fill="#ffffff" stroke-width="0.044" fill-rule="nonzero" stroke-linejoin="miter" stroke-miterlimit="79.8403193612775"/>
        <path d="M 19.557,20.962 L 19.557,19.832 L 18.929,19.832 L 18.929,20.962 L 18.084,22.516 L 18.813,22.516 L 19.328,21.497 L 19.835,22.516 L 20.397,22.516 L 19.557,20.962" stroke="none" fill="#ffffff" stroke-width="0.044" fill-rule="nonzero" stroke-linejoin="miter" stroke-miterlimit="79.8403193612775"/>
        <path d="M 23.18,21.473 C 23.173,21.646 23.155,21.718 23.112,21.816 C 23.047,21.96 22.91,22.045 22.737,22.045 C 22.407,22.045 22.246,21.747 22.246,21.144 C 22.246,20.559 22.403,20.302 22.749,20.302 C 23.015,20.302 23.168,20.467 23.228,20.81 L 23.836,20.774 C 23.799,20.508 23.751,20.375 23.635,20.213 C 23.438,19.941 23.127,19.792 22.745,19.792 C 22.017,19.792 21.546,20.335 21.546,21.175 C 21.546,21.57 21.651,21.904 21.86,22.157 C 22.077,22.427 22.371,22.555 22.757,22.555 C 23.136,22.555 23.421,22.427 23.607,22.173 C 23.739,21.992 23.792,21.836 23.836,21.517 L 23.18,21.473" stroke="none" fill="#ffffff" stroke-width="0.044" fill-rule="nonzero" stroke-linejoin="miter" stroke-miterlimit="79.8403193612775"/>
        <path d="M 24.899,21.811 C 24.827,21.658 24.783,21.425 24.783,21.175 C 24.783,20.593 24.948,20.302 25.283,20.302 C 25.604,20.302 25.76,20.588 25.76,21.172 C 25.76,21.755 25.604,22.045 25.278,22.045 C 25.1,22.045 24.976,21.968 24.899,21.811 Z M 26.111,22.166 C 26.309,21.896 26.417,21.542 26.417,21.155 C 26.417,20.805 26.304,20.43 26.119,20.181 C 25.929,19.932 25.624,19.791 25.262,19.791 C 24.912,19.791 24.63,19.924 24.437,20.177 C 24.236,20.444 24.127,20.793 24.127,21.184 C 24.127,21.566 24.236,21.916 24.429,22.166 C 24.626,22.418 24.919,22.555 25.283,22.555 C 25.644,22.555 25.918,22.427 26.111,22.166" stroke="none" fill="#ffffff" stroke-width="0.044" fill-rule="nonzero" stroke-linejoin="miter" stroke-miterlimit="79.8403193612775"/>
        <path d="M 28.583,20.363 L 28.583,19.832 L 26.881,19.832 L 26.881,22.516 L 27.516,22.516 L 27.516,20.363 L 28.583,20.363" stroke="none" fill="#ffffff" stroke-width="0.044" fill-rule="nonzero" stroke-linejoin="miter" stroke-miterlimit="79.8403193612775"/>
        <path d="M 30.661,20.363 L 30.661,19.832 L 28.959,19.832 L 28.959,22.516 L 29.594,22.516 L 29.594,20.363 L 30.661,20.363" stroke="none" fill="#ffffff" stroke-width="0.044" fill-rule="nonzero" stroke-linejoin="miter" stroke-miterlimit="79.8403193612775"/>
        <path d="M 31.676,22.005 L 31.676,21.453 L 32.681,21.453 L 32.681,20.95 L 31.676,20.95 L 31.676,20.363 L 32.954,20.363 L 32.954,19.832 L 31.036,19.832 L 31.036,22.516 L 32.954,22.516 L 32.954,22.005 L 31.676,22.005" stroke="none" fill="#ffffff" stroke-width="0.044" fill-rule="nonzero" stroke-linejoin="miter" stroke-miterlimit="79.8403193612775"/>
        <path d="M 35.471,19.832 L 35.186,19.832 C 35.153,19.972 35.145,19.997 35.094,20.141 C 34.864,19.88 34.679,19.791 34.361,19.791 C 33.684,19.791 33.255,20.314 33.255,21.139 C 33.255,22.008 33.71,22.555 34.425,22.555 C 34.997,22.555 35.375,22.226 35.471,21.635 L 34.876,21.553 C 34.856,21.691 34.835,21.747 34.796,21.823 C 34.719,21.964 34.578,22.045 34.413,22.045 C 34.078,22.045 33.894,21.727 33.894,21.151 C 33.894,20.604 34.087,20.302 34.442,20.302 C 34.586,20.302 34.711,20.358 34.792,20.467 C 34.856,20.555 34.876,20.624 34.876,20.765 L 34.369,20.765 L 34.369,21.268 L 35.471,21.268 L 35.471,19.832" stroke="none" fill="#ffffff" stroke-width="0.044" fill-rule="nonzero" stroke-linejoin="miter" stroke-miterlimit="79.8403193612775"/>
        <path d="M 36.661,22.005 L 36.661,21.453 L 37.667,21.453 L 37.667,20.95 L 36.661,20.95 L 36.661,20.363 L 37.94,20.363 L 37.94,19.832 L 36.021,19.832 L 36.021,22.516 L 37.94,22.516 L 37.94,22.005 L 36.661,22.005" stroke="none" fill="#ffffff" stroke-width="0.044" fill-rule="nonzero" stroke-linejoin="miter" stroke-miterlimit="79.8403193612775"/>
        <path d="M 7.559,24.306 L 6.959,24.306 C 6.891,24.602 6.874,24.653 6.764,24.957 C 6.282,24.408 5.892,24.222 5.224,24.222 C 3.803,24.222 2.898,25.321 2.898,27.055 C 2.898,28.882 3.854,30.032 5.36,30.032 C 6.561,30.032 7.357,29.339 7.559,28.096 L 6.307,27.926 C 6.265,28.215 6.223,28.333 6.138,28.493 C 5.977,28.789 5.682,28.958 5.334,28.958 C 4.632,28.958 4.242,28.291 4.242,27.081 C 4.242,25.93 4.649,25.296 5.394,25.296 C 5.698,25.296 5.96,25.415 6.129,25.642 C 6.265,25.829 6.307,25.973 6.307,26.268 L 5.241,26.268 L 5.241,27.326 L 7.559,27.326 L 7.559,24.306" stroke="none" fill="#ffffff" stroke-width="0.044" fill-rule="nonzero" stroke-linejoin="miter" stroke-miterlimit="79.8403193612775"/>
        <path d="M 13.152,26.43 C 13.152,25.507 13.025,25.101 12.627,24.745 C 12.229,24.39 11.671,24.222 10.918,24.222 C 10.123,24.222 9.548,24.408 9.151,24.78 C 8.795,25.135 8.651,25.601 8.651,26.43 L 8.651,29.949 L 10.081,29.949 L 10.081,26.43 C 10.081,25.973 10.123,25.778 10.242,25.609 C 10.385,25.405 10.673,25.296 11.037,25.296 C 11.4,25.296 11.722,25.415 11.865,25.601 C 11.993,25.761 12.027,25.947 12.027,26.43 L 12.027,29.949 L 13.152,29.949 L 13.152,26.43" stroke="none" fill="#ffffff" stroke-width="0.044" fill-rule="nonzero" stroke-linejoin="miter" stroke-miterlimit="79.8403193612775"/>
        <path d="M 16.68,26.505 L 16.08,28.484 L 15.48,26.505 Z M 18.753,24.306 L 17.332,24.306 L 16.985,25.465 L 15.167,25.465 L 14.811,24.306 L 13.652,24.306 L 15.453,29.949 L 16.985,29.949 L 18.753,24.306" stroke="none" fill="#ffffff" stroke-width="0.044" fill-rule="nonzero" stroke-linejoin="miter" stroke-miterlimit="79.8403193612775"/>
        <path d="M 20.801,27.504 L 21.613,27.504 C 22.053,27.504 22.155,27.521 22.315,27.622 C 22.511,27.741 22.646,27.994 22.646,28.239 C 22.646,28.459 22.544,28.671 22.384,28.797 C 22.215,28.925 22.113,28.942 21.579,28.942 L 20.801,28.942 Z M 20.801,24.306 L 19.473,24.306 L 19.473,29.949 L 21.952,29.949 C 22.68,29.949 23.077,29.847 23.415,29.567 C 23.779,29.271 24.008,28.764 24.008,28.256 C 24.008,27.85 23.855,27.445 23.584,27.157 C 23.449,27.012 23.321,26.929 23.035,26.793 L 24.075,24.306 L 22.611,24.306 L 21.749,26.539 L 20.801,26.539 L 20.801,24.306" stroke="none" fill="#ffffff" stroke-width="0.044" fill-rule="nonzero" stroke-linejoin="miter" stroke-miterlimit="79.8403193612775"/>
        <path d="M 26.394,25.364 L 26.935,25.364 C 27.392,25.364 27.714,25.508 27.95,25.82 C 28.212,26.175 28.356,26.649 28.356,27.157 C 28.356,27.663 28.212,28.113 27.958,28.451 C 27.714,28.773 27.417,28.907 26.952,28.907 L 26.394,28.907 Z M 26.817,29.949 C 27.9,29.949 28.475,29.736 28.999,29.162 C 29.464,28.637 29.718,27.935 29.718,27.14 C 29.718,26.353 29.473,25.651 29.016,25.126 C 28.542,24.577 27.883,24.306 27.037,24.306 L 25.1,24.306 L 25.1,29.949 L 26.817,29.949" stroke="none" fill="#ffffff" stroke-width="0.044" fill-rule="nonzero" stroke-linejoin="miter" stroke-miterlimit="79.8403193612775"/>
        <path d="M 32.013,24.306 L 30.693,24.306 L 30.693,29.949 L 32.013,29.949 L 32.013,24.306" stroke="none" fill="#ffffff" stroke-width="0.044" fill-rule="nonzero" stroke-linejoin="miter" stroke-miterlimit="79.8403193612775"/>
        <path d="M 35.718,26.505 L 35.117,28.484 L 34.516,26.505 Z M 37.79,24.306 L 36.369,24.306 L 36.021,25.465 L 34.204,25.465 L 33.848,24.306 L 32.689,24.306 L 34.491,29.949 L 36.021,29.949 L 37.79,24.306" stroke="none" fill="#ffffff" stroke-width="0.044" fill-rule="nonzero" stroke-linejoin="miter" stroke-miterlimit="79.8403193612775"/>
        <path d="M 2.211,25.505 L 2.191,24.387 L -2.314,24.387 L -2.314,30.029 L -0.977,30.029 L -0.977,25.503 L 2.211,25.505" stroke="none" fill="#ffffff" stroke-width="0.044" fill-rule="nonzero" stroke-linejoin="miter" stroke-miterlimit="79.8403193612775"/>
        <path d="M 1.546,27.654 C 1.314,27.63 1.221,27.614 1.091,27.567 C 0.869,27.495 0.755,27.366 0.755,27.18 C 0.755,26.989 0.884,26.854 1.076,26.854 C 1.345,26.854 1.547,27.102 1.547,27.422 Z M 1.613,26.435 C 1.582,26.601 1.578,26.631 1.578,26.766 C 1.578,26.771 1.578,26.803 1.582,26.834 C 1.334,26.498 1.133,26.383 0.765,26.383 C 0.279,26.383 -0.036,26.663 -0.036,27.097 C -0.036,27.459 0.166,27.728 0.533,27.867 C 0.735,27.939 0.972,27.981 1.547,28.028 L 1.547,28.172 C 1.547,28.421 1.422,28.545 1.169,28.545 C 0.92,28.545 0.765,28.415 0.735,28.172 L 0.042,28.239 C 0.093,28.513 0.17,28.653 0.331,28.777 C 0.554,28.947 0.869,29.035 1.242,29.035 C 1.655,29.035 1.991,28.916 2.156,28.715 C 2.265,28.576 2.296,28.441 2.296,28.064 L 2.296,26.911 C 2.296,26.606 2.296,26.606 2.342,26.435 L 1.613,26.435" stroke="none" fill="#ffffff" stroke-width="0.044" fill-rule="nonzero" stroke-linejoin="miter" stroke-miterlimit="79.8403193612775"/>
        <path d="M 26.204,46.879 C 26.204,42.085 22.318,38.198 17.523,38.198 C 12.728,38.198 8.842,42.085 8.842,46.879 C 8.842,51.673 12.728,55.56 17.523,55.56 C 22.318,55.56 26.204,51.673 26.204,46.879" stroke="none" fill="#dc1b30" stroke-width="0.044" fill-rule="nonzero" stroke-linejoin="miter" stroke-miterlimit="79.8403193612775"/>
        <path d="M 24.477,38.82 L 27.346,38.58 L 24.716,41.688 L 21.846,41.928 L 21.606,39.059 L 24.239,35.949 L 24.477,38.82" stroke="none" fill="#ffffff" stroke-width="0.044" fill-rule="nonzero" stroke-linejoin="miter" stroke-miterlimit="79.8403193612775"/>
        <path d="M 7.321,45.009 L 5.68,42.643 L 9.688,43.368 L 11.329,45.735 L 8.963,47.375 L 4.955,46.65 L 7.321,45.009" stroke="none" fill="#ffffff" stroke-width="0.044" fill-rule="nonzero" stroke-linejoin="miter" stroke-miterlimit="79.8403193612775"/>
        <path d="M 10.945,38.797 L 11.208,35.93 L 13.812,39.061 L 13.549,41.928 L 10.681,41.665 L 8.077,38.533 L 10.945,38.797" stroke="none" fill="#ffffff" stroke-width="0.044" fill-rule="nonzero" stroke-linejoin="miter" stroke-miterlimit="79.8403193612775"/>
        <path d="M 28.077,45.055 L 30.428,46.716 L 26.415,47.406 L 24.062,45.744 L 25.724,43.392 L 29.739,42.702 L 28.077,45.055" stroke="none" fill="#ffffff" stroke-width="0.044" fill-rule="nonzero" stroke-linejoin="miter" stroke-miterlimit="79.8403193612775"/>
        <path d="M 21.269,56.774 L 20.04,59.378 L 18.664,55.545 L 19.893,52.939 L 22.499,54.168 L 23.873,58.002 L 21.269,56.774" stroke="none" fill="#ffffff" stroke-width="0.044" fill-rule="nonzero" stroke-linejoin="miter" stroke-miterlimit="79.8403193612775"/>
        <path d="M 14.045,56.779 L 11.43,57.985 L 12.84,54.164 L 15.456,52.959 L 16.661,55.574 L 15.252,59.393 L 14.045,56.779" stroke="none" fill="#ffffff" stroke-width="0.044" fill-rule="nonzero" stroke-linejoin="miter" stroke-miterlimit="79.8403193612775"/>
        <path d="M 17.674,36.283 L 19.721,34.256 L 19.702,38.33 L 17.657,40.356 L 15.63,38.311 L 15.648,34.238 L 17.674,36.283" stroke="none" fill="#ffffff" stroke-width="0.044" fill-rule="nonzero" stroke-linejoin="miter" stroke-miterlimit="79.8403193612775"/>
        <path d="M 26.82,52.121 L 27.551,54.906 L 24.033,52.855 L 23.301,50.069 L 26.085,49.336 L 29.604,51.387 L 26.82,52.121" stroke="none" fill="#ffffff" stroke-width="0.044" fill-rule="nonzero" stroke-linejoin="miter" stroke-miterlimit="79.8403193612775"/>
        <path d="M 8.538,52.08 L 5.76,51.324 L 9.297,49.303 L 12.075,50.06 L 11.318,52.838 L 7.781,54.86 L 8.538,52.08" stroke="none" fill="#ffffff" stroke-width="0.044" fill-rule="nonzero" stroke-linejoin="miter" stroke-miterlimit="79.8403193612775"/>
        <g id="Group_2">
         <text xml:space="preserve" transform="translate(46.407 48.925) scale(1 -1)"><tspan x="0" y="0" font-style="italic" stroke="none" fill="#ffffff" stroke-width="0.447" fill-rule="nonzero" stroke-linejoin="miter" font-family="Interstate" font-weight="normal" font-size="7.587" stroke-miterlimit="79.8403193612775">Math, Engineering </tspan><tspan x="0" y="8.926" font-style="italic" stroke="none" fill="#ffffff" stroke-width="0.447" fill-rule="nonzero" stroke-linejoin="miter" font-family="Interstate" font-weight="normal" font-size="7.587" stroke-miterlimit="79.8403193612775">and Computer Science </tspan><tspan x="0" y="17.852" stroke="none" fill="#ffffff" stroke-width="0.447" fill-rule="nonzero" stroke-linejoin="miter" font-family="Interstate" font-weight="normal" font-size="7.587" font-style="italic" stroke-miterlimit="79.8403193612775">Department </tspan></text>
        </g>
       </g>
      </g>
     </g>
    </g>
   </g>
  </g>
 </g>
</svg>
