<?xml version="1.0" standalone="no"?>
<!DOCTYPE svg PUBLIC "-//W3C//DTD SVG 1.1//EN" "http://www.w3.org/Graphics/SVG/1.1/DTD/svg11.dtd">
<!--Generator: Xara Designer (www.xara.com), SVG filter version: 4.0.0.1-->
<svg stroke-width="0.501" stroke-linejoin="bevel" fill-rule="evenodd" xmlns:xlink="http://www.w3.org/1999/xlink" xmlns="http://www.w3.org/2000/svg" version="1.1" overflow="visible" width="82.5pt" height="88.5pt" viewBox="0 0 82.5 88.5">
 <defs>
  <marker id="DefaultArrow2" markerUnits="strokeWidth" viewBox="0 0 1 1" markerWidth="1" markerHeight="1" overflow="visible" orient="auto">
   <!-- REF_ARROW_STRAIGHT (-2) -->
   <g transform="scale(0.0092592592)">
    <!-- 1/108 -->
    <path d="M -9 54 L -9 -54 L 117 0 z"/>
   </g>
  </marker>
  <marker id="DefaultArrow3" markerUnits="strokeWidth" viewBox="0 0 1 1" markerWidth="1" markerHeight="1" overflow="visible" orient="auto">
   <!-- REF_ARROW_ANGLED -->
   <g transform="scale(0.0092592592)">
    <path d="M -27 54 L -9 0 L -27 -54 L 135 0 z"/>
   </g>
  </marker>
  <marker id="DefaultArrow4" markerUnits="strokeWidth" viewBox="0 0 1 1" markerWidth="1" markerHeight="1" overflow="visible" orient="auto">
   <!-- REF_ARROW_ROUNDED -->
   <g transform="scale(0.0092592592)">
    <path d="M -9,0 L -9,-45 C -9,-51.708 2.808,-56.580 9,-54 L 117,-9 C 120.916,-7.369 126.000,-4.242 126,0 C 126,4.242 120.916,7.369 117,9 L 9,54 C 2.808,56.580 -9,51.708 -9,45 z"/>
   </g>
  </marker>
  <marker id="DefaultArrow5" markerUnits="strokeWidth" viewBox="0 0 1 1" markerWidth="1" markerHeight="1" overflow="visible" orient="auto">
   <!-- REF_ARROW_SPOT -->
   <g transform="scale(0.0092592592)">
    <path d="M -54, 0 C -54,29.807 -29.807,54 0,54 C 29.807,54 54,29.807 54,0 C 54,-29.807 29.807,-54 0,-54 C -29.807,-54 -54,-29.807 -54,0 z"/>
   </g>
  </marker>
  <marker id="DefaultArrow6" markerUnits="strokeWidth" viewBox="0 0 1 1" markerWidth="1" markerHeight="1" overflow="visible" orient="auto">
   <!-- REF_ARROW_DIAMOND -->
   <g transform="scale(0.0092592592)">
    <path d="M -63,0 L 0,63 L 63,0 L 0,-63 z"/>
   </g>
  </marker>
  <marker id="DefaultArrow7" markerUnits="strokeWidth" viewBox="0 0 1 1" markerWidth="1" markerHeight="1" overflow="visible" orient="auto">
   <!-- REF_ARROW_FEATHER -->
   <g transform="scale(0.0092592592)">
    <path d="M 18,-54 L 108,-54 L 63,0 L 108,54 L 18, 54 L -36,0 z"/>
   </g>
  </marker>
  <marker id="DefaultArrow8" markerUnits="strokeWidth" viewBox="0 0 1 1" markerWidth="1" markerHeight="1" overflow="visible" orient="auto">
   <!-- REF_ARROW_FEATHER2 -->
   <g transform="scale(0.0092592592)">
    <path d="M -36,0 L 18,-54 L 54,-54 L 18,-18 L 27,-18 L 63,-54 L 99,-54 L 63,-18 L 72,-18 L 108,-54 L 144,-54 L 90,0 L 144,54 L 108,54 L 72,18 L 63,18 L 99,54 L 63,54 L 27,18 L 18,18 L 54,54 L 18,54 z"/>
   </g>
  </marker>
  <marker id="DefaultArrow9" markerUnits="strokeWidth" viewBox="0 0 1 1" markerWidth="1" markerHeight="1" overflow="visible" orient="auto">
   <!-- REF_ARROW_HOLLOWDIAMOND -->
   <g transform="scale(0.0092592592)">
    <path d="M 0,45 L -45,0 L 0, -45 L 45, 0 z M 0, 63 L-63, 0 L 0, -63 L 63, 0 z"/>
   </g>
  </marker>
  <filter id="StainedFilter">
   <feBlend mode="multiply" in2="BackgroundImage" in="SourceGraphic" result="blend"/>
   <feComposite in="blend" in2="SourceAlpha" operator="in" result="comp"/>
  </filter>
  <filter id="BleachFilter">
   <feBlend mode="screen" in2="BackgroundImage" in="SourceGraphic" result="blend"/>
   <feComposite in="blend" in2="SourceAlpha" operator="in" result="comp"/>
  </filter>
  <filter id="InvertTransparencyBitmapFilter">
   <feComponentTransfer>
    <feFuncR type="gamma" amplitude="1.055" exponent=".416666666" offset="-0.055"/>
    <feFuncG type="gamma" amplitude="1.055" exponent=".416666666" offset="-0.055"/>
    <feFuncB type="gamma" amplitude="1.055" exponent=".416666666" offset="-0.055"/>
   </feComponentTransfer>
   <feComponentTransfer>
    <feFuncR type="linear" slope="-1" intercept="1"/>
    <feFuncG type="linear" slope="-1" intercept="1"/>
    <feFuncB type="linear" slope="-1" intercept="1"/>
    <feFuncA type="linear" slope="1" intercept="0"/>
   </feComponentTransfer>
   <feComponentTransfer>
    <feFuncR type="gamma" amplitude="1" exponent="2.4" offset="0"/>
    <feFuncG type="gamma" amplitude="1" exponent="2.4" offset="0"/>
    <feFuncB type="gamma" amplitude="1" exponent="2.4" offset="0"/>
   </feComponentTransfer>
  </filter>
 </defs>
 <g id="Document" fill="none" stroke="black" font-family="Times New Roman" font-size="16" transform="scale(1 -1)">
  <g id="Spread" transform="translate(0 -88.5)">
   <g id="SVG Document">
    <g id="Group" fill-rule="nonzero" stroke-linejoin="miter" stroke="none" stroke-width="0.082" stroke-miterlimit="79.8403193612775">
     <path d="M 82.828,0.073 L -0.001,0.073 L -0.001,88.924 L 82.828,88.924 L 82.828,0.073" fill="#dc1b30"/>
     <path d="M 1.507,27.281 L 1.507,27.06 L 40.354,54.261 L 1.507,21.665 L 1.507,21.429 L 40.475,54.126 L 1.507,15.157 L 1.507,14.902 L 40.594,53.988 L 1.6,7.518 L 1.836,7.518 L 40.734,53.872 L 8.275,7.518 L 8.496,7.518 L 40.885,53.772 L 14.179,7.518 L 14.387,7.518 L 41.047,53.693 L 19.517,7.518 L 19.717,7.518 L 41.198,53.588 L 24.429,7.518 L 24.622,7.518 L 41.383,53.565 L 29.044,7.518 L 29.233,7.518 L 41.546,53.475 L 33.443,7.518 L 33.626,7.518 L 41.727,53.459 L 37.708,7.518 L 37.89,7.518 L 41.911,53.471 L 41.911,7.518 L 42.092,7.518 L 42.092,53.427 L 46.109,7.518 L 46.291,7.518 L 42.269,53.479 L 50.374,7.518 L 50.558,7.518 L 42.448,53.508 L 54.771,7.518 L 54.959,7.518 L 42.625,53.548 L 59.378,7.518 L 59.571,7.518 L 42.801,53.596 L 64.285,7.518 L 64.485,7.518 L 42.961,53.68 L 69.612,7.518 L 69.822,7.518 L 43.119,53.768 L 75.503,7.518 L 75.724,7.518 L 43.259,53.883 L 82.163,7.518 L 82.221,7.518 L 82.221,7.732 L 43.403,53.994 L 82.221,15.176 L 82.221,15.432 L 43.528,54.126 L 82.221,21.658 L 82.221,21.894 L 43.653,54.256 L 82.221,27.25 L 82.221,27.472 L 43.76,54.404 L 82.221,32.197 L 82.221,32.406 L 43.826,54.574 L 82.221,36.67 L 82.221,36.87 L 43.927,54.727 L 82.221,40.789 L 82.221,40.982 L 43.983,54.899 L 82.221,44.654 L 82.221,44.841 L 44.01,55.079 L 82.221,48.341 L 82.221,48.525 L 44.07,55.252 L 82.221,51.915 L 82.221,52.097 L 44.063,55.435 L 82.221,55.435 L 82.221,55.616 L 44.089,55.616 L 82.221,58.952 L 82.221,59.133 L 44.053,55.795 L 82.221,62.525 L 82.221,62.708 L 44.04,55.976 L 82.221,66.207 L 82.221,66.394 L 43.966,56.145 L 82.221,70.067 L 82.221,70.259 L 43.927,56.323 L 82.221,74.181 L 82.221,74.38 L 43.832,56.478 L 82.221,78.643 L 82.221,78.851 L 43.762,56.647 L 82.221,83.577 L 82.221,83.798 L 43.648,56.789 L 81.121,88.232 L 80.841,88.232 L 43.536,56.93 L 74.838,88.232 L 74.582,88.232 L 43.401,57.052 L 69.565,88.232 L 69.327,88.232 L 43.261,57.167 L 65.013,88.232 L 64.792,88.232 L 43.116,57.276 L 60.989,88.232 L 60.779,88.232 L 42.963,57.376 L 57.353,88.232 L 57.153,88.232 L 42.787,57.425 L 54.001,88.232 L 53.808,88.232 L 42.631,57.526 L 50.86,88.232 L 50.672,88.232 L 42.447,57.533 L 47.859,88.232 L 47.675,88.232 L 42.27,57.578 L 44.952,88.232 L 44.77,88.232 L 42.092,57.619 L 42.092,88.232 L 41.911,88.232 L 41.911,57.577 L 39.228,88.232 L 39.047,88.232 L 41.727,57.598 L 36.325,88.232 L 36.14,88.232 L 41.549,57.565 L 33.331,88.232 L 33.144,88.232 L 41.375,57.508 L 30.193,88.232 L 30,88.232 L 41.211,57.433 L 26.848,88.232 L 26.65,88.232 L 41.044,57.361 L 23.22,88.232 L 23.011,88.232 L 40.887,57.27 L 19.208,88.232 L 18.988,88.232 L 40.731,57.178 L 14.674,88.232 L 14.438,88.232 L 40.596,57.056 L 9.421,88.232 L 9.165,88.232 L 40.467,56.93 L 3.162,88.232 L 2.881,88.232 L 40.359,56.784 L 1.507,83.989 L 1.507,83.769 L 40.257,56.635 L 1.507,79.008 L 1.507,78.798 L 40.144,56.491 L 1.507,74.508 L 1.507,74.309 L 40.09,56.316 L 1.507,70.358 L 1.507,70.166 L 40.021,56.148 L 1.507,66.468 L 1.507,66.28 L 39.957,55.978 L 1.507,62.758 L 1.507,62.574 L 39.955,55.795 L 1.507,59.158 L 1.507,58.976 L 39.914,55.616 L 1.507,55.616 L 1.507,55.435 L 39.938,55.435 L 1.507,52.073 L 1.507,51.891 L 39.938,55.254 L 1.507,48.476 L 1.507,48.293 L 39.988,55.078 L 1.507,44.767 L 1.507,44.579 L 40.006,54.895 L 1.507,40.883 L 1.507,40.691 L 40.09,54.734 L 1.507,36.741 L 1.507,36.541 L 40.149,54.561 L 1.507,32.25 L 1.507,32.041 L 40.26,54.416" fill="#e14245"/>
     <path d="M 82.37,0.725 L 0.343,0.725 L 0.343,14.42 L 82.37,14.42 L 82.37,0.725" fill="#dc1b30"/>
     <path d="M 7.526,7.063 C 7.512,7.382 7.482,7.516 7.401,7.694 C 7.282,7.961 7.03,8.117 6.711,8.117 C 6.103,8.117 5.807,7.567 5.807,6.456 C 5.807,5.38 6.095,4.905 6.734,4.905 C 7.223,4.905 7.504,5.209 7.616,5.839 L 8.735,5.774 C 8.669,5.284 8.58,5.039 8.365,4.742 C 8.002,4.239 7.43,3.964 6.725,3.964 C 5.383,3.964 4.516,4.965 4.516,6.515 C 4.516,7.242 4.709,7.857 5.094,8.324 C 5.495,8.821 6.036,9.058 6.748,9.058 C 7.445,9.058 7.971,8.821 8.313,8.354 C 8.558,8.02 8.654,7.731 8.735,7.145 L 7.526,7.063" fill="#ffffff"/>
     <path d="M 10.695,7.686 C 10.562,7.405 10.48,6.974 10.48,6.515 C 10.48,5.44 10.784,4.905 11.4,4.905 C 11.993,4.905 12.283,5.432 12.283,6.508 C 12.283,7.582 11.993,8.117 11.393,8.117 C 11.066,8.117 10.836,7.975 10.695,7.686 Z M 12.928,8.339 C 13.291,7.842 13.491,7.19 13.491,6.478 C 13.491,5.832 13.284,5.142 12.943,4.682 C 12.594,4.222 12.03,3.963 11.363,3.963 C 10.718,3.963 10.199,4.208 9.843,4.675 C 9.472,5.165 9.272,5.81 9.272,6.529 C 9.272,7.234 9.472,7.879 9.828,8.339 C 10.191,8.806 10.732,9.058 11.4,9.058 C 12.067,9.058 12.572,8.821 12.928,8.339" fill="#ffffff"/>
     <path d="M 15.318,8.072 L 15.318,4.037 L 14.347,4.037 L 14.347,8.984 L 16.149,8.984 L 17.016,6.024 L 17.936,8.984 L 19.738,8.984 L 19.738,4.037 L 18.573,4.037 L 18.573,8.072 L 17.328,4.037 L 16.534,4.037 L 15.318,8.072" fill="#ffffff"/>
     <path d="M 21.796,8.072 L 21.796,4.037 L 20.824,4.037 L 20.824,8.984 L 22.626,8.984 L 23.493,6.024 L 24.413,8.984 L 26.215,8.984 L 26.215,4.037 L 25.051,4.037 L 25.051,8.072 L 23.805,4.037 L 23.012,4.037 L 21.796,8.072" fill="#ffffff"/>
     <path d="M 31.195,5.899 C 31.195,5.09 31.084,4.735 30.735,4.424 C 30.387,4.112 29.897,3.964 29.237,3.964 C 28.54,3.964 28.036,4.127 27.687,4.453 C 27.376,4.764 27.25,5.172 27.25,5.899 L 27.25,8.984 L 28.503,8.984 L 28.503,5.899 C 28.503,5.499 28.54,5.329 28.644,5.18 C 28.77,5.002 29.022,4.905 29.341,4.905 C 29.66,4.905 29.942,5.01 30.068,5.172 C 30.179,5.314 30.209,5.477 30.209,5.899 L 30.209,8.984 L 31.195,8.984 L 31.195,5.899" fill="#ffffff"/>
     <path d="M 36.017,4.037 L 35.024,4.037 L 33.089,7.382 C 33.096,7.301 33.096,7.234 33.096,7.211 C 33.103,7.1 33.111,7.026 33.111,6.997 L 33.111,4.037 L 32.213,4.037 L 32.213,8.984 L 33.459,8.984 L 35.142,6.07 C 35.128,6.225 35.12,6.299 35.12,6.395 L 35.12,8.984 L 36.017,8.984 L 36.017,4.037" fill="#ffffff"/>
     <path d="M 38.267,4.037 L 37.111,4.037 L 37.111,8.984 L 38.267,8.984 L 38.267,4.037" fill="#ffffff"/>
     <path d="M 42.481,8.005 L 41.257,8.005 L 41.257,4.037 L 40.085,4.037 L 40.085,8.005 L 38.854,8.005 L 38.854,8.984 L 42.481,8.984 L 42.481,8.005" fill="#ffffff"/>
     <path d="M 45.094,6.122 L 45.094,4.037 L 43.936,4.037 L 43.936,6.122 L 42.379,8.984 L 43.722,8.984 L 44.671,7.108 L 45.605,8.984 L 46.642,8.984 L 45.094,6.122" fill="#ffffff"/>
     <path d="M 51.771,7.063 C 51.756,7.382 51.725,7.516 51.645,7.694 C 51.525,7.961 51.273,8.117 50.955,8.117 C 50.347,8.117 50.05,7.567 50.05,6.456 C 50.05,5.38 50.339,4.905 50.977,4.905 C 51.466,4.905 51.748,5.209 51.859,5.839 L 52.98,5.774 C 52.912,5.284 52.823,5.039 52.609,4.742 C 52.245,4.239 51.674,3.964 50.969,3.964 C 49.627,3.964 48.76,4.965 48.76,6.515 C 48.76,7.242 48.953,7.857 49.338,8.324 C 49.738,8.821 50.279,9.058 50.992,9.058 C 51.689,9.058 52.216,8.821 52.557,8.354 C 52.801,8.02 52.898,7.731 52.98,7.145 L 51.771,7.063" fill="#ffffff"/>
     <path d="M 54.939,7.686 C 54.806,7.405 54.724,6.974 54.724,6.515 C 54.724,5.44 55.028,4.905 55.645,4.905 C 56.237,4.905 56.526,5.432 56.526,6.508 C 56.526,7.582 56.237,8.117 55.637,8.117 C 55.31,8.117 55.08,7.975 54.939,7.686 Z M 57.172,8.339 C 57.535,7.842 57.735,7.19 57.735,6.478 C 57.735,5.832 57.527,5.142 57.187,4.682 C 56.838,4.222 56.275,3.963 55.607,3.963 C 54.962,3.963 54.443,4.208 54.087,4.675 C 53.716,5.165 53.516,5.81 53.516,6.529 C 53.516,7.234 53.716,7.879 54.072,8.339 C 54.435,8.806 54.977,9.058 55.645,9.058 C 56.312,9.058 56.816,8.821 57.172,8.339" fill="#ffffff"/>
     <path d="M 61.728,5.017 L 61.728,4.037 L 58.591,4.037 L 58.591,8.984 L 59.762,8.984 L 59.762,5.017 L 61.728,5.017" fill="#ffffff"/>
     <path d="M 65.556,5.017 L 65.556,4.037 L 62.419,4.037 L 62.419,8.984 L 63.591,8.984 L 63.591,5.017 L 65.556,5.017" fill="#ffffff"/>
     <path d="M 67.427,8.043 L 67.427,7.026 L 69.281,7.026 L 69.281,6.099 L 67.427,6.099 L 67.427,5.017 L 69.785,5.017 L 69.785,4.037 L 66.248,4.037 L 66.248,8.984 L 69.785,8.984 L 69.785,8.043 L 67.427,8.043" fill="#ffffff"/>
     <path d="M 74.422,4.037 L 73.896,4.037 C 73.836,4.297 73.822,4.342 73.725,4.61 C 73.303,4.127 72.961,3.963 72.376,3.963 C 71.13,3.963 70.337,4.927 70.337,6.447 C 70.337,8.049 71.175,9.058 72.494,9.058 C 73.548,9.058 74.244,8.45 74.422,7.36 L 73.325,7.211 C 73.288,7.464 73.25,7.567 73.177,7.708 C 73.035,7.968 72.775,8.117 72.472,8.117 C 71.856,8.117 71.515,7.53 71.515,6.469 C 71.515,5.462 71.871,4.905 72.524,4.905 C 72.791,4.905 73.021,5.01 73.169,5.209 C 73.288,5.372 73.325,5.498 73.325,5.759 L 72.39,5.759 L 72.39,6.685 L 74.422,6.685 L 74.422,4.037" fill="#ffffff"/>
     <path d="M 76.613,8.043 L 76.613,7.026 L 78.467,7.026 L 78.467,6.099 L 76.613,6.099 L 76.613,5.017 L 78.971,5.017 L 78.971,4.037 L 75.434,4.037 L 75.434,8.984 L 78.971,8.984 L 78.971,8.043 L 76.613,8.043" fill="#ffffff"/>
     <path d="M 22.983,12.284 L 21.876,12.284 C 21.751,12.829 21.72,12.923 21.518,13.484 C 20.63,12.471 19.911,12.128 18.68,12.128 C 16.061,12.128 14.393,14.155 14.393,17.35 C 14.393,20.717 16.155,22.837 18.93,22.837 C 21.144,22.837 22.609,21.559 22.983,19.267 L 20.676,18.956 C 20.598,19.486 20.52,19.704 20.364,20 C 20.068,20.546 19.522,20.857 18.883,20.857 C 17.59,20.857 16.872,19.627 16.872,17.396 C 16.872,15.277 17.621,14.107 18.993,14.107 C 19.554,14.107 20.036,14.326 20.348,14.746 C 20.598,15.089 20.676,15.355 20.676,15.9 L 18.711,15.9 L 18.711,17.849 L 22.983,17.849 L 22.983,12.284" fill="#ffffff"/>
     <path d="M 33.29,16.196 C 33.29,14.497 33.056,13.748 32.324,13.094 C 31.59,12.439 30.561,12.128 29.174,12.128 C 27.709,12.128 26.648,12.471 25.916,13.156 C 25.261,13.811 24.997,14.669 24.997,16.196 L 24.997,22.682 L 27.631,22.682 L 27.631,16.196 C 27.631,15.355 27.709,14.996 27.927,14.684 C 28.192,14.31 28.722,14.107 29.392,14.107 C 30.063,14.107 30.656,14.326 30.92,14.669 C 31.154,14.965 31.217,15.308 31.217,16.196 L 31.217,22.682 L 33.29,22.682 L 33.29,16.196" fill="#ffffff"/>
     <path d="M 39.793,16.337 L 38.686,19.985 L 37.579,16.337 Z M 43.612,12.284 L 40.994,12.284 L 40.354,14.42 L 37.002,14.42 L 36.347,12.284 L 34.211,12.284 L 37.532,22.682 L 40.354,22.682 L 43.612,12.284" fill="#ffffff"/>
     <path d="M 47.387,18.177 L 48.884,18.177 C 49.694,18.177 49.881,18.208 50.177,18.394 C 50.536,18.613 50.785,19.08 50.785,19.532 C 50.785,19.938 50.599,20.328 50.302,20.561 C 49.991,20.796 49.803,20.827 48.821,20.827 L 47.387,20.827 Z M 47.387,12.284 L 44.939,12.284 L 44.939,22.682 L 49.507,22.682 C 50.848,22.682 51.581,22.494 52.204,21.98 C 52.874,21.434 53.295,20.499 53.295,19.563 C 53.295,18.815 53.015,18.067 52.516,17.537 C 52.266,17.272 52.032,17.117 51.502,16.867 L 53.42,12.284 L 50.723,12.284 L 49.133,16.399 L 47.387,16.399 L 47.387,12.284" fill="#ffffff"/>
     <path d="M 57.693,14.232 L 58.691,14.232 C 59.532,14.232 60.125,14.498 60.561,15.074 C 61.045,15.729 61.31,16.602 61.31,17.537 C 61.31,18.472 61.045,19.299 60.577,19.922 C 60.125,20.515 59.579,20.763 58.722,20.763 L 57.693,20.763 Z M 58.473,22.682 C 60.468,22.682 61.528,22.292 62.494,21.231 C 63.352,20.265 63.819,18.971 63.819,17.506 C 63.819,16.056 63.367,14.762 62.525,13.795 C 61.653,12.782 60.437,12.284 58.878,12.284 L 55.308,12.284 L 55.308,22.682 L 58.473,22.682" fill="#ffffff"/>
     <path d="M 68.048,12.284 L 65.616,12.284 L 65.616,22.682 L 68.048,22.682 L 68.048,12.284" fill="#ffffff"/>
     <path d="M 74.876,16.337 L 73.769,19.985 L 72.662,16.337 Z M 78.695,12.284 L 76.076,12.284 L 75.436,14.42 L 72.085,14.42 L 71.43,12.284 L 69.295,12.284 L 72.615,22.682 L 75.436,22.682 L 78.695,12.284" fill="#ffffff"/>
     <path d="M 13.129,14.494 L 13.092,12.432 L 4.789,12.432 L 4.789,22.83 L 7.253,22.83 L 7.253,14.489 L 13.129,14.494" fill="#ffffff"/>
     <path d="M 11.902,18.456 C 11.474,18.409 11.302,18.38 11.064,18.294 C 10.654,18.16 10.445,17.923 10.445,17.58 C 10.445,17.228 10.683,16.98 11.035,16.98 C 11.531,16.98 11.903,17.437 11.903,18.027 Z M 12.026,16.208 C 11.969,16.513 11.96,16.57 11.96,16.817 C 11.96,16.827 11.96,16.884 11.969,16.941 C 11.511,16.322 11.14,16.112 10.464,16.112 C 9.569,16.112 8.987,16.627 8.987,17.427 C 8.987,18.095 9.359,18.59 10.035,18.846 C 10.407,18.98 10.845,19.057 11.903,19.142 L 11.903,19.409 C 11.903,19.866 11.673,20.095 11.207,20.095 C 10.75,20.095 10.464,19.856 10.407,19.409 L 9.13,19.532 C 9.226,20.037 9.368,20.295 9.663,20.523 C 10.073,20.838 10.654,21 11.34,21 C 12.103,21 12.722,20.781 13.026,20.409 C 13.227,20.152 13.284,19.904 13.284,19.209 L 13.284,17.084 C 13.284,16.522 13.284,16.522 13.369,16.208 L 12.026,16.208" fill="#ffffff"/>
     <path d="M 57.344,53.883 C 57.344,45.047 50.182,37.884 41.346,37.884 C 32.51,37.884 25.347,45.047 25.347,53.883 C 25.347,62.719 32.51,69.881 41.346,69.881 C 50.182,69.881 57.344,62.719 57.344,53.883" fill="#dc1b30"/>
     <path d="M 54.162,39.03 L 59.449,38.59 L 54.601,44.317 L 49.313,44.759 L 48.871,39.471 L 53.722,33.741 L 54.162,39.03" fill="#ffffff"/>
     <path d="M 22.545,50.437 L 19.521,46.076 L 26.906,47.412 L 29.931,51.773 L 25.57,54.797 L 18.184,53.462 L 22.545,50.437" fill="#ffffff"/>
     <path d="M 29.222,38.989 L 29.707,33.705 L 34.507,39.474 L 34.022,44.758 L 28.736,44.274 L 23.937,38.503 L 29.222,38.989" fill="#ffffff"/>
     <path d="M 60.796,50.52 L 65.127,53.583 L 57.732,54.854 L 53.397,51.791 L 56.46,47.457 L 63.857,46.187 L 60.796,50.52" fill="#ffffff"/>
     <path d="M 48.249,72.119 L 45.985,76.916 L 43.448,69.852 L 45.713,65.051 L 50.515,67.316 L 53.049,74.381 L 48.249,72.119" fill="#ffffff"/>
     <path d="M 34.938,72.127 L 30.117,74.349 L 32.716,67.307 L 37.537,65.087 L 39.757,69.906 L 37.16,76.945 L 34.938,72.127" fill="#ffffff"/>
     <path d="M 41.624,34.357 L 45.395,30.62 L 45.361,38.127 L 41.593,41.862 L 37.856,38.093 L 37.889,30.586 L 41.624,34.357" fill="#ffffff"/>
     <path d="M 58.477,63.544 L 59.826,68.675 L 53.344,64.896 L 51.993,59.762 L 57.125,58.41 L 63.61,62.191 L 58.477,63.544" fill="#ffffff"/>
     <path d="M 24.788,63.469 L 19.668,62.075 L 26.185,58.349 L 31.305,59.745 L 29.91,64.865 L 23.391,68.59 L 24.788,63.469" fill="#ffffff"/>
    </g>
   </g>
  </g>
 </g>
</svg>
